G04 #@! TF.GenerationSoftware,KiCad,Pcbnew,8.0.9*
G04 #@! TF.CreationDate,2025-07-12T12:55:35+02:00*
G04 #@! TF.ProjectId,OBD_Circuit,4f42445f-4369-4726-9375-69742e6b6963,rev?*
G04 #@! TF.SameCoordinates,Original*
G04 #@! TF.FileFunction,Legend,Top*
G04 #@! TF.FilePolarity,Positive*
%FSLAX46Y46*%
G04 Gerber Fmt 4.6, Leading zero omitted, Abs format (unit mm)*
G04 Created by KiCad (PCBNEW 8.0.9) date 2025-07-12 12:55:35*
%MOMM*%
%LPD*%
G01*
G04 APERTURE LIST*
G04 Aperture macros list*
%AMRoundRect*
0 Rectangle with rounded corners*
0 $1 Rounding radius*
0 $2 $3 $4 $5 $6 $7 $8 $9 X,Y pos of 4 corners*
0 Add a 4 corners polygon primitive as box body*
4,1,4,$2,$3,$4,$5,$6,$7,$8,$9,$2,$3,0*
0 Add four circle primitives for the rounded corners*
1,1,$1+$1,$2,$3*
1,1,$1+$1,$4,$5*
1,1,$1+$1,$6,$7*
1,1,$1+$1,$8,$9*
0 Add four rect primitives between the rounded corners*
20,1,$1+$1,$2,$3,$4,$5,0*
20,1,$1+$1,$4,$5,$6,$7,0*
20,1,$1+$1,$6,$7,$8,$9,0*
20,1,$1+$1,$8,$9,$2,$3,0*%
G04 Aperture macros list end*
%ADD10C,0.000000*%
%ADD11C,0.198437*%
%ADD12C,0.152400*%
%ADD13C,0.150000*%
%ADD14C,0.635000*%
%ADD15C,0.100000*%
%ADD16C,0.120000*%
%ADD17C,0.200000*%
%ADD18C,1.524000*%
%ADD19C,3.200000*%
%ADD20RoundRect,0.493000X-0.650000X-0.493000X0.650000X-0.493000X0.650000X0.493000X-0.650000X0.493000X0*%
%ADD21R,2.600000X2.600000*%
%ADD22O,2.600000X2.600000*%
%ADD23C,2.500000*%
%ADD24R,1.600000X1.600000*%
%ADD25C,1.600000*%
%ADD26R,2.000000X2.000000*%
%ADD27C,2.000000*%
G04 APERTURE END LIST*
D10*
G36*
X187976249Y-80852766D02*
G01*
X187980280Y-80853072D01*
X187984252Y-80853577D01*
X187988161Y-80854275D01*
X187992002Y-80855162D01*
X187995768Y-80856231D01*
X187999456Y-80857479D01*
X188003061Y-80858900D01*
X188006577Y-80860490D01*
X188009999Y-80862243D01*
X188013323Y-80864154D01*
X188016544Y-80866219D01*
X188019656Y-80868432D01*
X188022654Y-80870788D01*
X188025534Y-80873283D01*
X188028291Y-80875911D01*
X188030919Y-80878668D01*
X188033414Y-80881548D01*
X188035770Y-80884546D01*
X188037983Y-80887659D01*
X188040048Y-80890879D01*
X188041959Y-80894203D01*
X188043712Y-80897625D01*
X188045302Y-80901141D01*
X188046723Y-80904746D01*
X188047971Y-80908434D01*
X188049041Y-80912201D01*
X188049927Y-80916041D01*
X188050625Y-80919950D01*
X188051130Y-80923922D01*
X188051436Y-80927953D01*
X188051539Y-80932038D01*
X188051539Y-81170163D01*
X188051436Y-81174247D01*
X188051130Y-81178278D01*
X188050625Y-81182251D01*
X188049927Y-81186160D01*
X188049041Y-81190000D01*
X188047971Y-81193766D01*
X188046723Y-81197455D01*
X188045302Y-81201059D01*
X188043712Y-81204575D01*
X188041959Y-81207998D01*
X188040048Y-81211322D01*
X188037983Y-81214542D01*
X188035770Y-81217654D01*
X188033414Y-81220653D01*
X188030919Y-81223533D01*
X188028291Y-81226289D01*
X188025534Y-81228918D01*
X188022654Y-81231412D01*
X188019656Y-81233769D01*
X188016544Y-81235982D01*
X188013323Y-81238046D01*
X188009999Y-81239958D01*
X188006577Y-81241711D01*
X188003061Y-81243300D01*
X187999456Y-81244721D01*
X187995768Y-81245969D01*
X187992002Y-81247039D01*
X187988161Y-81247925D01*
X187984252Y-81248623D01*
X187980280Y-81249128D01*
X187976249Y-81249435D01*
X187972164Y-81249538D01*
X187932477Y-81249538D01*
X187928392Y-81249435D01*
X187924361Y-81249128D01*
X187920389Y-81248623D01*
X187916480Y-81247925D01*
X187912640Y-81247039D01*
X187908873Y-81245969D01*
X187905185Y-81244721D01*
X187901581Y-81243300D01*
X187898065Y-81241711D01*
X187894642Y-81239958D01*
X187891318Y-81238046D01*
X187888098Y-81235982D01*
X187884986Y-81233769D01*
X187881987Y-81231412D01*
X187879107Y-81228918D01*
X187876350Y-81226289D01*
X187873722Y-81223533D01*
X187871227Y-81220653D01*
X187868871Y-81217654D01*
X187866658Y-81214542D01*
X187864593Y-81211322D01*
X187862682Y-81207998D01*
X187860929Y-81204575D01*
X187859340Y-81201059D01*
X187857918Y-81197455D01*
X187856671Y-81193766D01*
X187855601Y-81190000D01*
X187854715Y-81186160D01*
X187854017Y-81182251D01*
X187853512Y-81178278D01*
X187853205Y-81174247D01*
X187853102Y-81170163D01*
X187853102Y-80932038D01*
X187853205Y-80927953D01*
X187853512Y-80923922D01*
X187854017Y-80919950D01*
X187854715Y-80916041D01*
X187855601Y-80912201D01*
X187856671Y-80908434D01*
X187857918Y-80904746D01*
X187859340Y-80901141D01*
X187860929Y-80897625D01*
X187862682Y-80894203D01*
X187864593Y-80890879D01*
X187866658Y-80887659D01*
X187868871Y-80884546D01*
X187871227Y-80881548D01*
X187873722Y-80878668D01*
X187876350Y-80875911D01*
X187879107Y-80873283D01*
X187881987Y-80870788D01*
X187884986Y-80868432D01*
X187888098Y-80866219D01*
X187891318Y-80864154D01*
X187894642Y-80862243D01*
X187898065Y-80860490D01*
X187901581Y-80858900D01*
X187905185Y-80857479D01*
X187908873Y-80856231D01*
X187912640Y-80855162D01*
X187916480Y-80854275D01*
X187920389Y-80853577D01*
X187924361Y-80853072D01*
X187928392Y-80852766D01*
X187932477Y-80852663D01*
X187972164Y-80852663D01*
X187976249Y-80852766D01*
G37*
D11*
X187869018Y-79336325D02*
X187902857Y-79338342D01*
X187936921Y-79342413D01*
X187971143Y-79348590D01*
X188005458Y-79356920D01*
X190013166Y-79908100D01*
X190018765Y-79909767D01*
X190024252Y-79911651D01*
X190029622Y-79913749D01*
X190034870Y-79916053D01*
X190039993Y-79918560D01*
X190044987Y-79921262D01*
X190049846Y-79924155D01*
X190054567Y-79927232D01*
X190059146Y-79930489D01*
X190063577Y-79933920D01*
X190067858Y-79937518D01*
X190071983Y-79941280D01*
X190075949Y-79945198D01*
X190079750Y-79949268D01*
X190083384Y-79953483D01*
X190086845Y-79957839D01*
X190090129Y-79962329D01*
X190093233Y-79966948D01*
X190096151Y-79971691D01*
X190098880Y-79976552D01*
X190101414Y-79981525D01*
X190103751Y-79986605D01*
X190105886Y-79991786D01*
X190107814Y-79997062D01*
X190109531Y-80002429D01*
X190111033Y-80007880D01*
X190112316Y-80013409D01*
X190113375Y-80019012D01*
X190114206Y-80024683D01*
X190114805Y-80030416D01*
X190115167Y-80036205D01*
X190115289Y-80042046D01*
X190115289Y-81567633D01*
X190115704Y-81584359D01*
X190116939Y-81600971D01*
X190118985Y-81617442D01*
X190121829Y-81633745D01*
X190125460Y-81649851D01*
X190129867Y-81665734D01*
X190135038Y-81681365D01*
X190140962Y-81696717D01*
X190147627Y-81711761D01*
X190155022Y-81726471D01*
X190163136Y-81740819D01*
X190171957Y-81754777D01*
X190181473Y-81768317D01*
X190191674Y-81781412D01*
X190202548Y-81794034D01*
X190214083Y-81806155D01*
X190233344Y-81825443D01*
X190238094Y-81830431D01*
X190242572Y-81835626D01*
X190246773Y-81841016D01*
X190250693Y-81846589D01*
X190254326Y-81852334D01*
X190257668Y-81858240D01*
X190260715Y-81864295D01*
X190263461Y-81870488D01*
X190265901Y-81876808D01*
X190268032Y-81883243D01*
X190269848Y-81889781D01*
X190271344Y-81896412D01*
X190272516Y-81903123D01*
X190273359Y-81909905D01*
X190273869Y-81916744D01*
X190274039Y-81923630D01*
X190274039Y-83432930D01*
X190273869Y-83439818D01*
X190273359Y-83446659D01*
X190272516Y-83453442D01*
X190271344Y-83460155D01*
X190269848Y-83466787D01*
X190268032Y-83473327D01*
X190265901Y-83479763D01*
X190263461Y-83486084D01*
X190260715Y-83492278D01*
X190257668Y-83498335D01*
X190254326Y-83504242D01*
X190250693Y-83509989D01*
X190246773Y-83515564D01*
X190242572Y-83520956D01*
X190238094Y-83526153D01*
X190233344Y-83531144D01*
X190214083Y-83550405D01*
X190202548Y-83562527D01*
X190191674Y-83575149D01*
X190181473Y-83588245D01*
X190171957Y-83601787D01*
X190163136Y-83615746D01*
X190155022Y-83630096D01*
X190147627Y-83644808D01*
X190140962Y-83659854D01*
X190135038Y-83675208D01*
X190129867Y-83690841D01*
X190125460Y-83706726D01*
X190121829Y-83722835D01*
X190118985Y-83739140D01*
X190116939Y-83755615D01*
X190115704Y-83772230D01*
X190115289Y-83788958D01*
X190115289Y-85295841D01*
X190115168Y-85301652D01*
X190114809Y-85307413D01*
X190114216Y-85313119D01*
X190113392Y-85318764D01*
X190111072Y-85329847D01*
X190107883Y-85340620D01*
X190103857Y-85351038D01*
X190099029Y-85361057D01*
X190093431Y-85370632D01*
X190087098Y-85379719D01*
X190080064Y-85388275D01*
X190072360Y-85396254D01*
X190064022Y-85403613D01*
X190055082Y-85410307D01*
X190045574Y-85416292D01*
X190035532Y-85421524D01*
X190030321Y-85423844D01*
X190024990Y-85425959D01*
X190019541Y-85427864D01*
X190013979Y-85429552D01*
X188008792Y-85993085D01*
X187974399Y-86001654D01*
X187940089Y-86008052D01*
X187905929Y-86012330D01*
X187871985Y-86014537D01*
X187838323Y-86014724D01*
X187805009Y-86012940D01*
X187772109Y-86009236D01*
X187739689Y-86003662D01*
X187707816Y-85996268D01*
X187676556Y-85987104D01*
X187645974Y-85976220D01*
X187616137Y-85963666D01*
X187587111Y-85949493D01*
X187558962Y-85933750D01*
X187531757Y-85916487D01*
X187505560Y-85897756D01*
X187480439Y-85877604D01*
X187456459Y-85856084D01*
X187433688Y-85833245D01*
X187412189Y-85809136D01*
X187392031Y-85783809D01*
X187373279Y-85757313D01*
X187355999Y-85729698D01*
X187340257Y-85701015D01*
X187326120Y-85671313D01*
X187313653Y-85640642D01*
X187302922Y-85609054D01*
X187293994Y-85576597D01*
X187286936Y-85543322D01*
X187281812Y-85509279D01*
X187278689Y-85474518D01*
X187277633Y-85439089D01*
X187277633Y-79911911D01*
X187278682Y-79876613D01*
X187281783Y-79841976D01*
X187286872Y-79808049D01*
X187293883Y-79774882D01*
X187302751Y-79742524D01*
X187313412Y-79711026D01*
X187325798Y-79680437D01*
X187339846Y-79650808D01*
X187355489Y-79622187D01*
X187372662Y-79594625D01*
X187391301Y-79568171D01*
X187411340Y-79542876D01*
X187432713Y-79518789D01*
X187455355Y-79495959D01*
X187479201Y-79474438D01*
X187504185Y-79454274D01*
X187530242Y-79435517D01*
X187557308Y-79418218D01*
X187585315Y-79402425D01*
X187614200Y-79388190D01*
X187643897Y-79375561D01*
X187674340Y-79364588D01*
X187705464Y-79355321D01*
X187737205Y-79347811D01*
X187769495Y-79342106D01*
X187802271Y-79338257D01*
X187835467Y-79336314D01*
X187869018Y-79336325D01*
D10*
G36*
X187976249Y-82122766D02*
G01*
X187980280Y-82123072D01*
X187984252Y-82123577D01*
X187988161Y-82124275D01*
X187992002Y-82125162D01*
X187995768Y-82126231D01*
X187999456Y-82127479D01*
X188003061Y-82128900D01*
X188006577Y-82130490D01*
X188009999Y-82132243D01*
X188013323Y-82134154D01*
X188016544Y-82136219D01*
X188019656Y-82138432D01*
X188022654Y-82140788D01*
X188025534Y-82143283D01*
X188028291Y-82145911D01*
X188030919Y-82148668D01*
X188033414Y-82151548D01*
X188035770Y-82154546D01*
X188037983Y-82157658D01*
X188040048Y-82160879D01*
X188041959Y-82164203D01*
X188043712Y-82167625D01*
X188045302Y-82171141D01*
X188046723Y-82174746D01*
X188047971Y-82178434D01*
X188049041Y-82182201D01*
X188049927Y-82186041D01*
X188050625Y-82189950D01*
X188051130Y-82193922D01*
X188051436Y-82197953D01*
X188051539Y-82202038D01*
X188051539Y-82440163D01*
X188051436Y-82444247D01*
X188051130Y-82448278D01*
X188050625Y-82452251D01*
X188049927Y-82456159D01*
X188049041Y-82460000D01*
X188047971Y-82463766D01*
X188046723Y-82467454D01*
X188045302Y-82471059D01*
X188043712Y-82474575D01*
X188041959Y-82477997D01*
X188040048Y-82481321D01*
X188037983Y-82484542D01*
X188035770Y-82487654D01*
X188033414Y-82490653D01*
X188030919Y-82493533D01*
X188028291Y-82496289D01*
X188025534Y-82498917D01*
X188022654Y-82501412D01*
X188019656Y-82503769D01*
X188016544Y-82505982D01*
X188013323Y-82508046D01*
X188009999Y-82509958D01*
X188006577Y-82511710D01*
X188003061Y-82513300D01*
X187999456Y-82514721D01*
X187995768Y-82515969D01*
X187992002Y-82517039D01*
X187988161Y-82517925D01*
X187984252Y-82518623D01*
X187980280Y-82519128D01*
X187976249Y-82519434D01*
X187972164Y-82519538D01*
X187932477Y-82519538D01*
X187928392Y-82519434D01*
X187924361Y-82519128D01*
X187920389Y-82518623D01*
X187916480Y-82517925D01*
X187912640Y-82517039D01*
X187908873Y-82515969D01*
X187905185Y-82514721D01*
X187901581Y-82513300D01*
X187898065Y-82511710D01*
X187894642Y-82509958D01*
X187891318Y-82508046D01*
X187888098Y-82505982D01*
X187884986Y-82503769D01*
X187881987Y-82501412D01*
X187879107Y-82498917D01*
X187876350Y-82496289D01*
X187873722Y-82493533D01*
X187871227Y-82490653D01*
X187868871Y-82487654D01*
X187866658Y-82484542D01*
X187864593Y-82481321D01*
X187862682Y-82477997D01*
X187860929Y-82474575D01*
X187859340Y-82471059D01*
X187857918Y-82467454D01*
X187856671Y-82463766D01*
X187855601Y-82460000D01*
X187854715Y-82456159D01*
X187854017Y-82452251D01*
X187853512Y-82448278D01*
X187853205Y-82444247D01*
X187853102Y-82440163D01*
X187853102Y-82202038D01*
X187853205Y-82197953D01*
X187853512Y-82193922D01*
X187854017Y-82189950D01*
X187854715Y-82186041D01*
X187855601Y-82182201D01*
X187856671Y-82178434D01*
X187857918Y-82174746D01*
X187859340Y-82171141D01*
X187860929Y-82167625D01*
X187862682Y-82164203D01*
X187864593Y-82160879D01*
X187866658Y-82157658D01*
X187868871Y-82154546D01*
X187871227Y-82151548D01*
X187873722Y-82148668D01*
X187876350Y-82145911D01*
X187879107Y-82143283D01*
X187881987Y-82140788D01*
X187884986Y-82138432D01*
X187888098Y-82136219D01*
X187891318Y-82134154D01*
X187894642Y-82132243D01*
X187898065Y-82130490D01*
X187901581Y-82128900D01*
X187905185Y-82127479D01*
X187908873Y-82126231D01*
X187912640Y-82125162D01*
X187916480Y-82124275D01*
X187920389Y-82123577D01*
X187924361Y-82123072D01*
X187928392Y-82122766D01*
X187932477Y-82122663D01*
X187972164Y-82122663D01*
X187976249Y-82122766D01*
G37*
G36*
X189325624Y-84662766D02*
G01*
X189329655Y-84663072D01*
X189333627Y-84663577D01*
X189337536Y-84664275D01*
X189341376Y-84665161D01*
X189345143Y-84666231D01*
X189348831Y-84667479D01*
X189352436Y-84668900D01*
X189355952Y-84670490D01*
X189359374Y-84672243D01*
X189362698Y-84674154D01*
X189365919Y-84676219D01*
X189369031Y-84678432D01*
X189372029Y-84680788D01*
X189374909Y-84683283D01*
X189377666Y-84685911D01*
X189380294Y-84688668D01*
X189382789Y-84691548D01*
X189385145Y-84694546D01*
X189387358Y-84697658D01*
X189389423Y-84700879D01*
X189391334Y-84704203D01*
X189393087Y-84707625D01*
X189394677Y-84711141D01*
X189396098Y-84714746D01*
X189397346Y-84718434D01*
X189398415Y-84722201D01*
X189399302Y-84726041D01*
X189400000Y-84729950D01*
X189400505Y-84733922D01*
X189400811Y-84737953D01*
X189400914Y-84742038D01*
X189400914Y-84980163D01*
X189400811Y-84984247D01*
X189400505Y-84988278D01*
X189400000Y-84992251D01*
X189399302Y-84996159D01*
X189398415Y-85000000D01*
X189397346Y-85003766D01*
X189396098Y-85007454D01*
X189394677Y-85011059D01*
X189393087Y-85014575D01*
X189391334Y-85017997D01*
X189389423Y-85021321D01*
X189387358Y-85024542D01*
X189385145Y-85027654D01*
X189382789Y-85030652D01*
X189380294Y-85033533D01*
X189377666Y-85036289D01*
X189374909Y-85038917D01*
X189372029Y-85041412D01*
X189369031Y-85043769D01*
X189365919Y-85045982D01*
X189362698Y-85048046D01*
X189359374Y-85049957D01*
X189355952Y-85051710D01*
X189352436Y-85053300D01*
X189348831Y-85054721D01*
X189345143Y-85055969D01*
X189341376Y-85057039D01*
X189337536Y-85057925D01*
X189333627Y-85058623D01*
X189329655Y-85059128D01*
X189325624Y-85059434D01*
X189321539Y-85059538D01*
X189281852Y-85059538D01*
X189277767Y-85059434D01*
X189273736Y-85059128D01*
X189269764Y-85058623D01*
X189265855Y-85057925D01*
X189262015Y-85057039D01*
X189258248Y-85055969D01*
X189254560Y-85054721D01*
X189250956Y-85053300D01*
X189247440Y-85051710D01*
X189244017Y-85049957D01*
X189240693Y-85048046D01*
X189237473Y-85045982D01*
X189234361Y-85043769D01*
X189231362Y-85041412D01*
X189228482Y-85038917D01*
X189225725Y-85036289D01*
X189223097Y-85033533D01*
X189220602Y-85030652D01*
X189218246Y-85027654D01*
X189216033Y-85024542D01*
X189213968Y-85021321D01*
X189212057Y-85017997D01*
X189210304Y-85014575D01*
X189208715Y-85011059D01*
X189207293Y-85007454D01*
X189206045Y-85003766D01*
X189204976Y-85000000D01*
X189204089Y-84996159D01*
X189203391Y-84992251D01*
X189202887Y-84988278D01*
X189202580Y-84984247D01*
X189202477Y-84980163D01*
X189202477Y-84742038D01*
X189202580Y-84737953D01*
X189202887Y-84733922D01*
X189203391Y-84729950D01*
X189204089Y-84726041D01*
X189204976Y-84722201D01*
X189206045Y-84718434D01*
X189207293Y-84714746D01*
X189208715Y-84711141D01*
X189210304Y-84707625D01*
X189212057Y-84704203D01*
X189213968Y-84700879D01*
X189216033Y-84697658D01*
X189218246Y-84694546D01*
X189220602Y-84691548D01*
X189223097Y-84688668D01*
X189225725Y-84685911D01*
X189228482Y-84683283D01*
X189231362Y-84680788D01*
X189234361Y-84678432D01*
X189237473Y-84676219D01*
X189240693Y-84674154D01*
X189244017Y-84672243D01*
X189247440Y-84670490D01*
X189250956Y-84668900D01*
X189254560Y-84667479D01*
X189258248Y-84666231D01*
X189262015Y-84665161D01*
X189265855Y-84664275D01*
X189269764Y-84663577D01*
X189273736Y-84663072D01*
X189277767Y-84662766D01*
X189281852Y-84662663D01*
X189321539Y-84662663D01*
X189325624Y-84662766D01*
G37*
G36*
X189325624Y-82757766D02*
G01*
X189329655Y-82758072D01*
X189333627Y-82758577D01*
X189337536Y-82759275D01*
X189341376Y-82760162D01*
X189345143Y-82761231D01*
X189348831Y-82762479D01*
X189352436Y-82763900D01*
X189355952Y-82765490D01*
X189359374Y-82767243D01*
X189362698Y-82769154D01*
X189365919Y-82771219D01*
X189369031Y-82773432D01*
X189372029Y-82775788D01*
X189374909Y-82778283D01*
X189377666Y-82780911D01*
X189380294Y-82783668D01*
X189382789Y-82786548D01*
X189385145Y-82789546D01*
X189387358Y-82792658D01*
X189389423Y-82795879D01*
X189391334Y-82799203D01*
X189393087Y-82802625D01*
X189394677Y-82806141D01*
X189396098Y-82809746D01*
X189397346Y-82813434D01*
X189398415Y-82817201D01*
X189399302Y-82821041D01*
X189400000Y-82824950D01*
X189400505Y-82828922D01*
X189400811Y-82832953D01*
X189400914Y-82837038D01*
X189400914Y-83075163D01*
X189400811Y-83079247D01*
X189400505Y-83083278D01*
X189400000Y-83087251D01*
X189399302Y-83091160D01*
X189398415Y-83095000D01*
X189397346Y-83098766D01*
X189396098Y-83102454D01*
X189394677Y-83106059D01*
X189393087Y-83109575D01*
X189391334Y-83112997D01*
X189389423Y-83116321D01*
X189387358Y-83119542D01*
X189385145Y-83122654D01*
X189382789Y-83125653D01*
X189380294Y-83128533D01*
X189377666Y-83131289D01*
X189374909Y-83133918D01*
X189372029Y-83136412D01*
X189369031Y-83138769D01*
X189365919Y-83140982D01*
X189362698Y-83143046D01*
X189359374Y-83144958D01*
X189355952Y-83146711D01*
X189352436Y-83148300D01*
X189348831Y-83149721D01*
X189345143Y-83150969D01*
X189341376Y-83152039D01*
X189337536Y-83152925D01*
X189333627Y-83153623D01*
X189329655Y-83154128D01*
X189325624Y-83154435D01*
X189321539Y-83154538D01*
X189281852Y-83154538D01*
X189277767Y-83154435D01*
X189273736Y-83154128D01*
X189269764Y-83153623D01*
X189265855Y-83152925D01*
X189262015Y-83152039D01*
X189258248Y-83150969D01*
X189254560Y-83149721D01*
X189250956Y-83148300D01*
X189247440Y-83146711D01*
X189244017Y-83144958D01*
X189240693Y-83143046D01*
X189237473Y-83140982D01*
X189234361Y-83138769D01*
X189231362Y-83136412D01*
X189228482Y-83133918D01*
X189225725Y-83131289D01*
X189223097Y-83128533D01*
X189220602Y-83125653D01*
X189218246Y-83122654D01*
X189216033Y-83119542D01*
X189213968Y-83116321D01*
X189212057Y-83112997D01*
X189210304Y-83109575D01*
X189208715Y-83106059D01*
X189207293Y-83102454D01*
X189206045Y-83098766D01*
X189204976Y-83095000D01*
X189204089Y-83091160D01*
X189203391Y-83087251D01*
X189202887Y-83083278D01*
X189202580Y-83079247D01*
X189202477Y-83075163D01*
X189202477Y-82837038D01*
X189202580Y-82832953D01*
X189202887Y-82828922D01*
X189203391Y-82824950D01*
X189204089Y-82821041D01*
X189204976Y-82817201D01*
X189206045Y-82813434D01*
X189207293Y-82809746D01*
X189208715Y-82806141D01*
X189210304Y-82802625D01*
X189212057Y-82799203D01*
X189213968Y-82795879D01*
X189216033Y-82792658D01*
X189218246Y-82789546D01*
X189220602Y-82786548D01*
X189223097Y-82783668D01*
X189225725Y-82780911D01*
X189228482Y-82778283D01*
X189231362Y-82775788D01*
X189234361Y-82773432D01*
X189237473Y-82771219D01*
X189240693Y-82769154D01*
X189244017Y-82767243D01*
X189247440Y-82765490D01*
X189250956Y-82763900D01*
X189254560Y-82762479D01*
X189258248Y-82761231D01*
X189262015Y-82760162D01*
X189265855Y-82759275D01*
X189269764Y-82758577D01*
X189273736Y-82758072D01*
X189277767Y-82757766D01*
X189281852Y-82757663D01*
X189321539Y-82757663D01*
X189325624Y-82757766D01*
G37*
D12*
X179598000Y-75779000D02*
X178328000Y-75779000D01*
X178328000Y-75779000D02*
X178328000Y-77049000D01*
D10*
G36*
X189325624Y-84027766D02*
G01*
X189329655Y-84028072D01*
X189333627Y-84028577D01*
X189337536Y-84029275D01*
X189341376Y-84030162D01*
X189345143Y-84031231D01*
X189348831Y-84032479D01*
X189352436Y-84033900D01*
X189355952Y-84035490D01*
X189359374Y-84037243D01*
X189362698Y-84039154D01*
X189365919Y-84041219D01*
X189369031Y-84043432D01*
X189372029Y-84045788D01*
X189374909Y-84048283D01*
X189377666Y-84050911D01*
X189380294Y-84053668D01*
X189382789Y-84056548D01*
X189385145Y-84059546D01*
X189387358Y-84062658D01*
X189389423Y-84065879D01*
X189391334Y-84069203D01*
X189393087Y-84072625D01*
X189394677Y-84076141D01*
X189396098Y-84079746D01*
X189397346Y-84083434D01*
X189398415Y-84087201D01*
X189399302Y-84091041D01*
X189400000Y-84094950D01*
X189400505Y-84098922D01*
X189400811Y-84102953D01*
X189400914Y-84107038D01*
X189400914Y-84345163D01*
X189400811Y-84349247D01*
X189400505Y-84353278D01*
X189400000Y-84357251D01*
X189399302Y-84361159D01*
X189398415Y-84365000D01*
X189397346Y-84368766D01*
X189396098Y-84372454D01*
X189394677Y-84376059D01*
X189393087Y-84379575D01*
X189391334Y-84382997D01*
X189389423Y-84386321D01*
X189387358Y-84389542D01*
X189385145Y-84392654D01*
X189382789Y-84395652D01*
X189380294Y-84398533D01*
X189377666Y-84401289D01*
X189374909Y-84403917D01*
X189372029Y-84406412D01*
X189369031Y-84408769D01*
X189365919Y-84410982D01*
X189362698Y-84413046D01*
X189359374Y-84414957D01*
X189355952Y-84416710D01*
X189352436Y-84418300D01*
X189348831Y-84419721D01*
X189345143Y-84420969D01*
X189341376Y-84422039D01*
X189337536Y-84422925D01*
X189333627Y-84423623D01*
X189329655Y-84424128D01*
X189325624Y-84424434D01*
X189321539Y-84424538D01*
X189281852Y-84424538D01*
X189277767Y-84424434D01*
X189273736Y-84424128D01*
X189269764Y-84423623D01*
X189265855Y-84422925D01*
X189262015Y-84422039D01*
X189258248Y-84420969D01*
X189254560Y-84419721D01*
X189250956Y-84418300D01*
X189247440Y-84416710D01*
X189244017Y-84414957D01*
X189240693Y-84413046D01*
X189237473Y-84410982D01*
X189234361Y-84408769D01*
X189231362Y-84406412D01*
X189228482Y-84403917D01*
X189225725Y-84401289D01*
X189223097Y-84398533D01*
X189220602Y-84395652D01*
X189218246Y-84392654D01*
X189216033Y-84389542D01*
X189213968Y-84386321D01*
X189212057Y-84382997D01*
X189210304Y-84379575D01*
X189208715Y-84376059D01*
X189207293Y-84372454D01*
X189206045Y-84368766D01*
X189204976Y-84365000D01*
X189204089Y-84361159D01*
X189203391Y-84357251D01*
X189202887Y-84353278D01*
X189202580Y-84349247D01*
X189202477Y-84345163D01*
X189202477Y-84107038D01*
X189202580Y-84102953D01*
X189202887Y-84098922D01*
X189203391Y-84094950D01*
X189204089Y-84091041D01*
X189204976Y-84087201D01*
X189206045Y-84083434D01*
X189207293Y-84079746D01*
X189208715Y-84076141D01*
X189210304Y-84072625D01*
X189212057Y-84069203D01*
X189213968Y-84065879D01*
X189216033Y-84062658D01*
X189218246Y-84059546D01*
X189220602Y-84056548D01*
X189223097Y-84053668D01*
X189225725Y-84050911D01*
X189228482Y-84048283D01*
X189231362Y-84045788D01*
X189234361Y-84043432D01*
X189237473Y-84041219D01*
X189240693Y-84039154D01*
X189244017Y-84037243D01*
X189247440Y-84035490D01*
X189250956Y-84033900D01*
X189254560Y-84032479D01*
X189258248Y-84031231D01*
X189262015Y-84030162D01*
X189265855Y-84029275D01*
X189269764Y-84028577D01*
X189273736Y-84028072D01*
X189277767Y-84027766D01*
X189281852Y-84027663D01*
X189321539Y-84027663D01*
X189325624Y-84027766D01*
G37*
G36*
X187976249Y-81487766D02*
G01*
X187980280Y-81488072D01*
X187984252Y-81488577D01*
X187988161Y-81489275D01*
X187992002Y-81490162D01*
X187995768Y-81491231D01*
X187999456Y-81492479D01*
X188003061Y-81493900D01*
X188006577Y-81495490D01*
X188009999Y-81497243D01*
X188013323Y-81499154D01*
X188016544Y-81501219D01*
X188019656Y-81503432D01*
X188022654Y-81505788D01*
X188025534Y-81508283D01*
X188028291Y-81510911D01*
X188030919Y-81513668D01*
X188033414Y-81516548D01*
X188035770Y-81519546D01*
X188037983Y-81522658D01*
X188040048Y-81525879D01*
X188041959Y-81529203D01*
X188043712Y-81532625D01*
X188045302Y-81536141D01*
X188046723Y-81539746D01*
X188047971Y-81543434D01*
X188049041Y-81547201D01*
X188049927Y-81551041D01*
X188050625Y-81554950D01*
X188051130Y-81558922D01*
X188051436Y-81562953D01*
X188051539Y-81567038D01*
X188051539Y-81805163D01*
X188051436Y-81809247D01*
X188051130Y-81813278D01*
X188050625Y-81817251D01*
X188049927Y-81821160D01*
X188049041Y-81825000D01*
X188047971Y-81828766D01*
X188046723Y-81832454D01*
X188045302Y-81836059D01*
X188043712Y-81839575D01*
X188041959Y-81842998D01*
X188040048Y-81846322D01*
X188037983Y-81849542D01*
X188035770Y-81852654D01*
X188033414Y-81855653D01*
X188030919Y-81858533D01*
X188028291Y-81861289D01*
X188025534Y-81863918D01*
X188022654Y-81866412D01*
X188019656Y-81868769D01*
X188016544Y-81870982D01*
X188013323Y-81873046D01*
X188009999Y-81874958D01*
X188006577Y-81876710D01*
X188003061Y-81878300D01*
X187999456Y-81879721D01*
X187995768Y-81880969D01*
X187992002Y-81882039D01*
X187988161Y-81882925D01*
X187984252Y-81883623D01*
X187980280Y-81884128D01*
X187976249Y-81884434D01*
X187972164Y-81884538D01*
X187932477Y-81884538D01*
X187928392Y-81884434D01*
X187924361Y-81884128D01*
X187920389Y-81883623D01*
X187916480Y-81882925D01*
X187912640Y-81882039D01*
X187908873Y-81880969D01*
X187905185Y-81879721D01*
X187901581Y-81878300D01*
X187898065Y-81876710D01*
X187894642Y-81874958D01*
X187891318Y-81873046D01*
X187888098Y-81870982D01*
X187884986Y-81868769D01*
X187881987Y-81866412D01*
X187879107Y-81863918D01*
X187876350Y-81861289D01*
X187873722Y-81858533D01*
X187871227Y-81855653D01*
X187868871Y-81852654D01*
X187866658Y-81849542D01*
X187864593Y-81846322D01*
X187862682Y-81842998D01*
X187860929Y-81839575D01*
X187859340Y-81836059D01*
X187857918Y-81832454D01*
X187856671Y-81828766D01*
X187855601Y-81825000D01*
X187854715Y-81821160D01*
X187854017Y-81817251D01*
X187853512Y-81813278D01*
X187853205Y-81809247D01*
X187853102Y-81805163D01*
X187853102Y-81567038D01*
X187853205Y-81562953D01*
X187853512Y-81558922D01*
X187854017Y-81554950D01*
X187854715Y-81551041D01*
X187855601Y-81547201D01*
X187856671Y-81543434D01*
X187857918Y-81539746D01*
X187859340Y-81536141D01*
X187860929Y-81532625D01*
X187862682Y-81529203D01*
X187864593Y-81525879D01*
X187866658Y-81522658D01*
X187868871Y-81519546D01*
X187871227Y-81516548D01*
X187873722Y-81513668D01*
X187876350Y-81510911D01*
X187879107Y-81508283D01*
X187881987Y-81505788D01*
X187884986Y-81503432D01*
X187888098Y-81501219D01*
X187891318Y-81499154D01*
X187894642Y-81497243D01*
X187898065Y-81495490D01*
X187901581Y-81493900D01*
X187905185Y-81492479D01*
X187908873Y-81491231D01*
X187912640Y-81490162D01*
X187916480Y-81489275D01*
X187920389Y-81488577D01*
X187924361Y-81488072D01*
X187928392Y-81487766D01*
X187932477Y-81487663D01*
X187972164Y-81487663D01*
X187976249Y-81487766D01*
G37*
G36*
X189325624Y-82122766D02*
G01*
X189329655Y-82123072D01*
X189333627Y-82123577D01*
X189337536Y-82124275D01*
X189341376Y-82125162D01*
X189345143Y-82126231D01*
X189348831Y-82127479D01*
X189352436Y-82128900D01*
X189355952Y-82130490D01*
X189359374Y-82132243D01*
X189362698Y-82134154D01*
X189365919Y-82136219D01*
X189369031Y-82138432D01*
X189372029Y-82140788D01*
X189374909Y-82143283D01*
X189377666Y-82145911D01*
X189380294Y-82148668D01*
X189382789Y-82151548D01*
X189385145Y-82154546D01*
X189387358Y-82157658D01*
X189389423Y-82160879D01*
X189391334Y-82164203D01*
X189393087Y-82167625D01*
X189394677Y-82171141D01*
X189396098Y-82174746D01*
X189397346Y-82178434D01*
X189398415Y-82182201D01*
X189399302Y-82186041D01*
X189400000Y-82189950D01*
X189400505Y-82193922D01*
X189400811Y-82197953D01*
X189400914Y-82202038D01*
X189400914Y-82440163D01*
X189400811Y-82444247D01*
X189400505Y-82448278D01*
X189400000Y-82452251D01*
X189399302Y-82456159D01*
X189398415Y-82460000D01*
X189397346Y-82463766D01*
X189396098Y-82467454D01*
X189394677Y-82471059D01*
X189393087Y-82474575D01*
X189391334Y-82477997D01*
X189389423Y-82481321D01*
X189387358Y-82484542D01*
X189385145Y-82487654D01*
X189382789Y-82490653D01*
X189380294Y-82493533D01*
X189377666Y-82496289D01*
X189374909Y-82498917D01*
X189372029Y-82501412D01*
X189369031Y-82503769D01*
X189365919Y-82505982D01*
X189362698Y-82508046D01*
X189359374Y-82509958D01*
X189355952Y-82511710D01*
X189352436Y-82513300D01*
X189348831Y-82514721D01*
X189345143Y-82515969D01*
X189341376Y-82517039D01*
X189337536Y-82517925D01*
X189333627Y-82518623D01*
X189329655Y-82519128D01*
X189325624Y-82519434D01*
X189321539Y-82519538D01*
X189281852Y-82519538D01*
X189277767Y-82519434D01*
X189273736Y-82519128D01*
X189269764Y-82518623D01*
X189265855Y-82517925D01*
X189262015Y-82517039D01*
X189258248Y-82515969D01*
X189254560Y-82514721D01*
X189250956Y-82513300D01*
X189247440Y-82511710D01*
X189244017Y-82509958D01*
X189240693Y-82508046D01*
X189237473Y-82505982D01*
X189234361Y-82503769D01*
X189231362Y-82501412D01*
X189228482Y-82498917D01*
X189225725Y-82496289D01*
X189223097Y-82493533D01*
X189220602Y-82490653D01*
X189218246Y-82487654D01*
X189216033Y-82484542D01*
X189213968Y-82481321D01*
X189212057Y-82477997D01*
X189210304Y-82474575D01*
X189208715Y-82471059D01*
X189207293Y-82467454D01*
X189206045Y-82463766D01*
X189204976Y-82460000D01*
X189204089Y-82456159D01*
X189203391Y-82452251D01*
X189202887Y-82448278D01*
X189202580Y-82444247D01*
X189202477Y-82440163D01*
X189202477Y-82202038D01*
X189202580Y-82197953D01*
X189202887Y-82193922D01*
X189203391Y-82189950D01*
X189204089Y-82186041D01*
X189204976Y-82182201D01*
X189206045Y-82178434D01*
X189207293Y-82174746D01*
X189208715Y-82171141D01*
X189210304Y-82167625D01*
X189212057Y-82164203D01*
X189213968Y-82160879D01*
X189216033Y-82157658D01*
X189218246Y-82154546D01*
X189220602Y-82151548D01*
X189223097Y-82148668D01*
X189225725Y-82145911D01*
X189228482Y-82143283D01*
X189231362Y-82140788D01*
X189234361Y-82138432D01*
X189237473Y-82136219D01*
X189240693Y-82134154D01*
X189244017Y-82132243D01*
X189247440Y-82130490D01*
X189250956Y-82128900D01*
X189254560Y-82127479D01*
X189258248Y-82126231D01*
X189262015Y-82125162D01*
X189265855Y-82124275D01*
X189269764Y-82123577D01*
X189273736Y-82123072D01*
X189277767Y-82122766D01*
X189281852Y-82122663D01*
X189321539Y-82122663D01*
X189325624Y-82122766D01*
G37*
G36*
X187976249Y-83392766D02*
G01*
X187980280Y-83393073D01*
X187984252Y-83393577D01*
X187988161Y-83394275D01*
X187992002Y-83395162D01*
X187995768Y-83396231D01*
X187999456Y-83397479D01*
X188003061Y-83398900D01*
X188006577Y-83400490D01*
X188009999Y-83402243D01*
X188013323Y-83404154D01*
X188016544Y-83406219D01*
X188019656Y-83408432D01*
X188022654Y-83410788D01*
X188025534Y-83413283D01*
X188028291Y-83415911D01*
X188030919Y-83418668D01*
X188033414Y-83421548D01*
X188035770Y-83424546D01*
X188037983Y-83427658D01*
X188040048Y-83430879D01*
X188041959Y-83434203D01*
X188043712Y-83437625D01*
X188045302Y-83441141D01*
X188046723Y-83444746D01*
X188047971Y-83448434D01*
X188049041Y-83452201D01*
X188049927Y-83456041D01*
X188050625Y-83459950D01*
X188051130Y-83463922D01*
X188051436Y-83467953D01*
X188051539Y-83472038D01*
X188051539Y-83710163D01*
X188051436Y-83714247D01*
X188051130Y-83718278D01*
X188050625Y-83722251D01*
X188049927Y-83726160D01*
X188049041Y-83730000D01*
X188047971Y-83733766D01*
X188046723Y-83737454D01*
X188045302Y-83741059D01*
X188043712Y-83744575D01*
X188041959Y-83747998D01*
X188040048Y-83751321D01*
X188037983Y-83754542D01*
X188035770Y-83757654D01*
X188033414Y-83760653D01*
X188030919Y-83763533D01*
X188028291Y-83766289D01*
X188025534Y-83768917D01*
X188022654Y-83771412D01*
X188019656Y-83773769D01*
X188016544Y-83775982D01*
X188013323Y-83778046D01*
X188009999Y-83779958D01*
X188006577Y-83781710D01*
X188003061Y-83783300D01*
X187999456Y-83784721D01*
X187995768Y-83785969D01*
X187992002Y-83787039D01*
X187988161Y-83787925D01*
X187984252Y-83788623D01*
X187980280Y-83789128D01*
X187976249Y-83789434D01*
X187972164Y-83789538D01*
X187932477Y-83789538D01*
X187928392Y-83789434D01*
X187924361Y-83789128D01*
X187920389Y-83788623D01*
X187916480Y-83787925D01*
X187912640Y-83787039D01*
X187908873Y-83785969D01*
X187905185Y-83784721D01*
X187901581Y-83783300D01*
X187898065Y-83781710D01*
X187894642Y-83779958D01*
X187891318Y-83778046D01*
X187888098Y-83775982D01*
X187884986Y-83773769D01*
X187881987Y-83771412D01*
X187879107Y-83768917D01*
X187876350Y-83766289D01*
X187873722Y-83763533D01*
X187871227Y-83760653D01*
X187868871Y-83757654D01*
X187866658Y-83754542D01*
X187864593Y-83751321D01*
X187862682Y-83747998D01*
X187860929Y-83744575D01*
X187859340Y-83741059D01*
X187857918Y-83737454D01*
X187856671Y-83733766D01*
X187855601Y-83730000D01*
X187854715Y-83726160D01*
X187854017Y-83722251D01*
X187853512Y-83718278D01*
X187853205Y-83714247D01*
X187853102Y-83710163D01*
X187853102Y-83472038D01*
X187853205Y-83467953D01*
X187853512Y-83463922D01*
X187854017Y-83459950D01*
X187854715Y-83456041D01*
X187855601Y-83452201D01*
X187856671Y-83448434D01*
X187857918Y-83444746D01*
X187859340Y-83441141D01*
X187860929Y-83437625D01*
X187862682Y-83434203D01*
X187864593Y-83430879D01*
X187866658Y-83427658D01*
X187868871Y-83424546D01*
X187871227Y-83421548D01*
X187873722Y-83418668D01*
X187876350Y-83415911D01*
X187879107Y-83413283D01*
X187881987Y-83410788D01*
X187884986Y-83408432D01*
X187888098Y-83406219D01*
X187891318Y-83404154D01*
X187894642Y-83402243D01*
X187898065Y-83400490D01*
X187901581Y-83398900D01*
X187905185Y-83397479D01*
X187908873Y-83396231D01*
X187912640Y-83395162D01*
X187916480Y-83394275D01*
X187920389Y-83393577D01*
X187924361Y-83393073D01*
X187928392Y-83392766D01*
X187932477Y-83392663D01*
X187972164Y-83392663D01*
X187976249Y-83392766D01*
G37*
G36*
X189325624Y-80217766D02*
G01*
X189329655Y-80218072D01*
X189333627Y-80218577D01*
X189337536Y-80219275D01*
X189341376Y-80220162D01*
X189345143Y-80221231D01*
X189348831Y-80222479D01*
X189352436Y-80223900D01*
X189355952Y-80225490D01*
X189359374Y-80227243D01*
X189362698Y-80229154D01*
X189365919Y-80231219D01*
X189369031Y-80233432D01*
X189372029Y-80235788D01*
X189374909Y-80238283D01*
X189377666Y-80240911D01*
X189380294Y-80243668D01*
X189382789Y-80246548D01*
X189385145Y-80249546D01*
X189387358Y-80252658D01*
X189389423Y-80255879D01*
X189391334Y-80259203D01*
X189393087Y-80262625D01*
X189394677Y-80266141D01*
X189396098Y-80269746D01*
X189397346Y-80273434D01*
X189398415Y-80277201D01*
X189399302Y-80281041D01*
X189400000Y-80284950D01*
X189400505Y-80288922D01*
X189400811Y-80292953D01*
X189400914Y-80297038D01*
X189400914Y-80535163D01*
X189400811Y-80539247D01*
X189400505Y-80543278D01*
X189400000Y-80547251D01*
X189399302Y-80551160D01*
X189398415Y-80555000D01*
X189397346Y-80558767D01*
X189396098Y-80562455D01*
X189394677Y-80566059D01*
X189393087Y-80569575D01*
X189391334Y-80572998D01*
X189389423Y-80576322D01*
X189387358Y-80579542D01*
X189385145Y-80582654D01*
X189382789Y-80585653D01*
X189380294Y-80588533D01*
X189377666Y-80591290D01*
X189374909Y-80593918D01*
X189372029Y-80596413D01*
X189369031Y-80598769D01*
X189365919Y-80600982D01*
X189362698Y-80603047D01*
X189359374Y-80604958D01*
X189355952Y-80606711D01*
X189352436Y-80608300D01*
X189348831Y-80609721D01*
X189345143Y-80610969D01*
X189341376Y-80612039D01*
X189337536Y-80612925D01*
X189333627Y-80613623D01*
X189329655Y-80614128D01*
X189325624Y-80614435D01*
X189321539Y-80614538D01*
X189281852Y-80614538D01*
X189277767Y-80614435D01*
X189273736Y-80614128D01*
X189269764Y-80613623D01*
X189265855Y-80612925D01*
X189262015Y-80612039D01*
X189258248Y-80610969D01*
X189254560Y-80609721D01*
X189250956Y-80608300D01*
X189247440Y-80606711D01*
X189244017Y-80604958D01*
X189240693Y-80603047D01*
X189237473Y-80600982D01*
X189234361Y-80598769D01*
X189231362Y-80596413D01*
X189228482Y-80593918D01*
X189225725Y-80591290D01*
X189223097Y-80588533D01*
X189220602Y-80585653D01*
X189218246Y-80582654D01*
X189216033Y-80579542D01*
X189213968Y-80576322D01*
X189212057Y-80572998D01*
X189210304Y-80569575D01*
X189208715Y-80566059D01*
X189207293Y-80562455D01*
X189206045Y-80558767D01*
X189204976Y-80555000D01*
X189204089Y-80551160D01*
X189203391Y-80547251D01*
X189202887Y-80543278D01*
X189202580Y-80539247D01*
X189202477Y-80535163D01*
X189202477Y-80297038D01*
X189202580Y-80292953D01*
X189202887Y-80288922D01*
X189203391Y-80284950D01*
X189204089Y-80281041D01*
X189204976Y-80277201D01*
X189206045Y-80273434D01*
X189207293Y-80269746D01*
X189208715Y-80266141D01*
X189210304Y-80262625D01*
X189212057Y-80259203D01*
X189213968Y-80255879D01*
X189216033Y-80252658D01*
X189218246Y-80249546D01*
X189220602Y-80246548D01*
X189223097Y-80243668D01*
X189225725Y-80240911D01*
X189228482Y-80238283D01*
X189231362Y-80235788D01*
X189234361Y-80233432D01*
X189237473Y-80231219D01*
X189240693Y-80229154D01*
X189244017Y-80227243D01*
X189247440Y-80225490D01*
X189250956Y-80223900D01*
X189254560Y-80222479D01*
X189258248Y-80221231D01*
X189262015Y-80220162D01*
X189265855Y-80219275D01*
X189269764Y-80218577D01*
X189273736Y-80218072D01*
X189277767Y-80217766D01*
X189281852Y-80217663D01*
X189321539Y-80217663D01*
X189325624Y-80217766D01*
G37*
G36*
X187976249Y-84027766D02*
G01*
X187980280Y-84028072D01*
X187984252Y-84028577D01*
X187988161Y-84029275D01*
X187992002Y-84030162D01*
X187995768Y-84031231D01*
X187999456Y-84032479D01*
X188003061Y-84033900D01*
X188006577Y-84035490D01*
X188009999Y-84037243D01*
X188013323Y-84039154D01*
X188016544Y-84041219D01*
X188019656Y-84043432D01*
X188022654Y-84045788D01*
X188025534Y-84048283D01*
X188028291Y-84050911D01*
X188030919Y-84053668D01*
X188033414Y-84056548D01*
X188035770Y-84059546D01*
X188037983Y-84062658D01*
X188040048Y-84065879D01*
X188041959Y-84069203D01*
X188043712Y-84072625D01*
X188045302Y-84076141D01*
X188046723Y-84079746D01*
X188047971Y-84083434D01*
X188049041Y-84087201D01*
X188049927Y-84091041D01*
X188050625Y-84094950D01*
X188051130Y-84098922D01*
X188051436Y-84102953D01*
X188051539Y-84107038D01*
X188051539Y-84345163D01*
X188051436Y-84349247D01*
X188051130Y-84353278D01*
X188050625Y-84357251D01*
X188049927Y-84361159D01*
X188049041Y-84365000D01*
X188047971Y-84368766D01*
X188046723Y-84372454D01*
X188045302Y-84376059D01*
X188043712Y-84379575D01*
X188041959Y-84382997D01*
X188040048Y-84386321D01*
X188037983Y-84389542D01*
X188035770Y-84392654D01*
X188033414Y-84395652D01*
X188030919Y-84398533D01*
X188028291Y-84401289D01*
X188025534Y-84403917D01*
X188022654Y-84406412D01*
X188019656Y-84408769D01*
X188016544Y-84410982D01*
X188013323Y-84413046D01*
X188009999Y-84414957D01*
X188006577Y-84416710D01*
X188003061Y-84418300D01*
X187999456Y-84419721D01*
X187995768Y-84420969D01*
X187992002Y-84422039D01*
X187988161Y-84422925D01*
X187984252Y-84423623D01*
X187980280Y-84424128D01*
X187976249Y-84424434D01*
X187972164Y-84424538D01*
X187932477Y-84424538D01*
X187928392Y-84424434D01*
X187924361Y-84424128D01*
X187920389Y-84423623D01*
X187916480Y-84422925D01*
X187912640Y-84422039D01*
X187908873Y-84420969D01*
X187905185Y-84419721D01*
X187901581Y-84418300D01*
X187898065Y-84416710D01*
X187894642Y-84414957D01*
X187891318Y-84413046D01*
X187888098Y-84410982D01*
X187884986Y-84408769D01*
X187881987Y-84406412D01*
X187879107Y-84403917D01*
X187876350Y-84401289D01*
X187873722Y-84398533D01*
X187871227Y-84395652D01*
X187868871Y-84392654D01*
X187866658Y-84389542D01*
X187864593Y-84386321D01*
X187862682Y-84382997D01*
X187860929Y-84379575D01*
X187859340Y-84376059D01*
X187857918Y-84372454D01*
X187856671Y-84368766D01*
X187855601Y-84365000D01*
X187854715Y-84361159D01*
X187854017Y-84357251D01*
X187853512Y-84353278D01*
X187853205Y-84349247D01*
X187853102Y-84345163D01*
X187853102Y-84107038D01*
X187853205Y-84102953D01*
X187853512Y-84098922D01*
X187854017Y-84094950D01*
X187854715Y-84091041D01*
X187855601Y-84087201D01*
X187856671Y-84083434D01*
X187857918Y-84079746D01*
X187859340Y-84076141D01*
X187860929Y-84072625D01*
X187862682Y-84069203D01*
X187864593Y-84065879D01*
X187866658Y-84062658D01*
X187868871Y-84059546D01*
X187871227Y-84056548D01*
X187873722Y-84053668D01*
X187876350Y-84050911D01*
X187879107Y-84048283D01*
X187881987Y-84045788D01*
X187884986Y-84043432D01*
X187888098Y-84041219D01*
X187891318Y-84039154D01*
X187894642Y-84037243D01*
X187898065Y-84035490D01*
X187901581Y-84033900D01*
X187905185Y-84032479D01*
X187908873Y-84031231D01*
X187912640Y-84030162D01*
X187916480Y-84029275D01*
X187920389Y-84028577D01*
X187924361Y-84028072D01*
X187928392Y-84027766D01*
X187932477Y-84027663D01*
X187972164Y-84027663D01*
X187976249Y-84027766D01*
G37*
G36*
X187976249Y-82757766D02*
G01*
X187980280Y-82758072D01*
X187984252Y-82758577D01*
X187988161Y-82759275D01*
X187992002Y-82760162D01*
X187995768Y-82761231D01*
X187999456Y-82762479D01*
X188003061Y-82763900D01*
X188006577Y-82765490D01*
X188009999Y-82767243D01*
X188013323Y-82769154D01*
X188016544Y-82771219D01*
X188019656Y-82773432D01*
X188022654Y-82775788D01*
X188025534Y-82778283D01*
X188028291Y-82780911D01*
X188030919Y-82783668D01*
X188033414Y-82786548D01*
X188035770Y-82789546D01*
X188037983Y-82792658D01*
X188040048Y-82795879D01*
X188041959Y-82799203D01*
X188043712Y-82802625D01*
X188045302Y-82806141D01*
X188046723Y-82809746D01*
X188047971Y-82813434D01*
X188049041Y-82817201D01*
X188049927Y-82821041D01*
X188050625Y-82824950D01*
X188051130Y-82828922D01*
X188051436Y-82832953D01*
X188051539Y-82837038D01*
X188051539Y-83075163D01*
X188051436Y-83079247D01*
X188051130Y-83083278D01*
X188050625Y-83087251D01*
X188049927Y-83091160D01*
X188049041Y-83095000D01*
X188047971Y-83098766D01*
X188046723Y-83102454D01*
X188045302Y-83106059D01*
X188043712Y-83109575D01*
X188041959Y-83112997D01*
X188040048Y-83116321D01*
X188037983Y-83119542D01*
X188035770Y-83122654D01*
X188033414Y-83125653D01*
X188030919Y-83128533D01*
X188028291Y-83131289D01*
X188025534Y-83133918D01*
X188022654Y-83136412D01*
X188019656Y-83138769D01*
X188016544Y-83140982D01*
X188013323Y-83143046D01*
X188009999Y-83144958D01*
X188006577Y-83146711D01*
X188003061Y-83148300D01*
X187999456Y-83149721D01*
X187995768Y-83150969D01*
X187992002Y-83152039D01*
X187988161Y-83152925D01*
X187984252Y-83153623D01*
X187980280Y-83154128D01*
X187976249Y-83154435D01*
X187972164Y-83154538D01*
X187932477Y-83154538D01*
X187928392Y-83154435D01*
X187924361Y-83154128D01*
X187920389Y-83153623D01*
X187916480Y-83152925D01*
X187912640Y-83152039D01*
X187908873Y-83150969D01*
X187905185Y-83149721D01*
X187901581Y-83148300D01*
X187898065Y-83146711D01*
X187894642Y-83144958D01*
X187891318Y-83143046D01*
X187888098Y-83140982D01*
X187884986Y-83138769D01*
X187881987Y-83136412D01*
X187879107Y-83133918D01*
X187876350Y-83131289D01*
X187873722Y-83128533D01*
X187871227Y-83125653D01*
X187868871Y-83122654D01*
X187866658Y-83119542D01*
X187864593Y-83116321D01*
X187862682Y-83112997D01*
X187860929Y-83109575D01*
X187859340Y-83106059D01*
X187857918Y-83102454D01*
X187856671Y-83098766D01*
X187855601Y-83095000D01*
X187854715Y-83091160D01*
X187854017Y-83087251D01*
X187853512Y-83083278D01*
X187853205Y-83079247D01*
X187853102Y-83075163D01*
X187853102Y-82837038D01*
X187853205Y-82832953D01*
X187853512Y-82828922D01*
X187854017Y-82824950D01*
X187854715Y-82821041D01*
X187855601Y-82817201D01*
X187856671Y-82813434D01*
X187857918Y-82809746D01*
X187859340Y-82806141D01*
X187860929Y-82802625D01*
X187862682Y-82799203D01*
X187864593Y-82795879D01*
X187866658Y-82792658D01*
X187868871Y-82789546D01*
X187871227Y-82786548D01*
X187873722Y-82783668D01*
X187876350Y-82780911D01*
X187879107Y-82778283D01*
X187881987Y-82775788D01*
X187884986Y-82773432D01*
X187888098Y-82771219D01*
X187891318Y-82769154D01*
X187894642Y-82767243D01*
X187898065Y-82765490D01*
X187901581Y-82763900D01*
X187905185Y-82762479D01*
X187908873Y-82761231D01*
X187912640Y-82760162D01*
X187916480Y-82759275D01*
X187920389Y-82758577D01*
X187924361Y-82758072D01*
X187928392Y-82757766D01*
X187932477Y-82757663D01*
X187972164Y-82757663D01*
X187976249Y-82757766D01*
G37*
D12*
X178328000Y-78573000D02*
X178328000Y-91019000D01*
X178328000Y-91019000D02*
X180868000Y-91019000D01*
D10*
G36*
X189325624Y-84662766D02*
G01*
X189329655Y-84663072D01*
X189333627Y-84663577D01*
X189337536Y-84664275D01*
X189341376Y-84665161D01*
X189345143Y-84666231D01*
X189348831Y-84667479D01*
X189352436Y-84668900D01*
X189355952Y-84670490D01*
X189359374Y-84672243D01*
X189362698Y-84674154D01*
X189365919Y-84676219D01*
X189369031Y-84678432D01*
X189372029Y-84680788D01*
X189374909Y-84683283D01*
X189377666Y-84685911D01*
X189380294Y-84688668D01*
X189382789Y-84691548D01*
X189385145Y-84694546D01*
X189387358Y-84697658D01*
X189389423Y-84700879D01*
X189391334Y-84704203D01*
X189393087Y-84707625D01*
X189394677Y-84711141D01*
X189396098Y-84714746D01*
X189397346Y-84718434D01*
X189398415Y-84722201D01*
X189399302Y-84726041D01*
X189400000Y-84729950D01*
X189400505Y-84733922D01*
X189400811Y-84737953D01*
X189400914Y-84742038D01*
X189400914Y-84980163D01*
X189400811Y-84984247D01*
X189400505Y-84988278D01*
X189400000Y-84992251D01*
X189399302Y-84996159D01*
X189398415Y-85000000D01*
X189397346Y-85003766D01*
X189396098Y-85007454D01*
X189394677Y-85011059D01*
X189393087Y-85014575D01*
X189391334Y-85017997D01*
X189389423Y-85021321D01*
X189387358Y-85024542D01*
X189385145Y-85027654D01*
X189382789Y-85030652D01*
X189380294Y-85033533D01*
X189377666Y-85036289D01*
X189374909Y-85038917D01*
X189372029Y-85041412D01*
X189369031Y-85043769D01*
X189365919Y-85045982D01*
X189362698Y-85048046D01*
X189359374Y-85049957D01*
X189355952Y-85051710D01*
X189352436Y-85053300D01*
X189348831Y-85054721D01*
X189345143Y-85055969D01*
X189341376Y-85057039D01*
X189337536Y-85057925D01*
X189333627Y-85058623D01*
X189329655Y-85059128D01*
X189325624Y-85059434D01*
X189321539Y-85059538D01*
X189281852Y-85059538D01*
X189277767Y-85059434D01*
X189273736Y-85059128D01*
X189269764Y-85058623D01*
X189265855Y-85057925D01*
X189262015Y-85057039D01*
X189258248Y-85055969D01*
X189254560Y-85054721D01*
X189250956Y-85053300D01*
X189247440Y-85051710D01*
X189244017Y-85049957D01*
X189240693Y-85048046D01*
X189237473Y-85045982D01*
X189234361Y-85043769D01*
X189231362Y-85041412D01*
X189228482Y-85038917D01*
X189225725Y-85036289D01*
X189223097Y-85033533D01*
X189220602Y-85030652D01*
X189218246Y-85027654D01*
X189216033Y-85024542D01*
X189213968Y-85021321D01*
X189212057Y-85017997D01*
X189210304Y-85014575D01*
X189208715Y-85011059D01*
X189207293Y-85007454D01*
X189206045Y-85003766D01*
X189204976Y-85000000D01*
X189204089Y-84996159D01*
X189203391Y-84992251D01*
X189202887Y-84988278D01*
X189202580Y-84984247D01*
X189202477Y-84980163D01*
X189202477Y-84742038D01*
X189202580Y-84737953D01*
X189202887Y-84733922D01*
X189203391Y-84729950D01*
X189204089Y-84726041D01*
X189204976Y-84722201D01*
X189206045Y-84718434D01*
X189207293Y-84714746D01*
X189208715Y-84711141D01*
X189210304Y-84707625D01*
X189212057Y-84704203D01*
X189213968Y-84700879D01*
X189216033Y-84697658D01*
X189218246Y-84694546D01*
X189220602Y-84691548D01*
X189223097Y-84688668D01*
X189225725Y-84685911D01*
X189228482Y-84683283D01*
X189231362Y-84680788D01*
X189234361Y-84678432D01*
X189237473Y-84676219D01*
X189240693Y-84674154D01*
X189244017Y-84672243D01*
X189247440Y-84670490D01*
X189250956Y-84668900D01*
X189254560Y-84667479D01*
X189258248Y-84666231D01*
X189262015Y-84665161D01*
X189265855Y-84664275D01*
X189269764Y-84663577D01*
X189273736Y-84663072D01*
X189277767Y-84662766D01*
X189281852Y-84662663D01*
X189321539Y-84662663D01*
X189325624Y-84662766D01*
G37*
G36*
X187976249Y-80217766D02*
G01*
X187980280Y-80218072D01*
X187984252Y-80218577D01*
X187988161Y-80219275D01*
X187992002Y-80220162D01*
X187995768Y-80221231D01*
X187999456Y-80222479D01*
X188003061Y-80223900D01*
X188006577Y-80225490D01*
X188009999Y-80227243D01*
X188013323Y-80229154D01*
X188016544Y-80231219D01*
X188019656Y-80233432D01*
X188022654Y-80235788D01*
X188025534Y-80238283D01*
X188028291Y-80240911D01*
X188030919Y-80243668D01*
X188033414Y-80246548D01*
X188035770Y-80249546D01*
X188037983Y-80252658D01*
X188040048Y-80255879D01*
X188041959Y-80259203D01*
X188043712Y-80262625D01*
X188045302Y-80266141D01*
X188046723Y-80269746D01*
X188047971Y-80273434D01*
X188049041Y-80277201D01*
X188049927Y-80281041D01*
X188050625Y-80284950D01*
X188051130Y-80288922D01*
X188051436Y-80292953D01*
X188051539Y-80297038D01*
X188051539Y-80535163D01*
X188051436Y-80539247D01*
X188051130Y-80543278D01*
X188050625Y-80547251D01*
X188049927Y-80551160D01*
X188049041Y-80555000D01*
X188047971Y-80558767D01*
X188046723Y-80562455D01*
X188045302Y-80566059D01*
X188043712Y-80569575D01*
X188041959Y-80572998D01*
X188040048Y-80576322D01*
X188037983Y-80579542D01*
X188035770Y-80582654D01*
X188033414Y-80585653D01*
X188030919Y-80588533D01*
X188028291Y-80591290D01*
X188025534Y-80593918D01*
X188022654Y-80596413D01*
X188019656Y-80598769D01*
X188016544Y-80600982D01*
X188013323Y-80603047D01*
X188009999Y-80604958D01*
X188006577Y-80606711D01*
X188003061Y-80608300D01*
X187999456Y-80609721D01*
X187995768Y-80610969D01*
X187992002Y-80612039D01*
X187988161Y-80612925D01*
X187984252Y-80613623D01*
X187980280Y-80614128D01*
X187976249Y-80614435D01*
X187972164Y-80614538D01*
X187932477Y-80614538D01*
X187928392Y-80614435D01*
X187924361Y-80614128D01*
X187920389Y-80613623D01*
X187916480Y-80612925D01*
X187912640Y-80612039D01*
X187908873Y-80610969D01*
X187905185Y-80609721D01*
X187901581Y-80608300D01*
X187898065Y-80606711D01*
X187894642Y-80604958D01*
X187891318Y-80603047D01*
X187888098Y-80600982D01*
X187884986Y-80598769D01*
X187881987Y-80596413D01*
X187879107Y-80593918D01*
X187876350Y-80591290D01*
X187873722Y-80588533D01*
X187871227Y-80585653D01*
X187868871Y-80582654D01*
X187866658Y-80579542D01*
X187864593Y-80576322D01*
X187862682Y-80572998D01*
X187860929Y-80569575D01*
X187859340Y-80566059D01*
X187857918Y-80562455D01*
X187856671Y-80558767D01*
X187855601Y-80555000D01*
X187854715Y-80551160D01*
X187854017Y-80547251D01*
X187853512Y-80543278D01*
X187853205Y-80539247D01*
X187853102Y-80535163D01*
X187853102Y-80297038D01*
X187853205Y-80292953D01*
X187853512Y-80288922D01*
X187854017Y-80284950D01*
X187854715Y-80281041D01*
X187855601Y-80277201D01*
X187856671Y-80273434D01*
X187857918Y-80269746D01*
X187859340Y-80266141D01*
X187860929Y-80262625D01*
X187862682Y-80259203D01*
X187864593Y-80255879D01*
X187866658Y-80252658D01*
X187868871Y-80249546D01*
X187871227Y-80246548D01*
X187873722Y-80243668D01*
X187876350Y-80240911D01*
X187879107Y-80238283D01*
X187881987Y-80235788D01*
X187884986Y-80233432D01*
X187888098Y-80231219D01*
X187891318Y-80229154D01*
X187894642Y-80227243D01*
X187898065Y-80225490D01*
X187901581Y-80223900D01*
X187905185Y-80222479D01*
X187908873Y-80221231D01*
X187912640Y-80220162D01*
X187916480Y-80219275D01*
X187920389Y-80218577D01*
X187924361Y-80218072D01*
X187928392Y-80217766D01*
X187932477Y-80217663D01*
X187972164Y-80217663D01*
X187976249Y-80217766D01*
G37*
D12*
X180868000Y-91019000D02*
X180868000Y-78573000D01*
D10*
G36*
X187976249Y-84662766D02*
G01*
X187980280Y-84663072D01*
X187984252Y-84663577D01*
X187988161Y-84664275D01*
X187992002Y-84665161D01*
X187995768Y-84666231D01*
X187999456Y-84667479D01*
X188003061Y-84668900D01*
X188006577Y-84670490D01*
X188009999Y-84672243D01*
X188013323Y-84674154D01*
X188016544Y-84676219D01*
X188019656Y-84678432D01*
X188022654Y-84680788D01*
X188025534Y-84683283D01*
X188028291Y-84685911D01*
X188030919Y-84688668D01*
X188033414Y-84691548D01*
X188035770Y-84694546D01*
X188037983Y-84697658D01*
X188040048Y-84700879D01*
X188041959Y-84704203D01*
X188043712Y-84707625D01*
X188045302Y-84711141D01*
X188046723Y-84714746D01*
X188047971Y-84718434D01*
X188049041Y-84722201D01*
X188049927Y-84726041D01*
X188050625Y-84729950D01*
X188051130Y-84733922D01*
X188051436Y-84737953D01*
X188051539Y-84742038D01*
X188051539Y-84980163D01*
X188051436Y-84984247D01*
X188051130Y-84988278D01*
X188050625Y-84992251D01*
X188049927Y-84996159D01*
X188049041Y-85000000D01*
X188047971Y-85003766D01*
X188046723Y-85007454D01*
X188045302Y-85011059D01*
X188043712Y-85014575D01*
X188041959Y-85017997D01*
X188040048Y-85021321D01*
X188037983Y-85024542D01*
X188035770Y-85027654D01*
X188033414Y-85030652D01*
X188030919Y-85033533D01*
X188028291Y-85036289D01*
X188025534Y-85038917D01*
X188022654Y-85041412D01*
X188019656Y-85043769D01*
X188016544Y-85045982D01*
X188013323Y-85048046D01*
X188009999Y-85049957D01*
X188006577Y-85051710D01*
X188003061Y-85053300D01*
X187999456Y-85054721D01*
X187995768Y-85055969D01*
X187992002Y-85057039D01*
X187988161Y-85057925D01*
X187984252Y-85058623D01*
X187980280Y-85059128D01*
X187976249Y-85059434D01*
X187972164Y-85059538D01*
X187932477Y-85059538D01*
X187928392Y-85059434D01*
X187924361Y-85059128D01*
X187920389Y-85058623D01*
X187916480Y-85057925D01*
X187912640Y-85057039D01*
X187908873Y-85055969D01*
X187905185Y-85054721D01*
X187901581Y-85053300D01*
X187898065Y-85051710D01*
X187894642Y-85049957D01*
X187891318Y-85048046D01*
X187888098Y-85045982D01*
X187884986Y-85043769D01*
X187881987Y-85041412D01*
X187879107Y-85038917D01*
X187876350Y-85036289D01*
X187873722Y-85033533D01*
X187871227Y-85030652D01*
X187868871Y-85027654D01*
X187866658Y-85024542D01*
X187864593Y-85021321D01*
X187862682Y-85017997D01*
X187860929Y-85014575D01*
X187859340Y-85011059D01*
X187857918Y-85007454D01*
X187856671Y-85003766D01*
X187855601Y-85000000D01*
X187854715Y-84996159D01*
X187854017Y-84992251D01*
X187853512Y-84988278D01*
X187853205Y-84984247D01*
X187853102Y-84980163D01*
X187853102Y-84742038D01*
X187853205Y-84737953D01*
X187853512Y-84733922D01*
X187854017Y-84729950D01*
X187854715Y-84726041D01*
X187855601Y-84722201D01*
X187856671Y-84718434D01*
X187857918Y-84714746D01*
X187859340Y-84711141D01*
X187860929Y-84707625D01*
X187862682Y-84704203D01*
X187864593Y-84700879D01*
X187866658Y-84697658D01*
X187868871Y-84694546D01*
X187871227Y-84691548D01*
X187873722Y-84688668D01*
X187876350Y-84685911D01*
X187879107Y-84683283D01*
X187881987Y-84680788D01*
X187884986Y-84678432D01*
X187888098Y-84676219D01*
X187891318Y-84674154D01*
X187894642Y-84672243D01*
X187898065Y-84670490D01*
X187901581Y-84668900D01*
X187905185Y-84667479D01*
X187908873Y-84666231D01*
X187912640Y-84665161D01*
X187916480Y-84664275D01*
X187920389Y-84663577D01*
X187924361Y-84663072D01*
X187928392Y-84662766D01*
X187932477Y-84662663D01*
X187972164Y-84662663D01*
X187976249Y-84662766D01*
G37*
G36*
X189325624Y-81487766D02*
G01*
X189329655Y-81488072D01*
X189333627Y-81488577D01*
X189337536Y-81489275D01*
X189341376Y-81490162D01*
X189345143Y-81491231D01*
X189348831Y-81492479D01*
X189352436Y-81493900D01*
X189355952Y-81495490D01*
X189359374Y-81497243D01*
X189362698Y-81499154D01*
X189365919Y-81501219D01*
X189369031Y-81503432D01*
X189372029Y-81505788D01*
X189374909Y-81508283D01*
X189377666Y-81510911D01*
X189380294Y-81513668D01*
X189382789Y-81516548D01*
X189385145Y-81519546D01*
X189387358Y-81522658D01*
X189389423Y-81525879D01*
X189391334Y-81529203D01*
X189393087Y-81532625D01*
X189394677Y-81536141D01*
X189396098Y-81539746D01*
X189397346Y-81543434D01*
X189398415Y-81547201D01*
X189399302Y-81551041D01*
X189400000Y-81554950D01*
X189400505Y-81558922D01*
X189400811Y-81562953D01*
X189400914Y-81567038D01*
X189400914Y-81805163D01*
X189400811Y-81809247D01*
X189400505Y-81813278D01*
X189400000Y-81817251D01*
X189399302Y-81821160D01*
X189398415Y-81825000D01*
X189397346Y-81828766D01*
X189396098Y-81832454D01*
X189394677Y-81836059D01*
X189393087Y-81839575D01*
X189391334Y-81842998D01*
X189389423Y-81846322D01*
X189387358Y-81849542D01*
X189385145Y-81852654D01*
X189382789Y-81855653D01*
X189380294Y-81858533D01*
X189377666Y-81861289D01*
X189374909Y-81863918D01*
X189372029Y-81866412D01*
X189369031Y-81868769D01*
X189365919Y-81870982D01*
X189362698Y-81873046D01*
X189359374Y-81874958D01*
X189355952Y-81876710D01*
X189352436Y-81878300D01*
X189348831Y-81879721D01*
X189345143Y-81880969D01*
X189341376Y-81882039D01*
X189337536Y-81882925D01*
X189333627Y-81883623D01*
X189329655Y-81884128D01*
X189325624Y-81884434D01*
X189321539Y-81884538D01*
X189281852Y-81884538D01*
X189277767Y-81884434D01*
X189273736Y-81884128D01*
X189269764Y-81883623D01*
X189265855Y-81882925D01*
X189262015Y-81882039D01*
X189258248Y-81880969D01*
X189254560Y-81879721D01*
X189250956Y-81878300D01*
X189247440Y-81876710D01*
X189244017Y-81874958D01*
X189240693Y-81873046D01*
X189237473Y-81870982D01*
X189234361Y-81868769D01*
X189231362Y-81866412D01*
X189228482Y-81863918D01*
X189225725Y-81861289D01*
X189223097Y-81858533D01*
X189220602Y-81855653D01*
X189218246Y-81852654D01*
X189216033Y-81849542D01*
X189213968Y-81846322D01*
X189212057Y-81842998D01*
X189210304Y-81839575D01*
X189208715Y-81836059D01*
X189207293Y-81832454D01*
X189206045Y-81828766D01*
X189204976Y-81825000D01*
X189204089Y-81821160D01*
X189203391Y-81817251D01*
X189202887Y-81813278D01*
X189202580Y-81809247D01*
X189202477Y-81805163D01*
X189202477Y-81567038D01*
X189202580Y-81562953D01*
X189202887Y-81558922D01*
X189203391Y-81554950D01*
X189204089Y-81551041D01*
X189204976Y-81547201D01*
X189206045Y-81543434D01*
X189207293Y-81539746D01*
X189208715Y-81536141D01*
X189210304Y-81532625D01*
X189212057Y-81529203D01*
X189213968Y-81525879D01*
X189216033Y-81522658D01*
X189218246Y-81519546D01*
X189220602Y-81516548D01*
X189223097Y-81513668D01*
X189225725Y-81510911D01*
X189228482Y-81508283D01*
X189231362Y-81505788D01*
X189234361Y-81503432D01*
X189237473Y-81501219D01*
X189240693Y-81499154D01*
X189244017Y-81497243D01*
X189247440Y-81495490D01*
X189250956Y-81493900D01*
X189254560Y-81492479D01*
X189258248Y-81491231D01*
X189262015Y-81490162D01*
X189265855Y-81489275D01*
X189269764Y-81488577D01*
X189273736Y-81488072D01*
X189277767Y-81487766D01*
X189281852Y-81487663D01*
X189321539Y-81487663D01*
X189325624Y-81487766D01*
G37*
G36*
X189325624Y-83392766D02*
G01*
X189329655Y-83393073D01*
X189333627Y-83393577D01*
X189337536Y-83394275D01*
X189341376Y-83395162D01*
X189345143Y-83396231D01*
X189348831Y-83397479D01*
X189352436Y-83398900D01*
X189355952Y-83400490D01*
X189359374Y-83402243D01*
X189362698Y-83404154D01*
X189365919Y-83406219D01*
X189369031Y-83408432D01*
X189372029Y-83410788D01*
X189374909Y-83413283D01*
X189377666Y-83415911D01*
X189380294Y-83418668D01*
X189382789Y-83421548D01*
X189385145Y-83424546D01*
X189387358Y-83427658D01*
X189389423Y-83430879D01*
X189391334Y-83434203D01*
X189393087Y-83437625D01*
X189394677Y-83441141D01*
X189396098Y-83444746D01*
X189397346Y-83448434D01*
X189398415Y-83452201D01*
X189399302Y-83456041D01*
X189400000Y-83459950D01*
X189400505Y-83463922D01*
X189400811Y-83467953D01*
X189400914Y-83472038D01*
X189400914Y-83710163D01*
X189400811Y-83714247D01*
X189400505Y-83718278D01*
X189400000Y-83722251D01*
X189399302Y-83726160D01*
X189398415Y-83730000D01*
X189397346Y-83733766D01*
X189396098Y-83737454D01*
X189394677Y-83741059D01*
X189393087Y-83744575D01*
X189391334Y-83747998D01*
X189389423Y-83751321D01*
X189387358Y-83754542D01*
X189385145Y-83757654D01*
X189382789Y-83760653D01*
X189380294Y-83763533D01*
X189377666Y-83766289D01*
X189374909Y-83768917D01*
X189372029Y-83771412D01*
X189369031Y-83773769D01*
X189365919Y-83775982D01*
X189362698Y-83778046D01*
X189359374Y-83779958D01*
X189355952Y-83781710D01*
X189352436Y-83783300D01*
X189348831Y-83784721D01*
X189345143Y-83785969D01*
X189341376Y-83787039D01*
X189337536Y-83787925D01*
X189333627Y-83788623D01*
X189329655Y-83789128D01*
X189325624Y-83789434D01*
X189321539Y-83789538D01*
X189281852Y-83789538D01*
X189277767Y-83789434D01*
X189273736Y-83789128D01*
X189269764Y-83788623D01*
X189265855Y-83787925D01*
X189262015Y-83787039D01*
X189258248Y-83785969D01*
X189254560Y-83784721D01*
X189250956Y-83783300D01*
X189247440Y-83781710D01*
X189244017Y-83779958D01*
X189240693Y-83778046D01*
X189237473Y-83775982D01*
X189234361Y-83773769D01*
X189231362Y-83771412D01*
X189228482Y-83768917D01*
X189225725Y-83766289D01*
X189223097Y-83763533D01*
X189220602Y-83760653D01*
X189218246Y-83757654D01*
X189216033Y-83754542D01*
X189213968Y-83751321D01*
X189212057Y-83747998D01*
X189210304Y-83744575D01*
X189208715Y-83741059D01*
X189207293Y-83737454D01*
X189206045Y-83733766D01*
X189204976Y-83730000D01*
X189204089Y-83726160D01*
X189203391Y-83722251D01*
X189202887Y-83718278D01*
X189202580Y-83714247D01*
X189202477Y-83710163D01*
X189202477Y-83472038D01*
X189202580Y-83467953D01*
X189202887Y-83463922D01*
X189203391Y-83459950D01*
X189204089Y-83456041D01*
X189204976Y-83452201D01*
X189206045Y-83448434D01*
X189207293Y-83444746D01*
X189208715Y-83441141D01*
X189210304Y-83437625D01*
X189212057Y-83434203D01*
X189213968Y-83430879D01*
X189216033Y-83427658D01*
X189218246Y-83424546D01*
X189220602Y-83421548D01*
X189223097Y-83418668D01*
X189225725Y-83415911D01*
X189228482Y-83413283D01*
X189231362Y-83410788D01*
X189234361Y-83408432D01*
X189237473Y-83406219D01*
X189240693Y-83404154D01*
X189244017Y-83402243D01*
X189247440Y-83400490D01*
X189250956Y-83398900D01*
X189254560Y-83397479D01*
X189258248Y-83396231D01*
X189262015Y-83395162D01*
X189265855Y-83394275D01*
X189269764Y-83393577D01*
X189273736Y-83393073D01*
X189277767Y-83392766D01*
X189281852Y-83392663D01*
X189321539Y-83392663D01*
X189325624Y-83392766D01*
G37*
G36*
X187976249Y-84662766D02*
G01*
X187980280Y-84663072D01*
X187984252Y-84663577D01*
X187988161Y-84664275D01*
X187992002Y-84665161D01*
X187995768Y-84666231D01*
X187999456Y-84667479D01*
X188003061Y-84668900D01*
X188006577Y-84670490D01*
X188009999Y-84672243D01*
X188013323Y-84674154D01*
X188016544Y-84676219D01*
X188019656Y-84678432D01*
X188022654Y-84680788D01*
X188025534Y-84683283D01*
X188028291Y-84685911D01*
X188030919Y-84688668D01*
X188033414Y-84691548D01*
X188035770Y-84694546D01*
X188037983Y-84697658D01*
X188040048Y-84700879D01*
X188041959Y-84704203D01*
X188043712Y-84707625D01*
X188045302Y-84711141D01*
X188046723Y-84714746D01*
X188047971Y-84718434D01*
X188049041Y-84722201D01*
X188049927Y-84726041D01*
X188050625Y-84729950D01*
X188051130Y-84733922D01*
X188051436Y-84737953D01*
X188051539Y-84742038D01*
X188051539Y-84980163D01*
X188051436Y-84984247D01*
X188051130Y-84988278D01*
X188050625Y-84992251D01*
X188049927Y-84996159D01*
X188049041Y-85000000D01*
X188047971Y-85003766D01*
X188046723Y-85007454D01*
X188045302Y-85011059D01*
X188043712Y-85014575D01*
X188041959Y-85017997D01*
X188040048Y-85021321D01*
X188037983Y-85024542D01*
X188035770Y-85027654D01*
X188033414Y-85030652D01*
X188030919Y-85033533D01*
X188028291Y-85036289D01*
X188025534Y-85038917D01*
X188022654Y-85041412D01*
X188019656Y-85043769D01*
X188016544Y-85045982D01*
X188013323Y-85048046D01*
X188009999Y-85049957D01*
X188006577Y-85051710D01*
X188003061Y-85053300D01*
X187999456Y-85054721D01*
X187995768Y-85055969D01*
X187992002Y-85057039D01*
X187988161Y-85057925D01*
X187984252Y-85058623D01*
X187980280Y-85059128D01*
X187976249Y-85059434D01*
X187972164Y-85059538D01*
X187932477Y-85059538D01*
X187928392Y-85059434D01*
X187924361Y-85059128D01*
X187920389Y-85058623D01*
X187916480Y-85057925D01*
X187912640Y-85057039D01*
X187908873Y-85055969D01*
X187905185Y-85054721D01*
X187901581Y-85053300D01*
X187898065Y-85051710D01*
X187894642Y-85049957D01*
X187891318Y-85048046D01*
X187888098Y-85045982D01*
X187884986Y-85043769D01*
X187881987Y-85041412D01*
X187879107Y-85038917D01*
X187876350Y-85036289D01*
X187873722Y-85033533D01*
X187871227Y-85030652D01*
X187868871Y-85027654D01*
X187866658Y-85024542D01*
X187864593Y-85021321D01*
X187862682Y-85017997D01*
X187860929Y-85014575D01*
X187859340Y-85011059D01*
X187857918Y-85007454D01*
X187856671Y-85003766D01*
X187855601Y-85000000D01*
X187854715Y-84996159D01*
X187854017Y-84992251D01*
X187853512Y-84988278D01*
X187853205Y-84984247D01*
X187853102Y-84980163D01*
X187853102Y-84742038D01*
X187853205Y-84737953D01*
X187853512Y-84733922D01*
X187854017Y-84729950D01*
X187854715Y-84726041D01*
X187855601Y-84722201D01*
X187856671Y-84718434D01*
X187857918Y-84714746D01*
X187859340Y-84711141D01*
X187860929Y-84707625D01*
X187862682Y-84704203D01*
X187864593Y-84700879D01*
X187866658Y-84697658D01*
X187868871Y-84694546D01*
X187871227Y-84691548D01*
X187873722Y-84688668D01*
X187876350Y-84685911D01*
X187879107Y-84683283D01*
X187881987Y-84680788D01*
X187884986Y-84678432D01*
X187888098Y-84676219D01*
X187891318Y-84674154D01*
X187894642Y-84672243D01*
X187898065Y-84670490D01*
X187901581Y-84668900D01*
X187905185Y-84667479D01*
X187908873Y-84666231D01*
X187912640Y-84665161D01*
X187916480Y-84664275D01*
X187920389Y-84663577D01*
X187924361Y-84663072D01*
X187928392Y-84662766D01*
X187932477Y-84662663D01*
X187972164Y-84662663D01*
X187976249Y-84662766D01*
G37*
D12*
X180868000Y-78573000D02*
X180614000Y-78573000D01*
D10*
G36*
X188632114Y-80217792D02*
G01*
X188637153Y-80218175D01*
X188642118Y-80218805D01*
X188647004Y-80219678D01*
X188651804Y-80220786D01*
X188656513Y-80222122D01*
X188661123Y-80223682D01*
X188665628Y-80225458D01*
X188670023Y-80227445D01*
X188674301Y-80229635D01*
X188678456Y-80232024D01*
X188682482Y-80234605D01*
X188686372Y-80237371D01*
X188690120Y-80240316D01*
X188693720Y-80243434D01*
X188697166Y-80246719D01*
X188700452Y-80250164D01*
X188703570Y-80253764D01*
X188706516Y-80257512D01*
X188709282Y-80261402D01*
X188711863Y-80265428D01*
X188714252Y-80269583D01*
X188716443Y-80273861D01*
X188718430Y-80278256D01*
X188720206Y-80282762D01*
X188721766Y-80287373D01*
X188723103Y-80292081D01*
X188724211Y-80296882D01*
X188725084Y-80301769D01*
X188725715Y-80306735D01*
X188726098Y-80311775D01*
X188726227Y-80316882D01*
X188726227Y-84960319D01*
X188726098Y-84965425D01*
X188725715Y-84970463D01*
X188725084Y-84975429D01*
X188724211Y-84980315D01*
X188723103Y-84985115D01*
X188721766Y-84989823D01*
X188720206Y-84994433D01*
X188718430Y-84998939D01*
X188716443Y-85003334D01*
X188714252Y-85007612D01*
X188711863Y-85011767D01*
X188709282Y-85015793D01*
X188706516Y-85019683D01*
X188703570Y-85023431D01*
X188700452Y-85027031D01*
X188697166Y-85030477D01*
X188693720Y-85033762D01*
X188690120Y-85036881D01*
X188686372Y-85039826D01*
X188682482Y-85042592D01*
X188678456Y-85045173D01*
X188674301Y-85047562D01*
X188670023Y-85049753D01*
X188665628Y-85051740D01*
X188661123Y-85053517D01*
X188656513Y-85055077D01*
X188651804Y-85056414D01*
X188647004Y-85057522D01*
X188642118Y-85058394D01*
X188637153Y-85059025D01*
X188632114Y-85059408D01*
X188627008Y-85059538D01*
X188621902Y-85059408D01*
X188616864Y-85059025D01*
X188611898Y-85058394D01*
X188607012Y-85057522D01*
X188602212Y-85056414D01*
X188597504Y-85055077D01*
X188592894Y-85053517D01*
X188588388Y-85051740D01*
X188583993Y-85049753D01*
X188579715Y-85047562D01*
X188575560Y-85045173D01*
X188571534Y-85042592D01*
X188567644Y-85039826D01*
X188563896Y-85036881D01*
X188560296Y-85033762D01*
X188556850Y-85030477D01*
X188553565Y-85027031D01*
X188550446Y-85023431D01*
X188547501Y-85019683D01*
X188544735Y-85015793D01*
X188542154Y-85011767D01*
X188539765Y-85007612D01*
X188537574Y-85003334D01*
X188535587Y-84998939D01*
X188533810Y-84994433D01*
X188532250Y-84989823D01*
X188530913Y-84985115D01*
X188529805Y-84980315D01*
X188528933Y-84975429D01*
X188528302Y-84970463D01*
X188527919Y-84965425D01*
X188527789Y-84960319D01*
X188527789Y-80316882D01*
X188527919Y-80311775D01*
X188528302Y-80306735D01*
X188528933Y-80301769D01*
X188529805Y-80296882D01*
X188530913Y-80292081D01*
X188532250Y-80287373D01*
X188533810Y-80282762D01*
X188535587Y-80278256D01*
X188537574Y-80273861D01*
X188539765Y-80269583D01*
X188542154Y-80265428D01*
X188544735Y-80261402D01*
X188547501Y-80257512D01*
X188550446Y-80253764D01*
X188553565Y-80250164D01*
X188556850Y-80246719D01*
X188560296Y-80243434D01*
X188563896Y-80240316D01*
X188567644Y-80237371D01*
X188571534Y-80234605D01*
X188575560Y-80232024D01*
X188579715Y-80229635D01*
X188583993Y-80227445D01*
X188588388Y-80225458D01*
X188592894Y-80223682D01*
X188597504Y-80222122D01*
X188602212Y-80220786D01*
X188607012Y-80219678D01*
X188611898Y-80218805D01*
X188616864Y-80218175D01*
X188621902Y-80217792D01*
X188627008Y-80217663D01*
X188632114Y-80217792D01*
G37*
D12*
X178328000Y-78573000D02*
X178582000Y-78573000D01*
D10*
G36*
X189325624Y-80852766D02*
G01*
X189329655Y-80853072D01*
X189333627Y-80853577D01*
X189337536Y-80854275D01*
X189341376Y-80855162D01*
X189345143Y-80856231D01*
X189348831Y-80857479D01*
X189352436Y-80858900D01*
X189355952Y-80860490D01*
X189359374Y-80862243D01*
X189362698Y-80864154D01*
X189365919Y-80866219D01*
X189369031Y-80868432D01*
X189372029Y-80870788D01*
X189374909Y-80873283D01*
X189377666Y-80875911D01*
X189380294Y-80878668D01*
X189382789Y-80881548D01*
X189385145Y-80884546D01*
X189387358Y-80887659D01*
X189389423Y-80890879D01*
X189391334Y-80894203D01*
X189393087Y-80897625D01*
X189394677Y-80901141D01*
X189396098Y-80904746D01*
X189397346Y-80908434D01*
X189398415Y-80912201D01*
X189399302Y-80916041D01*
X189400000Y-80919950D01*
X189400505Y-80923922D01*
X189400811Y-80927953D01*
X189400914Y-80932038D01*
X189400914Y-81170163D01*
X189400811Y-81174247D01*
X189400505Y-81178278D01*
X189400000Y-81182251D01*
X189399302Y-81186160D01*
X189398415Y-81190000D01*
X189397346Y-81193766D01*
X189396098Y-81197455D01*
X189394677Y-81201059D01*
X189393087Y-81204575D01*
X189391334Y-81207998D01*
X189389423Y-81211322D01*
X189387358Y-81214542D01*
X189385145Y-81217654D01*
X189382789Y-81220653D01*
X189380294Y-81223533D01*
X189377666Y-81226289D01*
X189374909Y-81228918D01*
X189372029Y-81231412D01*
X189369031Y-81233769D01*
X189365919Y-81235982D01*
X189362698Y-81238046D01*
X189359374Y-81239958D01*
X189355952Y-81241711D01*
X189352436Y-81243300D01*
X189348831Y-81244721D01*
X189345143Y-81245969D01*
X189341376Y-81247039D01*
X189337536Y-81247925D01*
X189333627Y-81248623D01*
X189329655Y-81249128D01*
X189325624Y-81249435D01*
X189321539Y-81249538D01*
X189281852Y-81249538D01*
X189277767Y-81249435D01*
X189273736Y-81249128D01*
X189269764Y-81248623D01*
X189265855Y-81247925D01*
X189262015Y-81247039D01*
X189258248Y-81245969D01*
X189254560Y-81244721D01*
X189250956Y-81243300D01*
X189247440Y-81241711D01*
X189244017Y-81239958D01*
X189240693Y-81238046D01*
X189237473Y-81235982D01*
X189234361Y-81233769D01*
X189231362Y-81231412D01*
X189228482Y-81228918D01*
X189225725Y-81226289D01*
X189223097Y-81223533D01*
X189220602Y-81220653D01*
X189218246Y-81217654D01*
X189216033Y-81214542D01*
X189213968Y-81211322D01*
X189212057Y-81207998D01*
X189210304Y-81204575D01*
X189208715Y-81201059D01*
X189207293Y-81197455D01*
X189206045Y-81193766D01*
X189204976Y-81190000D01*
X189204089Y-81186160D01*
X189203391Y-81182251D01*
X189202887Y-81178278D01*
X189202580Y-81174247D01*
X189202477Y-81170163D01*
X189202477Y-80932038D01*
X189202580Y-80927953D01*
X189202887Y-80923922D01*
X189203391Y-80919950D01*
X189204089Y-80916041D01*
X189204976Y-80912201D01*
X189206045Y-80908434D01*
X189207293Y-80904746D01*
X189208715Y-80901141D01*
X189210304Y-80897625D01*
X189212057Y-80894203D01*
X189213968Y-80890879D01*
X189216033Y-80887659D01*
X189218246Y-80884546D01*
X189220602Y-80881548D01*
X189223097Y-80878668D01*
X189225725Y-80875911D01*
X189228482Y-80873283D01*
X189231362Y-80870788D01*
X189234361Y-80868432D01*
X189237473Y-80866219D01*
X189240693Y-80864154D01*
X189244017Y-80862243D01*
X189247440Y-80860490D01*
X189250956Y-80858900D01*
X189254560Y-80857479D01*
X189258248Y-80856231D01*
X189262015Y-80855162D01*
X189265855Y-80854275D01*
X189269764Y-80853577D01*
X189273736Y-80853072D01*
X189277767Y-80852766D01*
X189281852Y-80852663D01*
X189321539Y-80852663D01*
X189325624Y-80852766D01*
G37*
D13*
X170727255Y-121145342D02*
X170727255Y-122002485D01*
X170727255Y-122002485D02*
X170670112Y-122173914D01*
X170670112Y-122173914D02*
X170555826Y-122288200D01*
X170555826Y-122288200D02*
X170384398Y-122345342D01*
X170384398Y-122345342D02*
X170270112Y-122345342D01*
X171298684Y-121145342D02*
X171298684Y-122116771D01*
X171298684Y-122116771D02*
X171355827Y-122231057D01*
X171355827Y-122231057D02*
X171412970Y-122288200D01*
X171412970Y-122288200D02*
X171527255Y-122345342D01*
X171527255Y-122345342D02*
X171755827Y-122345342D01*
X171755827Y-122345342D02*
X171870112Y-122288200D01*
X171870112Y-122288200D02*
X171927255Y-122231057D01*
X171927255Y-122231057D02*
X171984398Y-122116771D01*
X171984398Y-122116771D02*
X171984398Y-121145342D01*
X173127255Y-122345342D02*
X172555827Y-122345342D01*
X172555827Y-122345342D02*
X172555827Y-121145342D01*
X173755827Y-121773914D02*
X173755827Y-122345342D01*
X173355827Y-121145342D02*
X173755827Y-121773914D01*
X173755827Y-121773914D02*
X174155827Y-121145342D01*
X175412970Y-121088200D02*
X174384398Y-122631057D01*
X176441541Y-122345342D02*
X175755827Y-122345342D01*
X176098684Y-122345342D02*
X176098684Y-121145342D01*
X176098684Y-121145342D02*
X175984398Y-121316771D01*
X175984398Y-121316771D02*
X175870113Y-121431057D01*
X175870113Y-121431057D02*
X175755827Y-121488200D01*
X176898684Y-121259628D02*
X176955827Y-121202485D01*
X176955827Y-121202485D02*
X177070113Y-121145342D01*
X177070113Y-121145342D02*
X177355827Y-121145342D01*
X177355827Y-121145342D02*
X177470113Y-121202485D01*
X177470113Y-121202485D02*
X177527255Y-121259628D01*
X177527255Y-121259628D02*
X177584398Y-121373914D01*
X177584398Y-121373914D02*
X177584398Y-121488200D01*
X177584398Y-121488200D02*
X177527255Y-121659628D01*
X177527255Y-121659628D02*
X176841541Y-122345342D01*
X176841541Y-122345342D02*
X177584398Y-122345342D01*
X178955827Y-121088200D02*
X177927255Y-122631057D01*
X179298684Y-121259628D02*
X179355827Y-121202485D01*
X179355827Y-121202485D02*
X179470113Y-121145342D01*
X179470113Y-121145342D02*
X179755827Y-121145342D01*
X179755827Y-121145342D02*
X179870113Y-121202485D01*
X179870113Y-121202485D02*
X179927255Y-121259628D01*
X179927255Y-121259628D02*
X179984398Y-121373914D01*
X179984398Y-121373914D02*
X179984398Y-121488200D01*
X179984398Y-121488200D02*
X179927255Y-121659628D01*
X179927255Y-121659628D02*
X179241541Y-122345342D01*
X179241541Y-122345342D02*
X179984398Y-122345342D01*
X180727255Y-121145342D02*
X180841541Y-121145342D01*
X180841541Y-121145342D02*
X180955827Y-121202485D01*
X180955827Y-121202485D02*
X181012970Y-121259628D01*
X181012970Y-121259628D02*
X181070112Y-121373914D01*
X181070112Y-121373914D02*
X181127255Y-121602485D01*
X181127255Y-121602485D02*
X181127255Y-121888200D01*
X181127255Y-121888200D02*
X181070112Y-122116771D01*
X181070112Y-122116771D02*
X181012970Y-122231057D01*
X181012970Y-122231057D02*
X180955827Y-122288200D01*
X180955827Y-122288200D02*
X180841541Y-122345342D01*
X180841541Y-122345342D02*
X180727255Y-122345342D01*
X180727255Y-122345342D02*
X180612970Y-122288200D01*
X180612970Y-122288200D02*
X180555827Y-122231057D01*
X180555827Y-122231057D02*
X180498684Y-122116771D01*
X180498684Y-122116771D02*
X180441541Y-121888200D01*
X180441541Y-121888200D02*
X180441541Y-121602485D01*
X180441541Y-121602485D02*
X180498684Y-121373914D01*
X180498684Y-121373914D02*
X180555827Y-121259628D01*
X180555827Y-121259628D02*
X180612970Y-121202485D01*
X180612970Y-121202485D02*
X180727255Y-121145342D01*
X181584398Y-121259628D02*
X181641541Y-121202485D01*
X181641541Y-121202485D02*
X181755827Y-121145342D01*
X181755827Y-121145342D02*
X182041541Y-121145342D01*
X182041541Y-121145342D02*
X182155827Y-121202485D01*
X182155827Y-121202485D02*
X182212969Y-121259628D01*
X182212969Y-121259628D02*
X182270112Y-121373914D01*
X182270112Y-121373914D02*
X182270112Y-121488200D01*
X182270112Y-121488200D02*
X182212969Y-121659628D01*
X182212969Y-121659628D02*
X181527255Y-122345342D01*
X181527255Y-122345342D02*
X182270112Y-122345342D01*
X183355826Y-121145342D02*
X182784398Y-121145342D01*
X182784398Y-121145342D02*
X182727255Y-121716771D01*
X182727255Y-121716771D02*
X182784398Y-121659628D01*
X182784398Y-121659628D02*
X182898684Y-121602485D01*
X182898684Y-121602485D02*
X183184398Y-121602485D01*
X183184398Y-121602485D02*
X183298684Y-121659628D01*
X183298684Y-121659628D02*
X183355826Y-121716771D01*
X183355826Y-121716771D02*
X183412969Y-121831057D01*
X183412969Y-121831057D02*
X183412969Y-122116771D01*
X183412969Y-122116771D02*
X183355826Y-122231057D01*
X183355826Y-122231057D02*
X183298684Y-122288200D01*
X183298684Y-122288200D02*
X183184398Y-122345342D01*
X183184398Y-122345342D02*
X182898684Y-122345342D01*
X182898684Y-122345342D02*
X182784398Y-122288200D01*
X182784398Y-122288200D02*
X182727255Y-122231057D01*
D12*
X158613451Y-106243601D02*
X158855356Y-106243601D01*
X158855356Y-106243601D02*
X158976308Y-106304077D01*
X158976308Y-106304077D02*
X159097261Y-106425029D01*
X159097261Y-106425029D02*
X159157737Y-106666934D01*
X159157737Y-106666934D02*
X159157737Y-107090267D01*
X159157737Y-107090267D02*
X159097261Y-107332172D01*
X159097261Y-107332172D02*
X158976308Y-107453125D01*
X158976308Y-107453125D02*
X158855356Y-107513601D01*
X158855356Y-107513601D02*
X158613451Y-107513601D01*
X158613451Y-107513601D02*
X158492499Y-107453125D01*
X158492499Y-107453125D02*
X158371546Y-107332172D01*
X158371546Y-107332172D02*
X158311070Y-107090267D01*
X158311070Y-107090267D02*
X158311070Y-106666934D01*
X158311070Y-106666934D02*
X158371546Y-106425029D01*
X158371546Y-106425029D02*
X158492499Y-106304077D01*
X158492499Y-106304077D02*
X158613451Y-106243601D01*
X159702022Y-106243601D02*
X159702022Y-107271696D01*
X159702022Y-107271696D02*
X159762499Y-107392648D01*
X159762499Y-107392648D02*
X159822975Y-107453125D01*
X159822975Y-107453125D02*
X159943927Y-107513601D01*
X159943927Y-107513601D02*
X160185832Y-107513601D01*
X160185832Y-107513601D02*
X160306784Y-107453125D01*
X160306784Y-107453125D02*
X160367261Y-107392648D01*
X160367261Y-107392648D02*
X160427737Y-107271696D01*
X160427737Y-107271696D02*
X160427737Y-106243601D01*
X160851070Y-106243601D02*
X161576784Y-106243601D01*
X161213927Y-107513601D02*
X161213927Y-106243601D01*
D14*
X187457524Y-103047703D02*
X187457524Y-102563894D01*
X187457524Y-102563894D02*
X187578476Y-102321989D01*
X187578476Y-102321989D02*
X187820381Y-102080084D01*
X187820381Y-102080084D02*
X188304191Y-101959132D01*
X188304191Y-101959132D02*
X189150857Y-101959132D01*
X189150857Y-101959132D02*
X189634667Y-102080084D01*
X189634667Y-102080084D02*
X189876572Y-102321989D01*
X189876572Y-102321989D02*
X189997524Y-102563894D01*
X189997524Y-102563894D02*
X189997524Y-103047703D01*
X189997524Y-103047703D02*
X189876572Y-103289608D01*
X189876572Y-103289608D02*
X189634667Y-103531513D01*
X189634667Y-103531513D02*
X189150857Y-103652465D01*
X189150857Y-103652465D02*
X188304191Y-103652465D01*
X188304191Y-103652465D02*
X187820381Y-103531513D01*
X187820381Y-103531513D02*
X187578476Y-103289608D01*
X187578476Y-103289608D02*
X187457524Y-103047703D01*
X188304191Y-100870561D02*
X190844191Y-100870561D01*
X188425143Y-100870561D02*
X188304191Y-100628656D01*
X188304191Y-100628656D02*
X188304191Y-100144846D01*
X188304191Y-100144846D02*
X188425143Y-99902942D01*
X188425143Y-99902942D02*
X188546095Y-99781989D01*
X188546095Y-99781989D02*
X188788000Y-99661037D01*
X188788000Y-99661037D02*
X189513714Y-99661037D01*
X189513714Y-99661037D02*
X189755619Y-99781989D01*
X189755619Y-99781989D02*
X189876572Y-99902942D01*
X189876572Y-99902942D02*
X189997524Y-100144846D01*
X189997524Y-100144846D02*
X189997524Y-100628656D01*
X189997524Y-100628656D02*
X189876572Y-100870561D01*
X189876572Y-97604847D02*
X189997524Y-97846751D01*
X189997524Y-97846751D02*
X189997524Y-98330561D01*
X189997524Y-98330561D02*
X189876572Y-98572466D01*
X189876572Y-98572466D02*
X189634667Y-98693418D01*
X189634667Y-98693418D02*
X188667048Y-98693418D01*
X188667048Y-98693418D02*
X188425143Y-98572466D01*
X188425143Y-98572466D02*
X188304191Y-98330561D01*
X188304191Y-98330561D02*
X188304191Y-97846751D01*
X188304191Y-97846751D02*
X188425143Y-97604847D01*
X188425143Y-97604847D02*
X188667048Y-97483894D01*
X188667048Y-97483894D02*
X188908952Y-97483894D01*
X188908952Y-97483894D02*
X189150857Y-98693418D01*
X188304191Y-96395323D02*
X189997524Y-96395323D01*
X188546095Y-96395323D02*
X188425143Y-96274370D01*
X188425143Y-96274370D02*
X188304191Y-96032465D01*
X188304191Y-96032465D02*
X188304191Y-95669608D01*
X188304191Y-95669608D02*
X188425143Y-95427704D01*
X188425143Y-95427704D02*
X188667048Y-95306751D01*
X188667048Y-95306751D02*
X189997524Y-95306751D01*
X189755619Y-92645799D02*
X189876572Y-92766751D01*
X189876572Y-92766751D02*
X189997524Y-93129609D01*
X189997524Y-93129609D02*
X189997524Y-93371513D01*
X189997524Y-93371513D02*
X189876572Y-93734370D01*
X189876572Y-93734370D02*
X189634667Y-93976275D01*
X189634667Y-93976275D02*
X189392762Y-94097228D01*
X189392762Y-94097228D02*
X188908952Y-94218180D01*
X188908952Y-94218180D02*
X188546095Y-94218180D01*
X188546095Y-94218180D02*
X188062286Y-94097228D01*
X188062286Y-94097228D02*
X187820381Y-93976275D01*
X187820381Y-93976275D02*
X187578476Y-93734370D01*
X187578476Y-93734370D02*
X187457524Y-93371513D01*
X187457524Y-93371513D02*
X187457524Y-93129609D01*
X187457524Y-93129609D02*
X187578476Y-92766751D01*
X187578476Y-92766751D02*
X187699429Y-92645799D01*
X189271810Y-91678180D02*
X189271810Y-90468656D01*
X189997524Y-91920085D02*
X187457524Y-91073418D01*
X187457524Y-91073418D02*
X189997524Y-90226751D01*
X189997524Y-89380085D02*
X187457524Y-89380085D01*
X187457524Y-89380085D02*
X189997524Y-87928656D01*
X189997524Y-87928656D02*
X187457524Y-87928656D01*
D13*
X177015350Y-93453152D02*
X177015350Y-94119819D01*
X176777255Y-93072200D02*
X176539160Y-93786485D01*
X176539160Y-93786485D02*
X177158207Y-93786485D01*
X177729636Y-93119819D02*
X177824874Y-93119819D01*
X177824874Y-93119819D02*
X177920112Y-93167438D01*
X177920112Y-93167438D02*
X177967731Y-93215057D01*
X177967731Y-93215057D02*
X178015350Y-93310295D01*
X178015350Y-93310295D02*
X178062969Y-93500771D01*
X178062969Y-93500771D02*
X178062969Y-93738866D01*
X178062969Y-93738866D02*
X178015350Y-93929342D01*
X178015350Y-93929342D02*
X177967731Y-94024580D01*
X177967731Y-94024580D02*
X177920112Y-94072200D01*
X177920112Y-94072200D02*
X177824874Y-94119819D01*
X177824874Y-94119819D02*
X177729636Y-94119819D01*
X177729636Y-94119819D02*
X177634398Y-94072200D01*
X177634398Y-94072200D02*
X177586779Y-94024580D01*
X177586779Y-94024580D02*
X177539160Y-93929342D01*
X177539160Y-93929342D02*
X177491541Y-93738866D01*
X177491541Y-93738866D02*
X177491541Y-93500771D01*
X177491541Y-93500771D02*
X177539160Y-93310295D01*
X177539160Y-93310295D02*
X177586779Y-93215057D01*
X177586779Y-93215057D02*
X177634398Y-93167438D01*
X177634398Y-93167438D02*
X177729636Y-93119819D01*
X178682017Y-93119819D02*
X178777255Y-93119819D01*
X178777255Y-93119819D02*
X178872493Y-93167438D01*
X178872493Y-93167438D02*
X178920112Y-93215057D01*
X178920112Y-93215057D02*
X178967731Y-93310295D01*
X178967731Y-93310295D02*
X179015350Y-93500771D01*
X179015350Y-93500771D02*
X179015350Y-93738866D01*
X179015350Y-93738866D02*
X178967731Y-93929342D01*
X178967731Y-93929342D02*
X178920112Y-94024580D01*
X178920112Y-94024580D02*
X178872493Y-94072200D01*
X178872493Y-94072200D02*
X178777255Y-94119819D01*
X178777255Y-94119819D02*
X178682017Y-94119819D01*
X178682017Y-94119819D02*
X178586779Y-94072200D01*
X178586779Y-94072200D02*
X178539160Y-94024580D01*
X178539160Y-94024580D02*
X178491541Y-93929342D01*
X178491541Y-93929342D02*
X178443922Y-93738866D01*
X178443922Y-93738866D02*
X178443922Y-93500771D01*
X178443922Y-93500771D02*
X178491541Y-93310295D01*
X178491541Y-93310295D02*
X178539160Y-93215057D01*
X178539160Y-93215057D02*
X178586779Y-93167438D01*
X178586779Y-93167438D02*
X178682017Y-93119819D01*
X179443922Y-93453152D02*
X179443922Y-94119819D01*
X179443922Y-93548390D02*
X179491541Y-93500771D01*
X179491541Y-93500771D02*
X179586779Y-93453152D01*
X179586779Y-93453152D02*
X179729636Y-93453152D01*
X179729636Y-93453152D02*
X179824874Y-93500771D01*
X179824874Y-93500771D02*
X179872493Y-93596009D01*
X179872493Y-93596009D02*
X179872493Y-94119819D01*
X181634398Y-94119819D02*
X181062970Y-94119819D01*
X181348684Y-94119819D02*
X181348684Y-93119819D01*
X181348684Y-93119819D02*
X181253446Y-93262676D01*
X181253446Y-93262676D02*
X181158208Y-93357914D01*
X181158208Y-93357914D02*
X181062970Y-93405533D01*
X182491541Y-93119819D02*
X182301065Y-93119819D01*
X182301065Y-93119819D02*
X182205827Y-93167438D01*
X182205827Y-93167438D02*
X182158208Y-93215057D01*
X182158208Y-93215057D02*
X182062970Y-93357914D01*
X182062970Y-93357914D02*
X182015351Y-93548390D01*
X182015351Y-93548390D02*
X182015351Y-93929342D01*
X182015351Y-93929342D02*
X182062970Y-94024580D01*
X182062970Y-94024580D02*
X182110589Y-94072200D01*
X182110589Y-94072200D02*
X182205827Y-94119819D01*
X182205827Y-94119819D02*
X182396303Y-94119819D01*
X182396303Y-94119819D02*
X182491541Y-94072200D01*
X182491541Y-94072200D02*
X182539160Y-94024580D01*
X182539160Y-94024580D02*
X182586779Y-93929342D01*
X182586779Y-93929342D02*
X182586779Y-93691247D01*
X182586779Y-93691247D02*
X182539160Y-93596009D01*
X182539160Y-93596009D02*
X182491541Y-93548390D01*
X182491541Y-93548390D02*
X182396303Y-93500771D01*
X182396303Y-93500771D02*
X182205827Y-93500771D01*
X182205827Y-93500771D02*
X182110589Y-93548390D01*
X182110589Y-93548390D02*
X182062970Y-93596009D01*
X182062970Y-93596009D02*
X182015351Y-93691247D01*
X182872494Y-93119819D02*
X183205827Y-94119819D01*
X183205827Y-94119819D02*
X183539160Y-93119819D01*
X120293190Y-107664916D02*
X121260810Y-107664916D01*
X120293190Y-112744916D02*
X121260810Y-112744916D01*
X120777000Y-113228726D02*
X120777000Y-112261107D01*
X170384398Y-120345342D02*
X170384398Y-119145342D01*
X170784398Y-119545342D02*
X171241541Y-119545342D01*
X170955827Y-119145342D02*
X170955827Y-120173914D01*
X170955827Y-120173914D02*
X171012970Y-120288200D01*
X171012970Y-120288200D02*
X171127255Y-120345342D01*
X171127255Y-120345342D02*
X171241541Y-120345342D01*
X171527255Y-119545342D02*
X172155827Y-119545342D01*
X172155827Y-119545342D02*
X171527255Y-120345342D01*
X171527255Y-120345342D02*
X172155827Y-120345342D01*
X172612970Y-120345342D02*
X172612970Y-119145342D01*
X172612970Y-119145342D02*
X173298684Y-120345342D01*
X173298684Y-120345342D02*
X173298684Y-119145342D01*
X173870113Y-120345342D02*
X173870113Y-119545342D01*
X173870113Y-119145342D02*
X173812970Y-119202485D01*
X173812970Y-119202485D02*
X173870113Y-119259628D01*
X173870113Y-119259628D02*
X173927256Y-119202485D01*
X173927256Y-119202485D02*
X173870113Y-119145342D01*
X173870113Y-119145342D02*
X173870113Y-119259628D01*
X174955828Y-120288200D02*
X174841542Y-120345342D01*
X174841542Y-120345342D02*
X174612970Y-120345342D01*
X174612970Y-120345342D02*
X174498685Y-120288200D01*
X174498685Y-120288200D02*
X174441542Y-120231057D01*
X174441542Y-120231057D02*
X174384399Y-120116771D01*
X174384399Y-120116771D02*
X174384399Y-119773914D01*
X174384399Y-119773914D02*
X174441542Y-119659628D01*
X174441542Y-119659628D02*
X174498685Y-119602485D01*
X174498685Y-119602485D02*
X174612970Y-119545342D01*
X174612970Y-119545342D02*
X174841542Y-119545342D01*
X174841542Y-119545342D02*
X174955828Y-119602485D01*
X175470113Y-120345342D02*
X175470113Y-119145342D01*
X175470113Y-119145342D02*
X175755827Y-119145342D01*
X175755827Y-119145342D02*
X175927256Y-119202485D01*
X175927256Y-119202485D02*
X176041541Y-119316771D01*
X176041541Y-119316771D02*
X176098684Y-119431057D01*
X176098684Y-119431057D02*
X176155827Y-119659628D01*
X176155827Y-119659628D02*
X176155827Y-119831057D01*
X176155827Y-119831057D02*
X176098684Y-120059628D01*
X176098684Y-120059628D02*
X176041541Y-120173914D01*
X176041541Y-120173914D02*
X175927256Y-120288200D01*
X175927256Y-120288200D02*
X175755827Y-120345342D01*
X175755827Y-120345342D02*
X175470113Y-120345342D01*
X177127256Y-120288200D02*
X177012970Y-120345342D01*
X177012970Y-120345342D02*
X176784399Y-120345342D01*
X176784399Y-120345342D02*
X176670113Y-120288200D01*
X176670113Y-120288200D02*
X176612970Y-120173914D01*
X176612970Y-120173914D02*
X176612970Y-119716771D01*
X176612970Y-119716771D02*
X176670113Y-119602485D01*
X176670113Y-119602485D02*
X176784399Y-119545342D01*
X176784399Y-119545342D02*
X177012970Y-119545342D01*
X177012970Y-119545342D02*
X177127256Y-119602485D01*
X177127256Y-119602485D02*
X177184399Y-119716771D01*
X177184399Y-119716771D02*
X177184399Y-119831057D01*
X177184399Y-119831057D02*
X176612970Y-119945342D01*
X177584398Y-119545342D02*
X177870112Y-120345342D01*
X177870112Y-120345342D02*
X178155827Y-119545342D01*
D12*
X181599577Y-90094970D02*
X181599577Y-89282170D01*
X181599577Y-89282170D02*
X181870511Y-89862742D01*
X181870511Y-89862742D02*
X182141444Y-89282170D01*
X182141444Y-89282170D02*
X182141444Y-90094970D01*
X182876834Y-89553104D02*
X182876834Y-90094970D01*
X182683310Y-89243466D02*
X182489787Y-89824037D01*
X182489787Y-89824037D02*
X182992948Y-89824037D01*
X181649786Y-79433453D02*
X182269063Y-79433453D01*
X181959424Y-79743091D02*
X181959424Y-79123815D01*
X183081863Y-79743091D02*
X182617406Y-79743091D01*
X182849634Y-79743091D02*
X182849634Y-78930291D01*
X182849634Y-78930291D02*
X182772225Y-79046406D01*
X182772225Y-79046406D02*
X182694815Y-79123815D01*
X182694815Y-79123815D02*
X182617406Y-79162520D01*
X183391501Y-79007701D02*
X183430205Y-78968996D01*
X183430205Y-78968996D02*
X183507615Y-78930291D01*
X183507615Y-78930291D02*
X183701139Y-78930291D01*
X183701139Y-78930291D02*
X183778548Y-78968996D01*
X183778548Y-78968996D02*
X183817253Y-79007701D01*
X183817253Y-79007701D02*
X183855958Y-79085110D01*
X183855958Y-79085110D02*
X183855958Y-79162520D01*
X183855958Y-79162520D02*
X183817253Y-79278634D01*
X183817253Y-79278634D02*
X183352796Y-79743091D01*
X183352796Y-79743091D02*
X183855958Y-79743091D01*
X184088186Y-78930291D02*
X184359119Y-79743091D01*
X184359119Y-79743091D02*
X184630053Y-78930291D01*
X144420643Y-107513601D02*
X144420643Y-106243601D01*
X145025405Y-107513601D02*
X145025405Y-106243601D01*
X145025405Y-106243601D02*
X145751120Y-107513601D01*
X145751120Y-107513601D02*
X145751120Y-106243601D01*
X181669786Y-85037091D02*
X181669786Y-84224291D01*
X181669786Y-84224291D02*
X181940720Y-84804863D01*
X181940720Y-84804863D02*
X182211653Y-84224291D01*
X182211653Y-84224291D02*
X182211653Y-85037091D01*
X182559996Y-84301701D02*
X182598700Y-84262996D01*
X182598700Y-84262996D02*
X182676110Y-84224291D01*
X182676110Y-84224291D02*
X182869634Y-84224291D01*
X182869634Y-84224291D02*
X182947043Y-84262996D01*
X182947043Y-84262996D02*
X182985748Y-84301701D01*
X182985748Y-84301701D02*
X183024453Y-84379110D01*
X183024453Y-84379110D02*
X183024453Y-84456520D01*
X183024453Y-84456520D02*
X182985748Y-84572634D01*
X182985748Y-84572634D02*
X182521291Y-85037091D01*
X182521291Y-85037091D02*
X183024453Y-85037091D01*
D13*
X179516190Y-102095916D02*
X180483810Y-102095916D01*
X180000000Y-102579726D02*
X180000000Y-101612107D01*
D12*
X181669786Y-87577091D02*
X181669786Y-86764291D01*
X181669786Y-86764291D02*
X181940720Y-87344863D01*
X181940720Y-87344863D02*
X182211653Y-86764291D01*
X182211653Y-86764291D02*
X182211653Y-87577091D01*
X182521291Y-86764291D02*
X183024453Y-86764291D01*
X183024453Y-86764291D02*
X182753519Y-87073929D01*
X182753519Y-87073929D02*
X182869634Y-87073929D01*
X182869634Y-87073929D02*
X182947043Y-87112634D01*
X182947043Y-87112634D02*
X182985748Y-87151339D01*
X182985748Y-87151339D02*
X183024453Y-87228748D01*
X183024453Y-87228748D02*
X183024453Y-87422272D01*
X183024453Y-87422272D02*
X182985748Y-87499682D01*
X182985748Y-87499682D02*
X182947043Y-87538387D01*
X182947043Y-87538387D02*
X182869634Y-87577091D01*
X182869634Y-87577091D02*
X182637405Y-87577091D01*
X182637405Y-87577091D02*
X182559996Y-87538387D01*
X182559996Y-87538387D02*
X182521291Y-87499682D01*
X181669786Y-82497091D02*
X181669786Y-81684291D01*
X181669786Y-81684291D02*
X181940720Y-82264863D01*
X181940720Y-82264863D02*
X182211653Y-81684291D01*
X182211653Y-81684291D02*
X182211653Y-82497091D01*
X183024453Y-82497091D02*
X182559996Y-82497091D01*
X182792224Y-82497091D02*
X182792224Y-81684291D01*
X182792224Y-81684291D02*
X182714815Y-81800406D01*
X182714815Y-81800406D02*
X182637405Y-81877815D01*
X182637405Y-81877815D02*
X182559996Y-81916520D01*
X182095539Y-76642996D02*
X182018129Y-76604291D01*
X182018129Y-76604291D02*
X181902015Y-76604291D01*
X181902015Y-76604291D02*
X181785901Y-76642996D01*
X181785901Y-76642996D02*
X181708491Y-76720406D01*
X181708491Y-76720406D02*
X181669786Y-76797815D01*
X181669786Y-76797815D02*
X181631082Y-76952634D01*
X181631082Y-76952634D02*
X181631082Y-77068748D01*
X181631082Y-77068748D02*
X181669786Y-77223567D01*
X181669786Y-77223567D02*
X181708491Y-77300977D01*
X181708491Y-77300977D02*
X181785901Y-77378387D01*
X181785901Y-77378387D02*
X181902015Y-77417091D01*
X181902015Y-77417091D02*
X181979424Y-77417091D01*
X181979424Y-77417091D02*
X182095539Y-77378387D01*
X182095539Y-77378387D02*
X182134243Y-77339682D01*
X182134243Y-77339682D02*
X182134243Y-77068748D01*
X182134243Y-77068748D02*
X181979424Y-77068748D01*
X182482586Y-77417091D02*
X182482586Y-76604291D01*
X182482586Y-76604291D02*
X182947043Y-77417091D01*
X182947043Y-77417091D02*
X182947043Y-76604291D01*
X183334091Y-77417091D02*
X183334091Y-76604291D01*
X183334091Y-76604291D02*
X183527615Y-76604291D01*
X183527615Y-76604291D02*
X183643729Y-76642996D01*
X183643729Y-76642996D02*
X183721139Y-76720406D01*
X183721139Y-76720406D02*
X183759844Y-76797815D01*
X183759844Y-76797815D02*
X183798548Y-76952634D01*
X183798548Y-76952634D02*
X183798548Y-77068748D01*
X183798548Y-77068748D02*
X183759844Y-77223567D01*
X183759844Y-77223567D02*
X183721139Y-77300977D01*
X183721139Y-77300977D02*
X183643729Y-77378387D01*
X183643729Y-77378387D02*
X183527615Y-77417091D01*
X183527615Y-77417091D02*
X183334091Y-77417091D01*
D15*
X160419047Y-81257813D02*
X160561904Y-81305432D01*
X160561904Y-81305432D02*
X160609523Y-81353051D01*
X160609523Y-81353051D02*
X160657142Y-81448289D01*
X160657142Y-81448289D02*
X160657142Y-81591146D01*
X160657142Y-81591146D02*
X160609523Y-81686384D01*
X160609523Y-81686384D02*
X160561904Y-81734004D01*
X160561904Y-81734004D02*
X160466666Y-81781623D01*
X160466666Y-81781623D02*
X160085714Y-81781623D01*
X160085714Y-81781623D02*
X160085714Y-80781623D01*
X160085714Y-80781623D02*
X160419047Y-80781623D01*
X160419047Y-80781623D02*
X160514285Y-80829242D01*
X160514285Y-80829242D02*
X160561904Y-80876861D01*
X160561904Y-80876861D02*
X160609523Y-80972099D01*
X160609523Y-80972099D02*
X160609523Y-81067337D01*
X160609523Y-81067337D02*
X160561904Y-81162575D01*
X160561904Y-81162575D02*
X160514285Y-81210194D01*
X160514285Y-81210194D02*
X160419047Y-81257813D01*
X160419047Y-81257813D02*
X160085714Y-81257813D01*
X160990476Y-80781623D02*
X161657142Y-80781623D01*
X161657142Y-80781623D02*
X160990476Y-81781623D01*
X160990476Y-81781623D02*
X161657142Y-81781623D01*
X162561904Y-81781623D02*
X161990476Y-81781623D01*
X162276190Y-81781623D02*
X162276190Y-80781623D01*
X162276190Y-80781623D02*
X162180952Y-80924480D01*
X162180952Y-80924480D02*
X162085714Y-81019718D01*
X162085714Y-81019718D02*
X161990476Y-81067337D01*
X161291466Y-90488217D02*
X161291466Y-89726313D01*
X161672419Y-90107265D02*
X160910514Y-90107265D01*
X159557419Y-90106387D02*
X158557419Y-90106387D01*
X158938371Y-90106387D02*
X158890752Y-90011149D01*
X158890752Y-90011149D02*
X158890752Y-89820673D01*
X158890752Y-89820673D02*
X158938371Y-89725435D01*
X158938371Y-89725435D02*
X158985990Y-89677816D01*
X158985990Y-89677816D02*
X159081228Y-89630197D01*
X159081228Y-89630197D02*
X159366942Y-89630197D01*
X159366942Y-89630197D02*
X159462180Y-89677816D01*
X159462180Y-89677816D02*
X159509800Y-89725435D01*
X159509800Y-89725435D02*
X159557419Y-89820673D01*
X159557419Y-89820673D02*
X159557419Y-90011149D01*
X159557419Y-90011149D02*
X159509800Y-90106387D01*
X158890752Y-88773054D02*
X159557419Y-88773054D01*
X158890752Y-89201625D02*
X159414561Y-89201625D01*
X159414561Y-89201625D02*
X159509800Y-89154006D01*
X159509800Y-89154006D02*
X159557419Y-89058768D01*
X159557419Y-89058768D02*
X159557419Y-88915911D01*
X159557419Y-88915911D02*
X159509800Y-88820673D01*
X159509800Y-88820673D02*
X159462180Y-88773054D01*
X158890752Y-88392101D02*
X158890752Y-87868292D01*
X158890752Y-87868292D02*
X159557419Y-88392101D01*
X159557419Y-88392101D02*
X159557419Y-87868292D01*
X158890752Y-87582577D02*
X158890752Y-87058768D01*
X158890752Y-87058768D02*
X159557419Y-87582577D01*
X159557419Y-87582577D02*
X159557419Y-87058768D01*
X159509800Y-86296863D02*
X159557419Y-86392101D01*
X159557419Y-86392101D02*
X159557419Y-86582577D01*
X159557419Y-86582577D02*
X159509800Y-86677815D01*
X159509800Y-86677815D02*
X159414561Y-86725434D01*
X159414561Y-86725434D02*
X159033609Y-86725434D01*
X159033609Y-86725434D02*
X158938371Y-86677815D01*
X158938371Y-86677815D02*
X158890752Y-86582577D01*
X158890752Y-86582577D02*
X158890752Y-86392101D01*
X158890752Y-86392101D02*
X158938371Y-86296863D01*
X158938371Y-86296863D02*
X159033609Y-86249244D01*
X159033609Y-86249244D02*
X159128847Y-86249244D01*
X159128847Y-86249244D02*
X159224085Y-86725434D01*
X159557419Y-85820672D02*
X158890752Y-85820672D01*
X159081228Y-85820672D02*
X158985990Y-85773053D01*
X158985990Y-85773053D02*
X158938371Y-85725434D01*
X158938371Y-85725434D02*
X158890752Y-85630196D01*
X158890752Y-85630196D02*
X158890752Y-85534958D01*
D13*
X190166666Y-69754819D02*
X189833333Y-69278628D01*
X189595238Y-69754819D02*
X189595238Y-68754819D01*
X189595238Y-68754819D02*
X189976190Y-68754819D01*
X189976190Y-68754819D02*
X190071428Y-68802438D01*
X190071428Y-68802438D02*
X190119047Y-68850057D01*
X190119047Y-68850057D02*
X190166666Y-68945295D01*
X190166666Y-68945295D02*
X190166666Y-69088152D01*
X190166666Y-69088152D02*
X190119047Y-69183390D01*
X190119047Y-69183390D02*
X190071428Y-69231009D01*
X190071428Y-69231009D02*
X189976190Y-69278628D01*
X189976190Y-69278628D02*
X189595238Y-69278628D01*
X190595238Y-69231009D02*
X190928571Y-69231009D01*
X191071428Y-69754819D02*
X190595238Y-69754819D01*
X190595238Y-69754819D02*
X190595238Y-68754819D01*
X190595238Y-68754819D02*
X191071428Y-68754819D01*
X191833333Y-69231009D02*
X191500000Y-69231009D01*
X191500000Y-69754819D02*
X191500000Y-68754819D01*
X191500000Y-68754819D02*
X191976190Y-68754819D01*
X192500000Y-68754819D02*
X192500000Y-68992914D01*
X192261905Y-68897676D02*
X192500000Y-68992914D01*
X192500000Y-68992914D02*
X192738095Y-68897676D01*
X192357143Y-69183390D02*
X192500000Y-68992914D01*
X192500000Y-68992914D02*
X192642857Y-69183390D01*
X193261905Y-68754819D02*
X193261905Y-68992914D01*
X193023810Y-68897676D02*
X193261905Y-68992914D01*
X193261905Y-68992914D02*
X193500000Y-68897676D01*
X193119048Y-69183390D02*
X193261905Y-68992914D01*
X193261905Y-68992914D02*
X193404762Y-69183390D01*
D15*
X144738095Y-121086419D02*
X144738095Y-121895942D01*
X144738095Y-121895942D02*
X144785714Y-121991180D01*
X144785714Y-121991180D02*
X144833333Y-122038800D01*
X144833333Y-122038800D02*
X144928571Y-122086419D01*
X144928571Y-122086419D02*
X145119047Y-122086419D01*
X145119047Y-122086419D02*
X145214285Y-122038800D01*
X145214285Y-122038800D02*
X145261904Y-121991180D01*
X145261904Y-121991180D02*
X145309523Y-121895942D01*
X145309523Y-121895942D02*
X145309523Y-121086419D01*
X145738095Y-121181657D02*
X145785714Y-121134038D01*
X145785714Y-121134038D02*
X145880952Y-121086419D01*
X145880952Y-121086419D02*
X146119047Y-121086419D01*
X146119047Y-121086419D02*
X146214285Y-121134038D01*
X146214285Y-121134038D02*
X146261904Y-121181657D01*
X146261904Y-121181657D02*
X146309523Y-121276895D01*
X146309523Y-121276895D02*
X146309523Y-121372133D01*
X146309523Y-121372133D02*
X146261904Y-121514990D01*
X146261904Y-121514990D02*
X145690476Y-122086419D01*
X145690476Y-122086419D02*
X146309523Y-122086419D01*
X147486884Y-119501419D02*
X147486884Y-118501419D01*
X147963074Y-119501419D02*
X147963074Y-118501419D01*
X147963074Y-118501419D02*
X148534502Y-119501419D01*
X148534502Y-119501419D02*
X148534502Y-118501419D01*
X149010693Y-119120466D02*
X149772598Y-119120466D01*
X149391645Y-119501419D02*
X149391645Y-118739514D01*
X147486884Y-110251419D02*
X147486884Y-109251419D01*
X147963074Y-110251419D02*
X147963074Y-109251419D01*
X147963074Y-109251419D02*
X148534502Y-110251419D01*
X148534502Y-110251419D02*
X148534502Y-109251419D01*
X149010693Y-109870466D02*
X149772598Y-109870466D01*
X155927360Y-118501419D02*
X156117836Y-118501419D01*
X156117836Y-118501419D02*
X156213074Y-118549038D01*
X156213074Y-118549038D02*
X156308312Y-118644276D01*
X156308312Y-118644276D02*
X156355931Y-118834752D01*
X156355931Y-118834752D02*
X156355931Y-119168085D01*
X156355931Y-119168085D02*
X156308312Y-119358561D01*
X156308312Y-119358561D02*
X156213074Y-119453800D01*
X156213074Y-119453800D02*
X156117836Y-119501419D01*
X156117836Y-119501419D02*
X155927360Y-119501419D01*
X155927360Y-119501419D02*
X155832122Y-119453800D01*
X155832122Y-119453800D02*
X155736884Y-119358561D01*
X155736884Y-119358561D02*
X155689265Y-119168085D01*
X155689265Y-119168085D02*
X155689265Y-118834752D01*
X155689265Y-118834752D02*
X155736884Y-118644276D01*
X155736884Y-118644276D02*
X155832122Y-118549038D01*
X155832122Y-118549038D02*
X155927360Y-118501419D01*
X156784503Y-118501419D02*
X156784503Y-119310942D01*
X156784503Y-119310942D02*
X156832122Y-119406180D01*
X156832122Y-119406180D02*
X156879741Y-119453800D01*
X156879741Y-119453800D02*
X156974979Y-119501419D01*
X156974979Y-119501419D02*
X157165455Y-119501419D01*
X157165455Y-119501419D02*
X157260693Y-119453800D01*
X157260693Y-119453800D02*
X157308312Y-119406180D01*
X157308312Y-119406180D02*
X157355931Y-119310942D01*
X157355931Y-119310942D02*
X157355931Y-118501419D01*
X157689265Y-118501419D02*
X158260693Y-118501419D01*
X157974979Y-119501419D02*
X157974979Y-118501419D01*
X158594027Y-119120466D02*
X159355932Y-119120466D01*
X158974979Y-119501419D02*
X158974979Y-118739514D01*
X155927360Y-109251419D02*
X156117836Y-109251419D01*
X156117836Y-109251419D02*
X156213074Y-109299038D01*
X156213074Y-109299038D02*
X156308312Y-109394276D01*
X156308312Y-109394276D02*
X156355931Y-109584752D01*
X156355931Y-109584752D02*
X156355931Y-109918085D01*
X156355931Y-109918085D02*
X156308312Y-110108561D01*
X156308312Y-110108561D02*
X156213074Y-110203800D01*
X156213074Y-110203800D02*
X156117836Y-110251419D01*
X156117836Y-110251419D02*
X155927360Y-110251419D01*
X155927360Y-110251419D02*
X155832122Y-110203800D01*
X155832122Y-110203800D02*
X155736884Y-110108561D01*
X155736884Y-110108561D02*
X155689265Y-109918085D01*
X155689265Y-109918085D02*
X155689265Y-109584752D01*
X155689265Y-109584752D02*
X155736884Y-109394276D01*
X155736884Y-109394276D02*
X155832122Y-109299038D01*
X155832122Y-109299038D02*
X155927360Y-109251419D01*
X156784503Y-109251419D02*
X156784503Y-110060942D01*
X156784503Y-110060942D02*
X156832122Y-110156180D01*
X156832122Y-110156180D02*
X156879741Y-110203800D01*
X156879741Y-110203800D02*
X156974979Y-110251419D01*
X156974979Y-110251419D02*
X157165455Y-110251419D01*
X157165455Y-110251419D02*
X157260693Y-110203800D01*
X157260693Y-110203800D02*
X157308312Y-110156180D01*
X157308312Y-110156180D02*
X157355931Y-110060942D01*
X157355931Y-110060942D02*
X157355931Y-109251419D01*
X157689265Y-109251419D02*
X158260693Y-109251419D01*
X157974979Y-110251419D02*
X157974979Y-109251419D01*
X158594027Y-109870466D02*
X159355932Y-109870466D01*
X148075856Y-114826419D02*
X148075856Y-113826419D01*
X148075856Y-114207371D02*
X148171094Y-114159752D01*
X148171094Y-114159752D02*
X148361570Y-114159752D01*
X148361570Y-114159752D02*
X148456808Y-114207371D01*
X148456808Y-114207371D02*
X148504427Y-114254990D01*
X148504427Y-114254990D02*
X148552046Y-114350228D01*
X148552046Y-114350228D02*
X148552046Y-114635942D01*
X148552046Y-114635942D02*
X148504427Y-114731180D01*
X148504427Y-114731180D02*
X148456808Y-114778800D01*
X148456808Y-114778800D02*
X148361570Y-114826419D01*
X148361570Y-114826419D02*
X148171094Y-114826419D01*
X148171094Y-114826419D02*
X148075856Y-114778800D01*
X149409189Y-114159752D02*
X149409189Y-114826419D01*
X148980618Y-114159752D02*
X148980618Y-114683561D01*
X148980618Y-114683561D02*
X149028237Y-114778800D01*
X149028237Y-114778800D02*
X149123475Y-114826419D01*
X149123475Y-114826419D02*
X149266332Y-114826419D01*
X149266332Y-114826419D02*
X149361570Y-114778800D01*
X149361570Y-114778800D02*
X149409189Y-114731180D01*
X150313951Y-114778800D02*
X150218713Y-114826419D01*
X150218713Y-114826419D02*
X150028237Y-114826419D01*
X150028237Y-114826419D02*
X149932999Y-114778800D01*
X149932999Y-114778800D02*
X149885380Y-114731180D01*
X149885380Y-114731180D02*
X149837761Y-114635942D01*
X149837761Y-114635942D02*
X149837761Y-114350228D01*
X149837761Y-114350228D02*
X149885380Y-114254990D01*
X149885380Y-114254990D02*
X149932999Y-114207371D01*
X149932999Y-114207371D02*
X150028237Y-114159752D01*
X150028237Y-114159752D02*
X150218713Y-114159752D01*
X150218713Y-114159752D02*
X150313951Y-114207371D01*
X150742523Y-114826419D02*
X150742523Y-113826419D01*
X150837761Y-114445466D02*
X151123475Y-114826419D01*
X151123475Y-114159752D02*
X150742523Y-114540704D01*
X152742523Y-114778800D02*
X152647285Y-114826419D01*
X152647285Y-114826419D02*
X152456809Y-114826419D01*
X152456809Y-114826419D02*
X152361571Y-114778800D01*
X152361571Y-114778800D02*
X152313952Y-114731180D01*
X152313952Y-114731180D02*
X152266333Y-114635942D01*
X152266333Y-114635942D02*
X152266333Y-114350228D01*
X152266333Y-114350228D02*
X152313952Y-114254990D01*
X152313952Y-114254990D02*
X152361571Y-114207371D01*
X152361571Y-114207371D02*
X152456809Y-114159752D01*
X152456809Y-114159752D02*
X152647285Y-114159752D01*
X152647285Y-114159752D02*
X152742523Y-114207371D01*
X153313952Y-114826419D02*
X153218714Y-114778800D01*
X153218714Y-114778800D02*
X153171095Y-114731180D01*
X153171095Y-114731180D02*
X153123476Y-114635942D01*
X153123476Y-114635942D02*
X153123476Y-114350228D01*
X153123476Y-114350228D02*
X153171095Y-114254990D01*
X153171095Y-114254990D02*
X153218714Y-114207371D01*
X153218714Y-114207371D02*
X153313952Y-114159752D01*
X153313952Y-114159752D02*
X153456809Y-114159752D01*
X153456809Y-114159752D02*
X153552047Y-114207371D01*
X153552047Y-114207371D02*
X153599666Y-114254990D01*
X153599666Y-114254990D02*
X153647285Y-114350228D01*
X153647285Y-114350228D02*
X153647285Y-114635942D01*
X153647285Y-114635942D02*
X153599666Y-114731180D01*
X153599666Y-114731180D02*
X153552047Y-114778800D01*
X153552047Y-114778800D02*
X153456809Y-114826419D01*
X153456809Y-114826419D02*
X153313952Y-114826419D01*
X154075857Y-114159752D02*
X154075857Y-114826419D01*
X154075857Y-114254990D02*
X154123476Y-114207371D01*
X154123476Y-114207371D02*
X154218714Y-114159752D01*
X154218714Y-114159752D02*
X154361571Y-114159752D01*
X154361571Y-114159752D02*
X154456809Y-114207371D01*
X154456809Y-114207371D02*
X154504428Y-114302609D01*
X154504428Y-114302609D02*
X154504428Y-114826419D01*
X154885381Y-114159752D02*
X155123476Y-114826419D01*
X155123476Y-114826419D02*
X155361571Y-114159752D01*
X156123476Y-114778800D02*
X156028238Y-114826419D01*
X156028238Y-114826419D02*
X155837762Y-114826419D01*
X155837762Y-114826419D02*
X155742524Y-114778800D01*
X155742524Y-114778800D02*
X155694905Y-114683561D01*
X155694905Y-114683561D02*
X155694905Y-114302609D01*
X155694905Y-114302609D02*
X155742524Y-114207371D01*
X155742524Y-114207371D02*
X155837762Y-114159752D01*
X155837762Y-114159752D02*
X156028238Y-114159752D01*
X156028238Y-114159752D02*
X156123476Y-114207371D01*
X156123476Y-114207371D02*
X156171095Y-114302609D01*
X156171095Y-114302609D02*
X156171095Y-114397847D01*
X156171095Y-114397847D02*
X155694905Y-114493085D01*
X156599667Y-114826419D02*
X156599667Y-114159752D01*
X156599667Y-114350228D02*
X156647286Y-114254990D01*
X156647286Y-114254990D02*
X156694905Y-114207371D01*
X156694905Y-114207371D02*
X156790143Y-114159752D01*
X156790143Y-114159752D02*
X156885381Y-114159752D01*
X157075858Y-114159752D02*
X157456810Y-114159752D01*
X157218715Y-113826419D02*
X157218715Y-114683561D01*
X157218715Y-114683561D02*
X157266334Y-114778800D01*
X157266334Y-114778800D02*
X157361572Y-114826419D01*
X157361572Y-114826419D02*
X157456810Y-114826419D01*
X158171096Y-114778800D02*
X158075858Y-114826419D01*
X158075858Y-114826419D02*
X157885382Y-114826419D01*
X157885382Y-114826419D02*
X157790144Y-114778800D01*
X157790144Y-114778800D02*
X157742525Y-114683561D01*
X157742525Y-114683561D02*
X157742525Y-114302609D01*
X157742525Y-114302609D02*
X157790144Y-114207371D01*
X157790144Y-114207371D02*
X157885382Y-114159752D01*
X157885382Y-114159752D02*
X158075858Y-114159752D01*
X158075858Y-114159752D02*
X158171096Y-114207371D01*
X158171096Y-114207371D02*
X158218715Y-114302609D01*
X158218715Y-114302609D02*
X158218715Y-114397847D01*
X158218715Y-114397847D02*
X157742525Y-114493085D01*
X158647287Y-114826419D02*
X158647287Y-114159752D01*
X158647287Y-114350228D02*
X158694906Y-114254990D01*
X158694906Y-114254990D02*
X158742525Y-114207371D01*
X158742525Y-114207371D02*
X158837763Y-114159752D01*
X158837763Y-114159752D02*
X158933001Y-114159752D01*
D13*
X131511905Y-109454819D02*
X131511905Y-108454819D01*
X131511905Y-108454819D02*
X131750000Y-108454819D01*
X131750000Y-108454819D02*
X131892857Y-108502438D01*
X131892857Y-108502438D02*
X131988095Y-108597676D01*
X131988095Y-108597676D02*
X132035714Y-108692914D01*
X132035714Y-108692914D02*
X132083333Y-108883390D01*
X132083333Y-108883390D02*
X132083333Y-109026247D01*
X132083333Y-109026247D02*
X132035714Y-109216723D01*
X132035714Y-109216723D02*
X131988095Y-109311961D01*
X131988095Y-109311961D02*
X131892857Y-109407200D01*
X131892857Y-109407200D02*
X131750000Y-109454819D01*
X131750000Y-109454819D02*
X131511905Y-109454819D01*
X132416667Y-108454819D02*
X133035714Y-108454819D01*
X133035714Y-108454819D02*
X132702381Y-108835771D01*
X132702381Y-108835771D02*
X132845238Y-108835771D01*
X132845238Y-108835771D02*
X132940476Y-108883390D01*
X132940476Y-108883390D02*
X132988095Y-108931009D01*
X132988095Y-108931009D02*
X133035714Y-109026247D01*
X133035714Y-109026247D02*
X133035714Y-109264342D01*
X133035714Y-109264342D02*
X132988095Y-109359580D01*
X132988095Y-109359580D02*
X132940476Y-109407200D01*
X132940476Y-109407200D02*
X132845238Y-109454819D01*
X132845238Y-109454819D02*
X132559524Y-109454819D01*
X132559524Y-109454819D02*
X132464286Y-109407200D01*
X132464286Y-109407200D02*
X132416667Y-109359580D01*
X136725819Y-114926428D02*
X136725819Y-115497856D01*
X136725819Y-115212142D02*
X135725819Y-115212142D01*
X135725819Y-115212142D02*
X135868676Y-115307380D01*
X135868676Y-115307380D02*
X135963914Y-115402618D01*
X135963914Y-115402618D02*
X136011533Y-115497856D01*
X136725819Y-114497856D02*
X135725819Y-114497856D01*
X135725819Y-114497856D02*
X136725819Y-113926428D01*
X136725819Y-113926428D02*
X135725819Y-113926428D01*
X135725819Y-113021666D02*
X135725819Y-113212142D01*
X135725819Y-113212142D02*
X135773438Y-113307380D01*
X135773438Y-113307380D02*
X135821057Y-113354999D01*
X135821057Y-113354999D02*
X135963914Y-113450237D01*
X135963914Y-113450237D02*
X136154390Y-113497856D01*
X136154390Y-113497856D02*
X136535342Y-113497856D01*
X136535342Y-113497856D02*
X136630580Y-113450237D01*
X136630580Y-113450237D02*
X136678200Y-113402618D01*
X136678200Y-113402618D02*
X136725819Y-113307380D01*
X136725819Y-113307380D02*
X136725819Y-113116904D01*
X136725819Y-113116904D02*
X136678200Y-113021666D01*
X136678200Y-113021666D02*
X136630580Y-112974047D01*
X136630580Y-112974047D02*
X136535342Y-112926428D01*
X136535342Y-112926428D02*
X136297247Y-112926428D01*
X136297247Y-112926428D02*
X136202009Y-112974047D01*
X136202009Y-112974047D02*
X136154390Y-113021666D01*
X136154390Y-113021666D02*
X136106771Y-113116904D01*
X136106771Y-113116904D02*
X136106771Y-113307380D01*
X136106771Y-113307380D02*
X136154390Y-113402618D01*
X136154390Y-113402618D02*
X136202009Y-113450237D01*
X136202009Y-113450237D02*
X136297247Y-113497856D01*
X135821057Y-112545475D02*
X135773438Y-112497856D01*
X135773438Y-112497856D02*
X135725819Y-112402618D01*
X135725819Y-112402618D02*
X135725819Y-112164523D01*
X135725819Y-112164523D02*
X135773438Y-112069285D01*
X135773438Y-112069285D02*
X135821057Y-112021666D01*
X135821057Y-112021666D02*
X135916295Y-111974047D01*
X135916295Y-111974047D02*
X136011533Y-111974047D01*
X136011533Y-111974047D02*
X136154390Y-112021666D01*
X136154390Y-112021666D02*
X136725819Y-112593094D01*
X136725819Y-112593094D02*
X136725819Y-111974047D01*
X136154390Y-111402618D02*
X136106771Y-111497856D01*
X136106771Y-111497856D02*
X136059152Y-111545475D01*
X136059152Y-111545475D02*
X135963914Y-111593094D01*
X135963914Y-111593094D02*
X135916295Y-111593094D01*
X135916295Y-111593094D02*
X135821057Y-111545475D01*
X135821057Y-111545475D02*
X135773438Y-111497856D01*
X135773438Y-111497856D02*
X135725819Y-111402618D01*
X135725819Y-111402618D02*
X135725819Y-111212142D01*
X135725819Y-111212142D02*
X135773438Y-111116904D01*
X135773438Y-111116904D02*
X135821057Y-111069285D01*
X135821057Y-111069285D02*
X135916295Y-111021666D01*
X135916295Y-111021666D02*
X135963914Y-111021666D01*
X135963914Y-111021666D02*
X136059152Y-111069285D01*
X136059152Y-111069285D02*
X136106771Y-111116904D01*
X136106771Y-111116904D02*
X136154390Y-111212142D01*
X136154390Y-111212142D02*
X136154390Y-111402618D01*
X136154390Y-111402618D02*
X136202009Y-111497856D01*
X136202009Y-111497856D02*
X136249628Y-111545475D01*
X136249628Y-111545475D02*
X136344866Y-111593094D01*
X136344866Y-111593094D02*
X136535342Y-111593094D01*
X136535342Y-111593094D02*
X136630580Y-111545475D01*
X136630580Y-111545475D02*
X136678200Y-111497856D01*
X136678200Y-111497856D02*
X136725819Y-111402618D01*
X136725819Y-111402618D02*
X136725819Y-111212142D01*
X136725819Y-111212142D02*
X136678200Y-111116904D01*
X136678200Y-111116904D02*
X136630580Y-111069285D01*
X136630580Y-111069285D02*
X136535342Y-111021666D01*
X136535342Y-111021666D02*
X136344866Y-111021666D01*
X136344866Y-111021666D02*
X136249628Y-111069285D01*
X136249628Y-111069285D02*
X136202009Y-111116904D01*
X136202009Y-111116904D02*
X136154390Y-111212142D01*
X135725819Y-110402618D02*
X135725819Y-110307380D01*
X135725819Y-110307380D02*
X135773438Y-110212142D01*
X135773438Y-110212142D02*
X135821057Y-110164523D01*
X135821057Y-110164523D02*
X135916295Y-110116904D01*
X135916295Y-110116904D02*
X136106771Y-110069285D01*
X136106771Y-110069285D02*
X136344866Y-110069285D01*
X136344866Y-110069285D02*
X136535342Y-110116904D01*
X136535342Y-110116904D02*
X136630580Y-110164523D01*
X136630580Y-110164523D02*
X136678200Y-110212142D01*
X136678200Y-110212142D02*
X136725819Y-110307380D01*
X136725819Y-110307380D02*
X136725819Y-110402618D01*
X136725819Y-110402618D02*
X136678200Y-110497856D01*
X136678200Y-110497856D02*
X136630580Y-110545475D01*
X136630580Y-110545475D02*
X136535342Y-110593094D01*
X136535342Y-110593094D02*
X136344866Y-110640713D01*
X136344866Y-110640713D02*
X136106771Y-110640713D01*
X136106771Y-110640713D02*
X135916295Y-110593094D01*
X135916295Y-110593094D02*
X135821057Y-110545475D01*
X135821057Y-110545475D02*
X135773438Y-110497856D01*
X135773438Y-110497856D02*
X135725819Y-110402618D01*
X136440104Y-109688332D02*
X136440104Y-109212142D01*
X136725819Y-109783570D02*
X135725819Y-109450237D01*
X135725819Y-109450237D02*
X136725819Y-109116904D01*
X134425819Y-120911904D02*
X133425819Y-120911904D01*
X134425819Y-120340476D02*
X133854390Y-120769047D01*
X133425819Y-120340476D02*
X133997247Y-120911904D01*
X122166666Y-117754819D02*
X121833333Y-117278628D01*
X121595238Y-117754819D02*
X121595238Y-116754819D01*
X121595238Y-116754819D02*
X121976190Y-116754819D01*
X121976190Y-116754819D02*
X122071428Y-116802438D01*
X122071428Y-116802438D02*
X122119047Y-116850057D01*
X122119047Y-116850057D02*
X122166666Y-116945295D01*
X122166666Y-116945295D02*
X122166666Y-117088152D01*
X122166666Y-117088152D02*
X122119047Y-117183390D01*
X122119047Y-117183390D02*
X122071428Y-117231009D01*
X122071428Y-117231009D02*
X121976190Y-117278628D01*
X121976190Y-117278628D02*
X121595238Y-117278628D01*
X122595238Y-117231009D02*
X122928571Y-117231009D01*
X123071428Y-117754819D02*
X122595238Y-117754819D01*
X122595238Y-117754819D02*
X122595238Y-116754819D01*
X122595238Y-116754819D02*
X123071428Y-116754819D01*
X123833333Y-117231009D02*
X123500000Y-117231009D01*
X123500000Y-117754819D02*
X123500000Y-116754819D01*
X123500000Y-116754819D02*
X123976190Y-116754819D01*
X124500000Y-116754819D02*
X124500000Y-116992914D01*
X124261905Y-116897676D02*
X124500000Y-116992914D01*
X124500000Y-116992914D02*
X124738095Y-116897676D01*
X124357143Y-117183390D02*
X124500000Y-116992914D01*
X124500000Y-116992914D02*
X124642857Y-117183390D01*
X125261905Y-116754819D02*
X125261905Y-116992914D01*
X125023810Y-116897676D02*
X125261905Y-116992914D01*
X125261905Y-116992914D02*
X125500000Y-116897676D01*
X125119048Y-117183390D02*
X125261905Y-116992914D01*
X125261905Y-116992914D02*
X125404762Y-117183390D01*
D15*
X166646266Y-116648609D02*
X166312933Y-116648609D01*
X166312933Y-117172419D02*
X166312933Y-116172419D01*
X166312933Y-116172419D02*
X166789123Y-116172419D01*
X167693885Y-117172419D02*
X167122457Y-117172419D01*
X167408171Y-117172419D02*
X167408171Y-116172419D01*
X167408171Y-116172419D02*
X167312933Y-116315276D01*
X167312933Y-116315276D02*
X167217695Y-116410514D01*
X167217695Y-116410514D02*
X167122457Y-116458133D01*
X174290552Y-110790752D02*
X174671504Y-110790752D01*
X174433409Y-111457419D02*
X174433409Y-110600276D01*
X174433409Y-110600276D02*
X174481028Y-110505038D01*
X174481028Y-110505038D02*
X174576266Y-110457419D01*
X174576266Y-110457419D02*
X174671504Y-110457419D01*
X175433409Y-110790752D02*
X175433409Y-111457419D01*
X175004838Y-110790752D02*
X175004838Y-111314561D01*
X175004838Y-111314561D02*
X175052457Y-111409800D01*
X175052457Y-111409800D02*
X175147695Y-111457419D01*
X175147695Y-111457419D02*
X175290552Y-111457419D01*
X175290552Y-111457419D02*
X175385790Y-111409800D01*
X175385790Y-111409800D02*
X175433409Y-111362180D01*
X175861981Y-111409800D02*
X175957219Y-111457419D01*
X175957219Y-111457419D02*
X176147695Y-111457419D01*
X176147695Y-111457419D02*
X176242933Y-111409800D01*
X176242933Y-111409800D02*
X176290552Y-111314561D01*
X176290552Y-111314561D02*
X176290552Y-111266942D01*
X176290552Y-111266942D02*
X176242933Y-111171704D01*
X176242933Y-111171704D02*
X176147695Y-111124085D01*
X176147695Y-111124085D02*
X176004838Y-111124085D01*
X176004838Y-111124085D02*
X175909600Y-111076466D01*
X175909600Y-111076466D02*
X175861981Y-110981228D01*
X175861981Y-110981228D02*
X175861981Y-110933609D01*
X175861981Y-110933609D02*
X175909600Y-110838371D01*
X175909600Y-110838371D02*
X176004838Y-110790752D01*
X176004838Y-110790752D02*
X176147695Y-110790752D01*
X176147695Y-110790752D02*
X176242933Y-110838371D01*
X177100076Y-111409800D02*
X177004838Y-111457419D01*
X177004838Y-111457419D02*
X176814362Y-111457419D01*
X176814362Y-111457419D02*
X176719124Y-111409800D01*
X176719124Y-111409800D02*
X176671505Y-111314561D01*
X176671505Y-111314561D02*
X176671505Y-110933609D01*
X176671505Y-110933609D02*
X176719124Y-110838371D01*
X176719124Y-110838371D02*
X176814362Y-110790752D01*
X176814362Y-110790752D02*
X177004838Y-110790752D01*
X177004838Y-110790752D02*
X177100076Y-110838371D01*
X177100076Y-110838371D02*
X177147695Y-110933609D01*
X177147695Y-110933609D02*
X177147695Y-111028847D01*
X177147695Y-111028847D02*
X176671505Y-111124085D01*
X178766743Y-111409800D02*
X178671505Y-111457419D01*
X178671505Y-111457419D02*
X178481029Y-111457419D01*
X178481029Y-111457419D02*
X178385791Y-111409800D01*
X178385791Y-111409800D02*
X178338172Y-111362180D01*
X178338172Y-111362180D02*
X178290553Y-111266942D01*
X178290553Y-111266942D02*
X178290553Y-110981228D01*
X178290553Y-110981228D02*
X178338172Y-110885990D01*
X178338172Y-110885990D02*
X178385791Y-110838371D01*
X178385791Y-110838371D02*
X178481029Y-110790752D01*
X178481029Y-110790752D02*
X178671505Y-110790752D01*
X178671505Y-110790752D02*
X178766743Y-110838371D01*
X179338172Y-111457419D02*
X179242934Y-111409800D01*
X179242934Y-111409800D02*
X179195315Y-111314561D01*
X179195315Y-111314561D02*
X179195315Y-110457419D01*
X180147696Y-111457419D02*
X180147696Y-110933609D01*
X180147696Y-110933609D02*
X180100077Y-110838371D01*
X180100077Y-110838371D02*
X180004839Y-110790752D01*
X180004839Y-110790752D02*
X179814363Y-110790752D01*
X179814363Y-110790752D02*
X179719125Y-110838371D01*
X180147696Y-111409800D02*
X180052458Y-111457419D01*
X180052458Y-111457419D02*
X179814363Y-111457419D01*
X179814363Y-111457419D02*
X179719125Y-111409800D01*
X179719125Y-111409800D02*
X179671506Y-111314561D01*
X179671506Y-111314561D02*
X179671506Y-111219323D01*
X179671506Y-111219323D02*
X179719125Y-111124085D01*
X179719125Y-111124085D02*
X179814363Y-111076466D01*
X179814363Y-111076466D02*
X180052458Y-111076466D01*
X180052458Y-111076466D02*
X180147696Y-111028847D01*
X180623887Y-111457419D02*
X180623887Y-110790752D01*
X180623887Y-110885990D02*
X180671506Y-110838371D01*
X180671506Y-110838371D02*
X180766744Y-110790752D01*
X180766744Y-110790752D02*
X180909601Y-110790752D01*
X180909601Y-110790752D02*
X181004839Y-110838371D01*
X181004839Y-110838371D02*
X181052458Y-110933609D01*
X181052458Y-110933609D02*
X181052458Y-111457419D01*
X181052458Y-110933609D02*
X181100077Y-110838371D01*
X181100077Y-110838371D02*
X181195315Y-110790752D01*
X181195315Y-110790752D02*
X181338172Y-110790752D01*
X181338172Y-110790752D02*
X181433411Y-110838371D01*
X181433411Y-110838371D02*
X181481030Y-110933609D01*
X181481030Y-110933609D02*
X181481030Y-111457419D01*
X181957220Y-110790752D02*
X181957220Y-111790752D01*
X181957220Y-110838371D02*
X182052458Y-110790752D01*
X182052458Y-110790752D02*
X182242934Y-110790752D01*
X182242934Y-110790752D02*
X182338172Y-110838371D01*
X182338172Y-110838371D02*
X182385791Y-110885990D01*
X182385791Y-110885990D02*
X182433410Y-110981228D01*
X182433410Y-110981228D02*
X182433410Y-111266942D01*
X182433410Y-111266942D02*
X182385791Y-111362180D01*
X182385791Y-111362180D02*
X182338172Y-111409800D01*
X182338172Y-111409800D02*
X182242934Y-111457419D01*
X182242934Y-111457419D02*
X182052458Y-111457419D01*
X182052458Y-111457419D02*
X181957220Y-111409800D01*
D13*
X190166666Y-117754819D02*
X189833333Y-117278628D01*
X189595238Y-117754819D02*
X189595238Y-116754819D01*
X189595238Y-116754819D02*
X189976190Y-116754819D01*
X189976190Y-116754819D02*
X190071428Y-116802438D01*
X190071428Y-116802438D02*
X190119047Y-116850057D01*
X190119047Y-116850057D02*
X190166666Y-116945295D01*
X190166666Y-116945295D02*
X190166666Y-117088152D01*
X190166666Y-117088152D02*
X190119047Y-117183390D01*
X190119047Y-117183390D02*
X190071428Y-117231009D01*
X190071428Y-117231009D02*
X189976190Y-117278628D01*
X189976190Y-117278628D02*
X189595238Y-117278628D01*
X190595238Y-117231009D02*
X190928571Y-117231009D01*
X191071428Y-117754819D02*
X190595238Y-117754819D01*
X190595238Y-117754819D02*
X190595238Y-116754819D01*
X190595238Y-116754819D02*
X191071428Y-116754819D01*
X191833333Y-117231009D02*
X191500000Y-117231009D01*
X191500000Y-117754819D02*
X191500000Y-116754819D01*
X191500000Y-116754819D02*
X191976190Y-116754819D01*
X192500000Y-116754819D02*
X192500000Y-116992914D01*
X192261905Y-116897676D02*
X192500000Y-116992914D01*
X192500000Y-116992914D02*
X192738095Y-116897676D01*
X192357143Y-117183390D02*
X192500000Y-116992914D01*
X192500000Y-116992914D02*
X192642857Y-117183390D01*
X193261905Y-116754819D02*
X193261905Y-116992914D01*
X193023810Y-116897676D02*
X193261905Y-116992914D01*
X193261905Y-116992914D02*
X193500000Y-116897676D01*
X193119048Y-117183390D02*
X193261905Y-116992914D01*
X193261905Y-116992914D02*
X193404762Y-117183390D01*
X175265333Y-98169580D02*
X175217714Y-98217200D01*
X175217714Y-98217200D02*
X175074857Y-98264819D01*
X175074857Y-98264819D02*
X174979619Y-98264819D01*
X174979619Y-98264819D02*
X174836762Y-98217200D01*
X174836762Y-98217200D02*
X174741524Y-98121961D01*
X174741524Y-98121961D02*
X174693905Y-98026723D01*
X174693905Y-98026723D02*
X174646286Y-97836247D01*
X174646286Y-97836247D02*
X174646286Y-97693390D01*
X174646286Y-97693390D02*
X174693905Y-97502914D01*
X174693905Y-97502914D02*
X174741524Y-97407676D01*
X174741524Y-97407676D02*
X174836762Y-97312438D01*
X174836762Y-97312438D02*
X174979619Y-97264819D01*
X174979619Y-97264819D02*
X175074857Y-97264819D01*
X175074857Y-97264819D02*
X175217714Y-97312438D01*
X175217714Y-97312438D02*
X175265333Y-97360057D01*
X176217714Y-98264819D02*
X175646286Y-98264819D01*
X175932000Y-98264819D02*
X175932000Y-97264819D01*
X175932000Y-97264819D02*
X175836762Y-97407676D01*
X175836762Y-97407676D02*
X175741524Y-97502914D01*
X175741524Y-97502914D02*
X175646286Y-97550533D01*
X145092866Y-88243549D02*
X145426199Y-88243549D01*
X145569056Y-88767359D02*
X145092866Y-88767359D01*
X145092866Y-88767359D02*
X145092866Y-87767359D01*
X145092866Y-87767359D02*
X145569056Y-87767359D01*
X145950009Y-88719740D02*
X146092866Y-88767359D01*
X146092866Y-88767359D02*
X146330961Y-88767359D01*
X146330961Y-88767359D02*
X146426199Y-88719740D01*
X146426199Y-88719740D02*
X146473818Y-88672120D01*
X146473818Y-88672120D02*
X146521437Y-88576882D01*
X146521437Y-88576882D02*
X146521437Y-88481644D01*
X146521437Y-88481644D02*
X146473818Y-88386406D01*
X146473818Y-88386406D02*
X146426199Y-88338787D01*
X146426199Y-88338787D02*
X146330961Y-88291168D01*
X146330961Y-88291168D02*
X146140485Y-88243549D01*
X146140485Y-88243549D02*
X146045247Y-88195930D01*
X146045247Y-88195930D02*
X145997628Y-88148311D01*
X145997628Y-88148311D02*
X145950009Y-88053073D01*
X145950009Y-88053073D02*
X145950009Y-87957835D01*
X145950009Y-87957835D02*
X145997628Y-87862597D01*
X145997628Y-87862597D02*
X146045247Y-87814978D01*
X146045247Y-87814978D02*
X146140485Y-87767359D01*
X146140485Y-87767359D02*
X146378580Y-87767359D01*
X146378580Y-87767359D02*
X146521437Y-87814978D01*
X146950009Y-88767359D02*
X146950009Y-87767359D01*
X146950009Y-87767359D02*
X147330961Y-87767359D01*
X147330961Y-87767359D02*
X147426199Y-87814978D01*
X147426199Y-87814978D02*
X147473818Y-87862597D01*
X147473818Y-87862597D02*
X147521437Y-87957835D01*
X147521437Y-87957835D02*
X147521437Y-88100692D01*
X147521437Y-88100692D02*
X147473818Y-88195930D01*
X147473818Y-88195930D02*
X147426199Y-88243549D01*
X147426199Y-88243549D02*
X147330961Y-88291168D01*
X147330961Y-88291168D02*
X146950009Y-88291168D01*
X147854771Y-87767359D02*
X148473818Y-87767359D01*
X148473818Y-87767359D02*
X148140485Y-88148311D01*
X148140485Y-88148311D02*
X148283342Y-88148311D01*
X148283342Y-88148311D02*
X148378580Y-88195930D01*
X148378580Y-88195930D02*
X148426199Y-88243549D01*
X148426199Y-88243549D02*
X148473818Y-88338787D01*
X148473818Y-88338787D02*
X148473818Y-88576882D01*
X148473818Y-88576882D02*
X148426199Y-88672120D01*
X148426199Y-88672120D02*
X148378580Y-88719740D01*
X148378580Y-88719740D02*
X148283342Y-88767359D01*
X148283342Y-88767359D02*
X147997628Y-88767359D01*
X147997628Y-88767359D02*
X147902390Y-88719740D01*
X147902390Y-88719740D02*
X147854771Y-88672120D01*
X148854771Y-87862597D02*
X148902390Y-87814978D01*
X148902390Y-87814978D02*
X148997628Y-87767359D01*
X148997628Y-87767359D02*
X149235723Y-87767359D01*
X149235723Y-87767359D02*
X149330961Y-87814978D01*
X149330961Y-87814978D02*
X149378580Y-87862597D01*
X149378580Y-87862597D02*
X149426199Y-87957835D01*
X149426199Y-87957835D02*
X149426199Y-88053073D01*
X149426199Y-88053073D02*
X149378580Y-88195930D01*
X149378580Y-88195930D02*
X148807152Y-88767359D01*
X148807152Y-88767359D02*
X149426199Y-88767359D01*
D15*
X140608403Y-98454703D02*
X141236975Y-98454703D01*
X140922689Y-98454703D02*
X140922689Y-99454703D01*
X140922689Y-99454703D02*
X141027451Y-99311846D01*
X141027451Y-99311846D02*
X141132213Y-99216608D01*
X141132213Y-99216608D02*
X141236975Y-99168989D01*
X139560784Y-98454703D02*
X140189356Y-98454703D01*
X139875070Y-98454703D02*
X139875070Y-99454703D01*
X139875070Y-99454703D02*
X139979832Y-99311846D01*
X139979832Y-99311846D02*
X140084594Y-99216608D01*
X140084594Y-99216608D02*
X140189356Y-99168989D01*
X130448403Y-98454703D02*
X131076975Y-98454703D01*
X130762689Y-98454703D02*
X130762689Y-99454703D01*
X130762689Y-99454703D02*
X130867451Y-99311846D01*
X130867451Y-99311846D02*
X130972213Y-99216608D01*
X130972213Y-99216608D02*
X131076975Y-99168989D01*
X129453165Y-99454703D02*
X129976975Y-99454703D01*
X129976975Y-99454703D02*
X130029356Y-98978513D01*
X130029356Y-98978513D02*
X129976975Y-99026132D01*
X129976975Y-99026132D02*
X129872213Y-99073751D01*
X129872213Y-99073751D02*
X129610308Y-99073751D01*
X129610308Y-99073751D02*
X129505546Y-99026132D01*
X129505546Y-99026132D02*
X129453165Y-98978513D01*
X129453165Y-98978513D02*
X129400784Y-98883275D01*
X129400784Y-98883275D02*
X129400784Y-98645180D01*
X129400784Y-98645180D02*
X129453165Y-98549942D01*
X129453165Y-98549942D02*
X129505546Y-98502323D01*
X129505546Y-98502323D02*
X129610308Y-98454703D01*
X129610308Y-98454703D02*
X129872213Y-98454703D01*
X129872213Y-98454703D02*
X129976975Y-98502323D01*
X129976975Y-98502323D02*
X130029356Y-98549942D01*
X145805958Y-78151051D02*
X145753577Y-78198670D01*
X145753577Y-78198670D02*
X145648815Y-78246289D01*
X145648815Y-78246289D02*
X145386910Y-78246289D01*
X145386910Y-78246289D02*
X145282148Y-78198670D01*
X145282148Y-78198670D02*
X145229767Y-78151051D01*
X145229767Y-78151051D02*
X145177386Y-78055813D01*
X145177386Y-78055813D02*
X145177386Y-77960575D01*
X145177386Y-77960575D02*
X145229767Y-77817718D01*
X145229767Y-77817718D02*
X145858339Y-77246289D01*
X145858339Y-77246289D02*
X145177386Y-77246289D01*
X144758339Y-78151051D02*
X144705958Y-78198670D01*
X144705958Y-78198670D02*
X144601196Y-78246289D01*
X144601196Y-78246289D02*
X144339291Y-78246289D01*
X144339291Y-78246289D02*
X144234529Y-78198670D01*
X144234529Y-78198670D02*
X144182148Y-78151051D01*
X144182148Y-78151051D02*
X144129767Y-78055813D01*
X144129767Y-78055813D02*
X144129767Y-77960575D01*
X144129767Y-77960575D02*
X144182148Y-77817718D01*
X144182148Y-77817718D02*
X144810720Y-77246289D01*
X144810720Y-77246289D02*
X144129767Y-77246289D01*
X163548675Y-99298472D02*
X163496294Y-99346091D01*
X163496294Y-99346091D02*
X163391532Y-99393710D01*
X163391532Y-99393710D02*
X163129627Y-99393710D01*
X163129627Y-99393710D02*
X163024865Y-99346091D01*
X163024865Y-99346091D02*
X162972484Y-99298472D01*
X162972484Y-99298472D02*
X162920103Y-99203234D01*
X162920103Y-99203234D02*
X162920103Y-99107996D01*
X162920103Y-99107996D02*
X162972484Y-98965139D01*
X162972484Y-98965139D02*
X163601056Y-98393710D01*
X163601056Y-98393710D02*
X162920103Y-98393710D01*
X152864865Y-99393710D02*
X153074389Y-99393710D01*
X153074389Y-99393710D02*
X153179151Y-99346091D01*
X153179151Y-99346091D02*
X153231532Y-99298472D01*
X153231532Y-99298472D02*
X153336294Y-99155615D01*
X153336294Y-99155615D02*
X153388675Y-98965139D01*
X153388675Y-98965139D02*
X153388675Y-98584187D01*
X153388675Y-98584187D02*
X153336294Y-98488949D01*
X153336294Y-98488949D02*
X153283913Y-98441330D01*
X153283913Y-98441330D02*
X153179151Y-98393710D01*
X153179151Y-98393710D02*
X152969627Y-98393710D01*
X152969627Y-98393710D02*
X152864865Y-98441330D01*
X152864865Y-98441330D02*
X152812484Y-98488949D01*
X152812484Y-98488949D02*
X152760103Y-98584187D01*
X152760103Y-98584187D02*
X152760103Y-98822282D01*
X152760103Y-98822282D02*
X152812484Y-98917520D01*
X152812484Y-98917520D02*
X152864865Y-98965139D01*
X152864865Y-98965139D02*
X152969627Y-99012758D01*
X152969627Y-99012758D02*
X153179151Y-99012758D01*
X153179151Y-99012758D02*
X153283913Y-98965139D01*
X153283913Y-98965139D02*
X153336294Y-98917520D01*
X153336294Y-98917520D02*
X153388675Y-98822282D01*
X143148403Y-98454703D02*
X143776975Y-98454703D01*
X143462689Y-98454703D02*
X143462689Y-99454703D01*
X143462689Y-99454703D02*
X143567451Y-99311846D01*
X143567451Y-99311846D02*
X143672213Y-99216608D01*
X143672213Y-99216608D02*
X143776975Y-99168989D01*
X142467451Y-99454703D02*
X142362689Y-99454703D01*
X142362689Y-99454703D02*
X142257927Y-99407084D01*
X142257927Y-99407084D02*
X142205546Y-99359465D01*
X142205546Y-99359465D02*
X142153165Y-99264227D01*
X142153165Y-99264227D02*
X142100784Y-99073751D01*
X142100784Y-99073751D02*
X142100784Y-98835656D01*
X142100784Y-98835656D02*
X142153165Y-98645180D01*
X142153165Y-98645180D02*
X142205546Y-98549942D01*
X142205546Y-98549942D02*
X142257927Y-98502323D01*
X142257927Y-98502323D02*
X142362689Y-98454703D01*
X142362689Y-98454703D02*
X142467451Y-98454703D01*
X142467451Y-98454703D02*
X142572213Y-98502323D01*
X142572213Y-98502323D02*
X142624594Y-98549942D01*
X142624594Y-98549942D02*
X142676975Y-98645180D01*
X142676975Y-98645180D02*
X142729356Y-98835656D01*
X142729356Y-98835656D02*
X142729356Y-99073751D01*
X142729356Y-99073751D02*
X142676975Y-99264227D01*
X142676975Y-99264227D02*
X142624594Y-99359465D01*
X142624594Y-99359465D02*
X142572213Y-99407084D01*
X142572213Y-99407084D02*
X142467451Y-99454703D01*
X132988403Y-98454703D02*
X133616975Y-98454703D01*
X133302689Y-98454703D02*
X133302689Y-99454703D01*
X133302689Y-99454703D02*
X133407451Y-99311846D01*
X133407451Y-99311846D02*
X133512213Y-99216608D01*
X133512213Y-99216608D02*
X133616975Y-99168989D01*
X132045546Y-99121370D02*
X132045546Y-98454703D01*
X132307451Y-99502323D02*
X132569356Y-98788037D01*
X132569356Y-98788037D02*
X131888403Y-98788037D01*
X161061056Y-99393710D02*
X160380103Y-99393710D01*
X160380103Y-99393710D02*
X160746770Y-99012758D01*
X160746770Y-99012758D02*
X160589627Y-99012758D01*
X160589627Y-99012758D02*
X160484865Y-98965139D01*
X160484865Y-98965139D02*
X160432484Y-98917520D01*
X160432484Y-98917520D02*
X160380103Y-98822282D01*
X160380103Y-98822282D02*
X160380103Y-98584187D01*
X160380103Y-98584187D02*
X160432484Y-98488949D01*
X160432484Y-98488949D02*
X160484865Y-98441330D01*
X160484865Y-98441330D02*
X160589627Y-98393710D01*
X160589627Y-98393710D02*
X160903913Y-98393710D01*
X160903913Y-98393710D02*
X161008675Y-98441330D01*
X161008675Y-98441330D02*
X161061056Y-98488949D01*
X137557386Y-77246289D02*
X138185958Y-77246289D01*
X137871672Y-77246289D02*
X137871672Y-78246289D01*
X137871672Y-78246289D02*
X137976434Y-78103432D01*
X137976434Y-78103432D02*
X138081196Y-78008194D01*
X138081196Y-78008194D02*
X138185958Y-77960575D01*
X137033577Y-77246289D02*
X136824053Y-77246289D01*
X136824053Y-77246289D02*
X136719291Y-77293909D01*
X136719291Y-77293909D02*
X136666910Y-77341528D01*
X136666910Y-77341528D02*
X136562148Y-77484385D01*
X136562148Y-77484385D02*
X136509767Y-77674861D01*
X136509767Y-77674861D02*
X136509767Y-78055813D01*
X136509767Y-78055813D02*
X136562148Y-78151051D01*
X136562148Y-78151051D02*
X136614529Y-78198670D01*
X136614529Y-78198670D02*
X136719291Y-78246289D01*
X136719291Y-78246289D02*
X136928815Y-78246289D01*
X136928815Y-78246289D02*
X137033577Y-78198670D01*
X137033577Y-78198670D02*
X137085958Y-78151051D01*
X137085958Y-78151051D02*
X137138339Y-78055813D01*
X137138339Y-78055813D02*
X137138339Y-77817718D01*
X137138339Y-77817718D02*
X137085958Y-77722480D01*
X137085958Y-77722480D02*
X137033577Y-77674861D01*
X137033577Y-77674861D02*
X136928815Y-77627242D01*
X136928815Y-77627242D02*
X136719291Y-77627242D01*
X136719291Y-77627242D02*
X136614529Y-77674861D01*
X136614529Y-77674861D02*
X136562148Y-77722480D01*
X136562148Y-77722480D02*
X136509767Y-77817718D01*
X158405004Y-78095799D02*
X158352623Y-78143418D01*
X158352623Y-78143418D02*
X158247861Y-78191037D01*
X158247861Y-78191037D02*
X157985956Y-78191037D01*
X157985956Y-78191037D02*
X157881194Y-78143418D01*
X157881194Y-78143418D02*
X157828813Y-78095799D01*
X157828813Y-78095799D02*
X157776432Y-78000561D01*
X157776432Y-78000561D02*
X157776432Y-77905323D01*
X157776432Y-77905323D02*
X157828813Y-77762466D01*
X157828813Y-77762466D02*
X158457385Y-77191037D01*
X158457385Y-77191037D02*
X157776432Y-77191037D01*
X157409766Y-78191037D02*
X156676432Y-78191037D01*
X156676432Y-78191037D02*
X157147861Y-77191037D01*
X153325004Y-78095799D02*
X153272623Y-78143418D01*
X153272623Y-78143418D02*
X153167861Y-78191037D01*
X153167861Y-78191037D02*
X152905956Y-78191037D01*
X152905956Y-78191037D02*
X152801194Y-78143418D01*
X152801194Y-78143418D02*
X152748813Y-78095799D01*
X152748813Y-78095799D02*
X152696432Y-78000561D01*
X152696432Y-78000561D02*
X152696432Y-77905323D01*
X152696432Y-77905323D02*
X152748813Y-77762466D01*
X152748813Y-77762466D02*
X153377385Y-77191037D01*
X153377385Y-77191037D02*
X152696432Y-77191037D01*
X151701194Y-78191037D02*
X152225004Y-78191037D01*
X152225004Y-78191037D02*
X152277385Y-77714847D01*
X152277385Y-77714847D02*
X152225004Y-77762466D01*
X152225004Y-77762466D02*
X152120242Y-77810085D01*
X152120242Y-77810085D02*
X151858337Y-77810085D01*
X151858337Y-77810085D02*
X151753575Y-77762466D01*
X151753575Y-77762466D02*
X151701194Y-77714847D01*
X151701194Y-77714847D02*
X151648813Y-77619609D01*
X151648813Y-77619609D02*
X151648813Y-77381514D01*
X151648813Y-77381514D02*
X151701194Y-77286276D01*
X151701194Y-77286276D02*
X151753575Y-77238657D01*
X151753575Y-77238657D02*
X151858337Y-77191037D01*
X151858337Y-77191037D02*
X152120242Y-77191037D01*
X152120242Y-77191037D02*
X152225004Y-77238657D01*
X152225004Y-77238657D02*
X152277385Y-77286276D01*
X145663913Y-98393710D02*
X145454389Y-98393710D01*
X145454389Y-98393710D02*
X145349627Y-98441330D01*
X145349627Y-98441330D02*
X145297246Y-98488949D01*
X145297246Y-98488949D02*
X145192484Y-98631806D01*
X145192484Y-98631806D02*
X145140103Y-98822282D01*
X145140103Y-98822282D02*
X145140103Y-99203234D01*
X145140103Y-99203234D02*
X145192484Y-99298472D01*
X145192484Y-99298472D02*
X145244865Y-99346091D01*
X145244865Y-99346091D02*
X145349627Y-99393710D01*
X145349627Y-99393710D02*
X145559151Y-99393710D01*
X145559151Y-99393710D02*
X145663913Y-99346091D01*
X145663913Y-99346091D02*
X145716294Y-99298472D01*
X145716294Y-99298472D02*
X145768675Y-99203234D01*
X145768675Y-99203234D02*
X145768675Y-98965139D01*
X145768675Y-98965139D02*
X145716294Y-98869901D01*
X145716294Y-98869901D02*
X145663913Y-98822282D01*
X145663913Y-98822282D02*
X145559151Y-98774663D01*
X145559151Y-98774663D02*
X145349627Y-98774663D01*
X145349627Y-98774663D02*
X145244865Y-98822282D01*
X145244865Y-98822282D02*
X145192484Y-98869901D01*
X145192484Y-98869901D02*
X145140103Y-98965139D01*
X150885958Y-78151051D02*
X150833577Y-78198670D01*
X150833577Y-78198670D02*
X150728815Y-78246289D01*
X150728815Y-78246289D02*
X150466910Y-78246289D01*
X150466910Y-78246289D02*
X150362148Y-78198670D01*
X150362148Y-78198670D02*
X150309767Y-78151051D01*
X150309767Y-78151051D02*
X150257386Y-78055813D01*
X150257386Y-78055813D02*
X150257386Y-77960575D01*
X150257386Y-77960575D02*
X150309767Y-77817718D01*
X150309767Y-77817718D02*
X150938339Y-77246289D01*
X150938339Y-77246289D02*
X150257386Y-77246289D01*
X149314529Y-77912956D02*
X149314529Y-77246289D01*
X149576434Y-78293909D02*
X149838339Y-77579623D01*
X149838339Y-77579623D02*
X149157386Y-77579623D01*
X155352484Y-99393710D02*
X155876294Y-99393710D01*
X155876294Y-99393710D02*
X155928675Y-98917520D01*
X155928675Y-98917520D02*
X155876294Y-98965139D01*
X155876294Y-98965139D02*
X155771532Y-99012758D01*
X155771532Y-99012758D02*
X155509627Y-99012758D01*
X155509627Y-99012758D02*
X155404865Y-98965139D01*
X155404865Y-98965139D02*
X155352484Y-98917520D01*
X155352484Y-98917520D02*
X155300103Y-98822282D01*
X155300103Y-98822282D02*
X155300103Y-98584187D01*
X155300103Y-98584187D02*
X155352484Y-98488949D01*
X155352484Y-98488949D02*
X155404865Y-98441330D01*
X155404865Y-98441330D02*
X155509627Y-98393710D01*
X155509627Y-98393710D02*
X155771532Y-98393710D01*
X155771532Y-98393710D02*
X155876294Y-98441330D01*
X155876294Y-98441330D02*
X155928675Y-98488949D01*
X163485004Y-78095799D02*
X163432623Y-78143418D01*
X163432623Y-78143418D02*
X163327861Y-78191037D01*
X163327861Y-78191037D02*
X163065956Y-78191037D01*
X163065956Y-78191037D02*
X162961194Y-78143418D01*
X162961194Y-78143418D02*
X162908813Y-78095799D01*
X162908813Y-78095799D02*
X162856432Y-78000561D01*
X162856432Y-78000561D02*
X162856432Y-77905323D01*
X162856432Y-77905323D02*
X162908813Y-77762466D01*
X162908813Y-77762466D02*
X163537385Y-77191037D01*
X163537385Y-77191037D02*
X162856432Y-77191037D01*
X162332623Y-77191037D02*
X162123099Y-77191037D01*
X162123099Y-77191037D02*
X162018337Y-77238657D01*
X162018337Y-77238657D02*
X161965956Y-77286276D01*
X161965956Y-77286276D02*
X161861194Y-77429133D01*
X161861194Y-77429133D02*
X161808813Y-77619609D01*
X161808813Y-77619609D02*
X161808813Y-78000561D01*
X161808813Y-78000561D02*
X161861194Y-78095799D01*
X161861194Y-78095799D02*
X161913575Y-78143418D01*
X161913575Y-78143418D02*
X162018337Y-78191037D01*
X162018337Y-78191037D02*
X162227861Y-78191037D01*
X162227861Y-78191037D02*
X162332623Y-78143418D01*
X162332623Y-78143418D02*
X162385004Y-78095799D01*
X162385004Y-78095799D02*
X162437385Y-78000561D01*
X162437385Y-78000561D02*
X162437385Y-77762466D01*
X162437385Y-77762466D02*
X162385004Y-77667228D01*
X162385004Y-77667228D02*
X162332623Y-77619609D01*
X162332623Y-77619609D02*
X162227861Y-77571990D01*
X162227861Y-77571990D02*
X162018337Y-77571990D01*
X162018337Y-77571990D02*
X161913575Y-77619609D01*
X161913575Y-77619609D02*
X161861194Y-77667228D01*
X161861194Y-77667228D02*
X161808813Y-77762466D01*
X165460103Y-98393710D02*
X166088675Y-98393710D01*
X165774389Y-98393710D02*
X165774389Y-99393710D01*
X165774389Y-99393710D02*
X165879151Y-99250853D01*
X165879151Y-99250853D02*
X165983913Y-99155615D01*
X165983913Y-99155615D02*
X166088675Y-99107996D01*
X155865004Y-78095799D02*
X155812623Y-78143418D01*
X155812623Y-78143418D02*
X155707861Y-78191037D01*
X155707861Y-78191037D02*
X155445956Y-78191037D01*
X155445956Y-78191037D02*
X155341194Y-78143418D01*
X155341194Y-78143418D02*
X155288813Y-78095799D01*
X155288813Y-78095799D02*
X155236432Y-78000561D01*
X155236432Y-78000561D02*
X155236432Y-77905323D01*
X155236432Y-77905323D02*
X155288813Y-77762466D01*
X155288813Y-77762466D02*
X155917385Y-77191037D01*
X155917385Y-77191037D02*
X155236432Y-77191037D01*
X154293575Y-78191037D02*
X154503099Y-78191037D01*
X154503099Y-78191037D02*
X154607861Y-78143418D01*
X154607861Y-78143418D02*
X154660242Y-78095799D01*
X154660242Y-78095799D02*
X154765004Y-77952942D01*
X154765004Y-77952942D02*
X154817385Y-77762466D01*
X154817385Y-77762466D02*
X154817385Y-77381514D01*
X154817385Y-77381514D02*
X154765004Y-77286276D01*
X154765004Y-77286276D02*
X154712623Y-77238657D01*
X154712623Y-77238657D02*
X154607861Y-77191037D01*
X154607861Y-77191037D02*
X154398337Y-77191037D01*
X154398337Y-77191037D02*
X154293575Y-77238657D01*
X154293575Y-77238657D02*
X154241194Y-77286276D01*
X154241194Y-77286276D02*
X154188813Y-77381514D01*
X154188813Y-77381514D02*
X154188813Y-77619609D01*
X154188813Y-77619609D02*
X154241194Y-77714847D01*
X154241194Y-77714847D02*
X154293575Y-77762466D01*
X154293575Y-77762466D02*
X154398337Y-77810085D01*
X154398337Y-77810085D02*
X154607861Y-77810085D01*
X154607861Y-77810085D02*
X154712623Y-77762466D01*
X154712623Y-77762466D02*
X154765004Y-77714847D01*
X154765004Y-77714847D02*
X154817385Y-77619609D01*
X143265958Y-78151051D02*
X143213577Y-78198670D01*
X143213577Y-78198670D02*
X143108815Y-78246289D01*
X143108815Y-78246289D02*
X142846910Y-78246289D01*
X142846910Y-78246289D02*
X142742148Y-78198670D01*
X142742148Y-78198670D02*
X142689767Y-78151051D01*
X142689767Y-78151051D02*
X142637386Y-78055813D01*
X142637386Y-78055813D02*
X142637386Y-77960575D01*
X142637386Y-77960575D02*
X142689767Y-77817718D01*
X142689767Y-77817718D02*
X143318339Y-77246289D01*
X143318339Y-77246289D02*
X142637386Y-77246289D01*
X141589767Y-77246289D02*
X142218339Y-77246289D01*
X141904053Y-77246289D02*
X141904053Y-78246289D01*
X141904053Y-78246289D02*
X142008815Y-78103432D01*
X142008815Y-78103432D02*
X142113577Y-78008194D01*
X142113577Y-78008194D02*
X142218339Y-77960575D01*
X150901056Y-99393710D02*
X150167722Y-99393710D01*
X150167722Y-99393710D02*
X150639151Y-98393710D01*
X130049326Y-77251642D02*
X130677898Y-77251642D01*
X130363612Y-77251642D02*
X130363612Y-78251642D01*
X130363612Y-78251642D02*
X130468374Y-78108785D01*
X130468374Y-78108785D02*
X130573136Y-78013547D01*
X130573136Y-78013547D02*
X130677898Y-77965928D01*
X129106469Y-78251642D02*
X129315993Y-78251642D01*
X129315993Y-78251642D02*
X129420755Y-78204023D01*
X129420755Y-78204023D02*
X129473136Y-78156404D01*
X129473136Y-78156404D02*
X129577898Y-78013547D01*
X129577898Y-78013547D02*
X129630279Y-77823071D01*
X129630279Y-77823071D02*
X129630279Y-77442119D01*
X129630279Y-77442119D02*
X129577898Y-77346881D01*
X129577898Y-77346881D02*
X129525517Y-77299262D01*
X129525517Y-77299262D02*
X129420755Y-77251642D01*
X129420755Y-77251642D02*
X129211231Y-77251642D01*
X129211231Y-77251642D02*
X129106469Y-77299262D01*
X129106469Y-77299262D02*
X129054088Y-77346881D01*
X129054088Y-77346881D02*
X129001707Y-77442119D01*
X129001707Y-77442119D02*
X129001707Y-77680214D01*
X129001707Y-77680214D02*
X129054088Y-77775452D01*
X129054088Y-77775452D02*
X129106469Y-77823071D01*
X129106469Y-77823071D02*
X129211231Y-77870690D01*
X129211231Y-77870690D02*
X129420755Y-77870690D01*
X129420755Y-77870690D02*
X129525517Y-77823071D01*
X129525517Y-77823071D02*
X129577898Y-77775452D01*
X129577898Y-77775452D02*
X129630279Y-77680214D01*
X135528403Y-98454703D02*
X136156975Y-98454703D01*
X135842689Y-98454703D02*
X135842689Y-99454703D01*
X135842689Y-99454703D02*
X135947451Y-99311846D01*
X135947451Y-99311846D02*
X136052213Y-99216608D01*
X136052213Y-99216608D02*
X136156975Y-99168989D01*
X135161737Y-99454703D02*
X134480784Y-99454703D01*
X134480784Y-99454703D02*
X134847451Y-99073751D01*
X134847451Y-99073751D02*
X134690308Y-99073751D01*
X134690308Y-99073751D02*
X134585546Y-99026132D01*
X134585546Y-99026132D02*
X134533165Y-98978513D01*
X134533165Y-98978513D02*
X134480784Y-98883275D01*
X134480784Y-98883275D02*
X134480784Y-98645180D01*
X134480784Y-98645180D02*
X134533165Y-98549942D01*
X134533165Y-98549942D02*
X134585546Y-98502323D01*
X134585546Y-98502323D02*
X134690308Y-98454703D01*
X134690308Y-98454703D02*
X135004594Y-98454703D01*
X135004594Y-98454703D02*
X135109356Y-98502323D01*
X135109356Y-98502323D02*
X135161737Y-98549942D01*
X166077385Y-78191037D02*
X165396432Y-78191037D01*
X165396432Y-78191037D02*
X165763099Y-77810085D01*
X165763099Y-77810085D02*
X165605956Y-77810085D01*
X165605956Y-77810085D02*
X165501194Y-77762466D01*
X165501194Y-77762466D02*
X165448813Y-77714847D01*
X165448813Y-77714847D02*
X165396432Y-77619609D01*
X165396432Y-77619609D02*
X165396432Y-77381514D01*
X165396432Y-77381514D02*
X165448813Y-77286276D01*
X165448813Y-77286276D02*
X165501194Y-77238657D01*
X165501194Y-77238657D02*
X165605956Y-77191037D01*
X165605956Y-77191037D02*
X165920242Y-77191037D01*
X165920242Y-77191037D02*
X166025004Y-77238657D01*
X166025004Y-77238657D02*
X166077385Y-77286276D01*
X164715480Y-78191037D02*
X164610718Y-78191037D01*
X164610718Y-78191037D02*
X164505956Y-78143418D01*
X164505956Y-78143418D02*
X164453575Y-78095799D01*
X164453575Y-78095799D02*
X164401194Y-78000561D01*
X164401194Y-78000561D02*
X164348813Y-77810085D01*
X164348813Y-77810085D02*
X164348813Y-77571990D01*
X164348813Y-77571990D02*
X164401194Y-77381514D01*
X164401194Y-77381514D02*
X164453575Y-77286276D01*
X164453575Y-77286276D02*
X164505956Y-77238657D01*
X164505956Y-77238657D02*
X164610718Y-77191037D01*
X164610718Y-77191037D02*
X164715480Y-77191037D01*
X164715480Y-77191037D02*
X164820242Y-77238657D01*
X164820242Y-77238657D02*
X164872623Y-77286276D01*
X164872623Y-77286276D02*
X164925004Y-77381514D01*
X164925004Y-77381514D02*
X164977385Y-77571990D01*
X164977385Y-77571990D02*
X164977385Y-77810085D01*
X164977385Y-77810085D02*
X164925004Y-78000561D01*
X164925004Y-78000561D02*
X164872623Y-78095799D01*
X164872623Y-78095799D02*
X164820242Y-78143418D01*
X164820242Y-78143418D02*
X164715480Y-78191037D01*
X148345958Y-78151051D02*
X148293577Y-78198670D01*
X148293577Y-78198670D02*
X148188815Y-78246289D01*
X148188815Y-78246289D02*
X147926910Y-78246289D01*
X147926910Y-78246289D02*
X147822148Y-78198670D01*
X147822148Y-78198670D02*
X147769767Y-78151051D01*
X147769767Y-78151051D02*
X147717386Y-78055813D01*
X147717386Y-78055813D02*
X147717386Y-77960575D01*
X147717386Y-77960575D02*
X147769767Y-77817718D01*
X147769767Y-77817718D02*
X148398339Y-77246289D01*
X148398339Y-77246289D02*
X147717386Y-77246289D01*
X147350720Y-78246289D02*
X146669767Y-78246289D01*
X146669767Y-78246289D02*
X147036434Y-77865337D01*
X147036434Y-77865337D02*
X146879291Y-77865337D01*
X146879291Y-77865337D02*
X146774529Y-77817718D01*
X146774529Y-77817718D02*
X146722148Y-77770099D01*
X146722148Y-77770099D02*
X146669767Y-77674861D01*
X146669767Y-77674861D02*
X146669767Y-77436766D01*
X146669767Y-77436766D02*
X146722148Y-77341528D01*
X146722148Y-77341528D02*
X146774529Y-77293909D01*
X146774529Y-77293909D02*
X146879291Y-77246289D01*
X146879291Y-77246289D02*
X147193577Y-77246289D01*
X147193577Y-77246289D02*
X147298339Y-77293909D01*
X147298339Y-77293909D02*
X147350720Y-77341528D01*
X157944865Y-99060377D02*
X157944865Y-98393710D01*
X158206770Y-99441330D02*
X158468675Y-98727044D01*
X158468675Y-98727044D02*
X157787722Y-98727044D01*
X132589326Y-77251642D02*
X133217898Y-77251642D01*
X132903612Y-77251642D02*
X132903612Y-78251642D01*
X132903612Y-78251642D02*
X133008374Y-78108785D01*
X133008374Y-78108785D02*
X133113136Y-78013547D01*
X133113136Y-78013547D02*
X133217898Y-77965928D01*
X132222660Y-78251642D02*
X131489326Y-78251642D01*
X131489326Y-78251642D02*
X131960755Y-77251642D01*
X160945004Y-78095799D02*
X160892623Y-78143418D01*
X160892623Y-78143418D02*
X160787861Y-78191037D01*
X160787861Y-78191037D02*
X160525956Y-78191037D01*
X160525956Y-78191037D02*
X160421194Y-78143418D01*
X160421194Y-78143418D02*
X160368813Y-78095799D01*
X160368813Y-78095799D02*
X160316432Y-78000561D01*
X160316432Y-78000561D02*
X160316432Y-77905323D01*
X160316432Y-77905323D02*
X160368813Y-77762466D01*
X160368813Y-77762466D02*
X160997385Y-77191037D01*
X160997385Y-77191037D02*
X160316432Y-77191037D01*
X159687861Y-77762466D02*
X159792623Y-77810085D01*
X159792623Y-77810085D02*
X159845004Y-77857704D01*
X159845004Y-77857704D02*
X159897385Y-77952942D01*
X159897385Y-77952942D02*
X159897385Y-78000561D01*
X159897385Y-78000561D02*
X159845004Y-78095799D01*
X159845004Y-78095799D02*
X159792623Y-78143418D01*
X159792623Y-78143418D02*
X159687861Y-78191037D01*
X159687861Y-78191037D02*
X159478337Y-78191037D01*
X159478337Y-78191037D02*
X159373575Y-78143418D01*
X159373575Y-78143418D02*
X159321194Y-78095799D01*
X159321194Y-78095799D02*
X159268813Y-78000561D01*
X159268813Y-78000561D02*
X159268813Y-77952942D01*
X159268813Y-77952942D02*
X159321194Y-77857704D01*
X159321194Y-77857704D02*
X159373575Y-77810085D01*
X159373575Y-77810085D02*
X159478337Y-77762466D01*
X159478337Y-77762466D02*
X159687861Y-77762466D01*
X159687861Y-77762466D02*
X159792623Y-77714847D01*
X159792623Y-77714847D02*
X159845004Y-77667228D01*
X159845004Y-77667228D02*
X159897385Y-77571990D01*
X159897385Y-77571990D02*
X159897385Y-77381514D01*
X159897385Y-77381514D02*
X159845004Y-77286276D01*
X159845004Y-77286276D02*
X159792623Y-77238657D01*
X159792623Y-77238657D02*
X159687861Y-77191037D01*
X159687861Y-77191037D02*
X159478337Y-77191037D01*
X159478337Y-77191037D02*
X159373575Y-77238657D01*
X159373575Y-77238657D02*
X159321194Y-77286276D01*
X159321194Y-77286276D02*
X159268813Y-77381514D01*
X159268813Y-77381514D02*
X159268813Y-77571990D01*
X159268813Y-77571990D02*
X159321194Y-77667228D01*
X159321194Y-77667228D02*
X159373575Y-77714847D01*
X159373575Y-77714847D02*
X159478337Y-77762466D01*
X140725958Y-78151051D02*
X140673577Y-78198670D01*
X140673577Y-78198670D02*
X140568815Y-78246289D01*
X140568815Y-78246289D02*
X140306910Y-78246289D01*
X140306910Y-78246289D02*
X140202148Y-78198670D01*
X140202148Y-78198670D02*
X140149767Y-78151051D01*
X140149767Y-78151051D02*
X140097386Y-78055813D01*
X140097386Y-78055813D02*
X140097386Y-77960575D01*
X140097386Y-77960575D02*
X140149767Y-77817718D01*
X140149767Y-77817718D02*
X140778339Y-77246289D01*
X140778339Y-77246289D02*
X140097386Y-77246289D01*
X139416434Y-78246289D02*
X139311672Y-78246289D01*
X139311672Y-78246289D02*
X139206910Y-78198670D01*
X139206910Y-78198670D02*
X139154529Y-78151051D01*
X139154529Y-78151051D02*
X139102148Y-78055813D01*
X139102148Y-78055813D02*
X139049767Y-77865337D01*
X139049767Y-77865337D02*
X139049767Y-77627242D01*
X139049767Y-77627242D02*
X139102148Y-77436766D01*
X139102148Y-77436766D02*
X139154529Y-77341528D01*
X139154529Y-77341528D02*
X139206910Y-77293909D01*
X139206910Y-77293909D02*
X139311672Y-77246289D01*
X139311672Y-77246289D02*
X139416434Y-77246289D01*
X139416434Y-77246289D02*
X139521196Y-77293909D01*
X139521196Y-77293909D02*
X139573577Y-77341528D01*
X139573577Y-77341528D02*
X139625958Y-77436766D01*
X139625958Y-77436766D02*
X139678339Y-77627242D01*
X139678339Y-77627242D02*
X139678339Y-77865337D01*
X139678339Y-77865337D02*
X139625958Y-78055813D01*
X139625958Y-78055813D02*
X139573577Y-78151051D01*
X139573577Y-78151051D02*
X139521196Y-78198670D01*
X139521196Y-78198670D02*
X139416434Y-78246289D01*
X138068403Y-98454703D02*
X138696975Y-98454703D01*
X138382689Y-98454703D02*
X138382689Y-99454703D01*
X138382689Y-99454703D02*
X138487451Y-99311846D01*
X138487451Y-99311846D02*
X138592213Y-99216608D01*
X138592213Y-99216608D02*
X138696975Y-99168989D01*
X137649356Y-99359465D02*
X137596975Y-99407084D01*
X137596975Y-99407084D02*
X137492213Y-99454703D01*
X137492213Y-99454703D02*
X137230308Y-99454703D01*
X137230308Y-99454703D02*
X137125546Y-99407084D01*
X137125546Y-99407084D02*
X137073165Y-99359465D01*
X137073165Y-99359465D02*
X137020784Y-99264227D01*
X137020784Y-99264227D02*
X137020784Y-99168989D01*
X137020784Y-99168989D02*
X137073165Y-99026132D01*
X137073165Y-99026132D02*
X137701737Y-98454703D01*
X137701737Y-98454703D02*
X137020784Y-98454703D01*
X148099151Y-98965139D02*
X148203913Y-99012758D01*
X148203913Y-99012758D02*
X148256294Y-99060377D01*
X148256294Y-99060377D02*
X148308675Y-99155615D01*
X148308675Y-99155615D02*
X148308675Y-99203234D01*
X148308675Y-99203234D02*
X148256294Y-99298472D01*
X148256294Y-99298472D02*
X148203913Y-99346091D01*
X148203913Y-99346091D02*
X148099151Y-99393710D01*
X148099151Y-99393710D02*
X147889627Y-99393710D01*
X147889627Y-99393710D02*
X147784865Y-99346091D01*
X147784865Y-99346091D02*
X147732484Y-99298472D01*
X147732484Y-99298472D02*
X147680103Y-99203234D01*
X147680103Y-99203234D02*
X147680103Y-99155615D01*
X147680103Y-99155615D02*
X147732484Y-99060377D01*
X147732484Y-99060377D02*
X147784865Y-99012758D01*
X147784865Y-99012758D02*
X147889627Y-98965139D01*
X147889627Y-98965139D02*
X148099151Y-98965139D01*
X148099151Y-98965139D02*
X148203913Y-98917520D01*
X148203913Y-98917520D02*
X148256294Y-98869901D01*
X148256294Y-98869901D02*
X148308675Y-98774663D01*
X148308675Y-98774663D02*
X148308675Y-98584187D01*
X148308675Y-98584187D02*
X148256294Y-98488949D01*
X148256294Y-98488949D02*
X148203913Y-98441330D01*
X148203913Y-98441330D02*
X148099151Y-98393710D01*
X148099151Y-98393710D02*
X147889627Y-98393710D01*
X147889627Y-98393710D02*
X147784865Y-98441330D01*
X147784865Y-98441330D02*
X147732484Y-98488949D01*
X147732484Y-98488949D02*
X147680103Y-98584187D01*
X147680103Y-98584187D02*
X147680103Y-98774663D01*
X147680103Y-98774663D02*
X147732484Y-98869901D01*
X147732484Y-98869901D02*
X147784865Y-98917520D01*
X147784865Y-98917520D02*
X147889627Y-98965139D01*
X135129326Y-77251642D02*
X135757898Y-77251642D01*
X135443612Y-77251642D02*
X135443612Y-78251642D01*
X135443612Y-78251642D02*
X135548374Y-78108785D01*
X135548374Y-78108785D02*
X135653136Y-78013547D01*
X135653136Y-78013547D02*
X135757898Y-77965928D01*
X134500755Y-77823071D02*
X134605517Y-77870690D01*
X134605517Y-77870690D02*
X134657898Y-77918309D01*
X134657898Y-77918309D02*
X134710279Y-78013547D01*
X134710279Y-78013547D02*
X134710279Y-78061166D01*
X134710279Y-78061166D02*
X134657898Y-78156404D01*
X134657898Y-78156404D02*
X134605517Y-78204023D01*
X134605517Y-78204023D02*
X134500755Y-78251642D01*
X134500755Y-78251642D02*
X134291231Y-78251642D01*
X134291231Y-78251642D02*
X134186469Y-78204023D01*
X134186469Y-78204023D02*
X134134088Y-78156404D01*
X134134088Y-78156404D02*
X134081707Y-78061166D01*
X134081707Y-78061166D02*
X134081707Y-78013547D01*
X134081707Y-78013547D02*
X134134088Y-77918309D01*
X134134088Y-77918309D02*
X134186469Y-77870690D01*
X134186469Y-77870690D02*
X134291231Y-77823071D01*
X134291231Y-77823071D02*
X134500755Y-77823071D01*
X134500755Y-77823071D02*
X134605517Y-77775452D01*
X134605517Y-77775452D02*
X134657898Y-77727833D01*
X134657898Y-77727833D02*
X134710279Y-77632595D01*
X134710279Y-77632595D02*
X134710279Y-77442119D01*
X134710279Y-77442119D02*
X134657898Y-77346881D01*
X134657898Y-77346881D02*
X134605517Y-77299262D01*
X134605517Y-77299262D02*
X134500755Y-77251642D01*
X134500755Y-77251642D02*
X134291231Y-77251642D01*
X134291231Y-77251642D02*
X134186469Y-77299262D01*
X134186469Y-77299262D02*
X134134088Y-77346881D01*
X134134088Y-77346881D02*
X134081707Y-77442119D01*
X134081707Y-77442119D02*
X134081707Y-77632595D01*
X134081707Y-77632595D02*
X134134088Y-77727833D01*
X134134088Y-77727833D02*
X134186469Y-77775452D01*
X134186469Y-77775452D02*
X134291231Y-77823071D01*
X179166666Y-73957419D02*
X179166666Y-74671704D01*
X179166666Y-74671704D02*
X179119047Y-74814561D01*
X179119047Y-74814561D02*
X179023809Y-74909800D01*
X179023809Y-74909800D02*
X178880952Y-74957419D01*
X178880952Y-74957419D02*
X178785714Y-74957419D01*
X180166666Y-74957419D02*
X179595238Y-74957419D01*
X179880952Y-74957419D02*
X179880952Y-73957419D01*
X179880952Y-73957419D02*
X179785714Y-74100276D01*
X179785714Y-74100276D02*
X179690476Y-74195514D01*
X179690476Y-74195514D02*
X179595238Y-74243133D01*
X130296666Y-105121419D02*
X130296666Y-105835704D01*
X130296666Y-105835704D02*
X130249047Y-105978561D01*
X130249047Y-105978561D02*
X130153809Y-106073800D01*
X130153809Y-106073800D02*
X130010952Y-106121419D01*
X130010952Y-106121419D02*
X129915714Y-106121419D01*
X130725238Y-105216657D02*
X130772857Y-105169038D01*
X130772857Y-105169038D02*
X130868095Y-105121419D01*
X130868095Y-105121419D02*
X131106190Y-105121419D01*
X131106190Y-105121419D02*
X131201428Y-105169038D01*
X131201428Y-105169038D02*
X131249047Y-105216657D01*
X131249047Y-105216657D02*
X131296666Y-105311895D01*
X131296666Y-105311895D02*
X131296666Y-105407133D01*
X131296666Y-105407133D02*
X131249047Y-105549990D01*
X131249047Y-105549990D02*
X130677619Y-106121419D01*
X130677619Y-106121419D02*
X131296666Y-106121419D01*
X123020752Y-113108999D02*
X123020752Y-112728047D01*
X122687419Y-112966142D02*
X123544561Y-112966142D01*
X123544561Y-112966142D02*
X123639800Y-112918523D01*
X123639800Y-112918523D02*
X123687419Y-112823285D01*
X123687419Y-112823285D02*
X123687419Y-112728047D01*
X123639800Y-112013761D02*
X123687419Y-112108999D01*
X123687419Y-112108999D02*
X123687419Y-112299475D01*
X123687419Y-112299475D02*
X123639800Y-112394713D01*
X123639800Y-112394713D02*
X123544561Y-112442332D01*
X123544561Y-112442332D02*
X123163609Y-112442332D01*
X123163609Y-112442332D02*
X123068371Y-112394713D01*
X123068371Y-112394713D02*
X123020752Y-112299475D01*
X123020752Y-112299475D02*
X123020752Y-112108999D01*
X123020752Y-112108999D02*
X123068371Y-112013761D01*
X123068371Y-112013761D02*
X123163609Y-111966142D01*
X123163609Y-111966142D02*
X123258847Y-111966142D01*
X123258847Y-111966142D02*
X123354085Y-112442332D01*
X123687419Y-111537570D02*
X123020752Y-111537570D01*
X123211228Y-111537570D02*
X123115990Y-111489951D01*
X123115990Y-111489951D02*
X123068371Y-111442332D01*
X123068371Y-111442332D02*
X123020752Y-111347094D01*
X123020752Y-111347094D02*
X123020752Y-111251856D01*
X123687419Y-110918522D02*
X123020752Y-110918522D01*
X123115990Y-110918522D02*
X123068371Y-110870903D01*
X123068371Y-110870903D02*
X123020752Y-110775665D01*
X123020752Y-110775665D02*
X123020752Y-110632808D01*
X123020752Y-110632808D02*
X123068371Y-110537570D01*
X123068371Y-110537570D02*
X123163609Y-110489951D01*
X123163609Y-110489951D02*
X123687419Y-110489951D01*
X123163609Y-110489951D02*
X123068371Y-110442332D01*
X123068371Y-110442332D02*
X123020752Y-110347094D01*
X123020752Y-110347094D02*
X123020752Y-110204237D01*
X123020752Y-110204237D02*
X123068371Y-110108998D01*
X123068371Y-110108998D02*
X123163609Y-110061379D01*
X123163609Y-110061379D02*
X123687419Y-110061379D01*
X123687419Y-109585189D02*
X123020752Y-109585189D01*
X122687419Y-109585189D02*
X122735038Y-109632808D01*
X122735038Y-109632808D02*
X122782657Y-109585189D01*
X122782657Y-109585189D02*
X122735038Y-109537570D01*
X122735038Y-109537570D02*
X122687419Y-109585189D01*
X122687419Y-109585189D02*
X122782657Y-109585189D01*
X123020752Y-109108999D02*
X123687419Y-109108999D01*
X123115990Y-109108999D02*
X123068371Y-109061380D01*
X123068371Y-109061380D02*
X123020752Y-108966142D01*
X123020752Y-108966142D02*
X123020752Y-108823285D01*
X123020752Y-108823285D02*
X123068371Y-108728047D01*
X123068371Y-108728047D02*
X123163609Y-108680428D01*
X123163609Y-108680428D02*
X123687419Y-108680428D01*
X123687419Y-107775666D02*
X123163609Y-107775666D01*
X123163609Y-107775666D02*
X123068371Y-107823285D01*
X123068371Y-107823285D02*
X123020752Y-107918523D01*
X123020752Y-107918523D02*
X123020752Y-108108999D01*
X123020752Y-108108999D02*
X123068371Y-108204237D01*
X123639800Y-107775666D02*
X123687419Y-107870904D01*
X123687419Y-107870904D02*
X123687419Y-108108999D01*
X123687419Y-108108999D02*
X123639800Y-108204237D01*
X123639800Y-108204237D02*
X123544561Y-108251856D01*
X123544561Y-108251856D02*
X123449323Y-108251856D01*
X123449323Y-108251856D02*
X123354085Y-108204237D01*
X123354085Y-108204237D02*
X123306466Y-108108999D01*
X123306466Y-108108999D02*
X123306466Y-107870904D01*
X123306466Y-107870904D02*
X123258847Y-107775666D01*
X123687419Y-107156618D02*
X123639800Y-107251856D01*
X123639800Y-107251856D02*
X123544561Y-107299475D01*
X123544561Y-107299475D02*
X122687419Y-107299475D01*
X155400000Y-87892102D02*
X155420151Y-88379320D01*
X155420151Y-87404884D02*
X155400000Y-87892102D01*
X155420151Y-88379320D02*
X155480468Y-88863210D01*
X155480468Y-86920994D02*
X155420151Y-87404884D01*
X155480468Y-88863210D02*
X155580538Y-89340466D01*
X155580538Y-86443738D02*
X155480468Y-86920994D01*
X155580538Y-89340466D02*
X155719678Y-89807829D01*
X155719678Y-85976375D02*
X155580538Y-86443738D01*
X155719678Y-89807829D02*
X155896937Y-90262105D01*
X155896937Y-85522099D02*
X155719678Y-85976375D01*
X155896937Y-90262105D02*
X156111105Y-90700192D01*
X156111105Y-85084012D02*
X155896937Y-85522099D01*
X156111105Y-90700192D02*
X156360718Y-91119096D01*
X156360718Y-84665108D02*
X156111105Y-85084012D01*
X156360718Y-91119096D02*
X156644071Y-91515957D01*
X156644071Y-84268247D02*
X156360718Y-84665108D01*
X156644071Y-91515957D02*
X156959229Y-91888063D01*
X156959229Y-83896141D02*
X156644071Y-84268247D01*
X156959229Y-91888063D02*
X157304039Y-92232873D01*
X157304039Y-83551331D02*
X156959229Y-83896141D01*
X157304039Y-92232873D02*
X157676145Y-92548031D01*
X157676145Y-83236173D02*
X157304039Y-83551331D01*
X157676145Y-92548031D02*
X158073006Y-92831384D01*
X158073006Y-82952820D02*
X157676145Y-83236173D01*
X158073006Y-92831384D02*
X158491910Y-93080997D01*
X158491910Y-82703207D02*
X158073006Y-82952820D01*
X158491910Y-93080997D02*
X158929997Y-93295165D01*
X158929997Y-82489039D02*
X158491910Y-82703207D01*
X158929997Y-93295165D02*
X159384273Y-93472424D01*
X159384273Y-82311780D02*
X158929997Y-82489039D01*
X159384273Y-93472424D02*
X159851636Y-93611564D01*
X159851636Y-82172640D02*
X159384273Y-82311780D01*
X159851636Y-93611564D02*
X160328892Y-93711634D01*
X160328892Y-82072570D02*
X159851636Y-82172640D01*
X160328892Y-93711634D02*
X160812782Y-93771951D01*
X160812782Y-82012253D02*
X160328892Y-82072570D01*
X160812782Y-93771951D02*
X161300000Y-93792102D01*
X161300000Y-81992102D02*
X160812782Y-82012253D01*
X161300000Y-81992102D02*
X161300000Y-81992102D01*
X161300000Y-93792102D02*
X161787218Y-93771951D01*
X161787218Y-82012253D02*
X161300000Y-81992102D01*
X161787218Y-93771951D02*
X162271108Y-93711634D01*
X162271108Y-82072570D02*
X161787218Y-82012253D01*
X162271108Y-93711634D02*
X162748364Y-93611564D01*
X162748364Y-82172640D02*
X162271108Y-82072570D01*
X162748364Y-93611564D02*
X163215727Y-93472424D01*
X163215727Y-82311780D02*
X162748364Y-82172640D01*
X163215727Y-93472424D02*
X163670003Y-93295165D01*
X163670003Y-82489039D02*
X163215727Y-82311780D01*
X163670003Y-93295165D02*
X164108090Y-93080997D01*
X164108090Y-82703207D02*
X163670003Y-82489039D01*
X164108090Y-93080997D02*
X164526994Y-92831384D01*
X164526994Y-82952820D02*
X164108090Y-82703207D01*
X164526994Y-92831384D02*
X164923855Y-92548031D01*
X164923855Y-83236173D02*
X164526994Y-82952820D01*
X164923855Y-92548031D02*
X165295961Y-92232873D01*
X165295961Y-83551331D02*
X164923855Y-83236173D01*
X165295961Y-92232873D02*
X165640771Y-91888063D01*
X165640771Y-83896141D02*
X165295961Y-83551331D01*
X165640771Y-91888063D02*
X165955929Y-91515957D01*
X165955929Y-84268247D02*
X165640771Y-83896141D01*
X165955929Y-91515957D02*
X166239282Y-91119096D01*
X166239282Y-84665108D02*
X165955929Y-84268247D01*
X166239282Y-91119096D02*
X166488895Y-90700192D01*
X166488895Y-85084012D02*
X166239282Y-84665108D01*
X166488895Y-90700192D02*
X166703063Y-90262105D01*
X166703063Y-85522099D02*
X166488895Y-85084012D01*
X166703063Y-90262105D02*
X166880322Y-89807829D01*
X166880322Y-85976375D02*
X166703063Y-85522099D01*
X166880322Y-89807829D02*
X167019462Y-89340466D01*
X167019462Y-86443738D02*
X166880322Y-85976375D01*
X167019462Y-89340466D02*
X167119532Y-88863210D01*
X167119532Y-86920994D02*
X167019462Y-86443738D01*
X167119532Y-88863210D02*
X167179849Y-88379320D01*
X167179849Y-87404884D02*
X167119532Y-86920994D01*
X167179849Y-88379320D02*
X167200000Y-87892102D01*
X167200000Y-87892102D02*
X167179849Y-87404884D01*
X162400000Y-87892102D02*
G75*
G02*
X160200000Y-87892102I-1100000J0D01*
G01*
X160200000Y-87892102D02*
G75*
G02*
X162400000Y-87892102I1100000J0D01*
G01*
D12*
X144633000Y-108179000D02*
X144633000Y-108879000D01*
X144633000Y-108179000D02*
X145333000Y-108179000D01*
X144633000Y-120579000D02*
X144633000Y-119879000D01*
X144633000Y-120579000D02*
X145333000Y-120579000D01*
X148433000Y-115879000D02*
X158433000Y-115879000D01*
X157433000Y-115379000D02*
X158433000Y-115879000D01*
X157433000Y-116379000D02*
X158433000Y-115879000D01*
X158433000Y-115879000D02*
X157433000Y-115379000D01*
X162233000Y-108179000D02*
X161583000Y-108179000D01*
X162233000Y-108179000D02*
X162233000Y-108829000D01*
X162233000Y-120579000D02*
X161533000Y-120579000D01*
X162233000Y-120579000D02*
X162233000Y-119879000D01*
D16*
X133501000Y-108410000D02*
X133501000Y-117650000D01*
X133501000Y-116060000D02*
X139041000Y-116060000D01*
X133501000Y-116180000D02*
X139041000Y-116180000D01*
X133501000Y-116300000D02*
X139041000Y-116300000D01*
X133501000Y-117650000D02*
X139041000Y-117650000D01*
X136271000Y-106950000D02*
X136271000Y-108410000D01*
X136271000Y-119110000D02*
X136271000Y-117650000D01*
X139041000Y-108410000D02*
X133501000Y-108410000D01*
X139041000Y-117650000D02*
X139041000Y-108410000D01*
D15*
X166359600Y-106275000D02*
X190459600Y-106275000D01*
X166359600Y-115725000D02*
X166359600Y-106275000D01*
X172659600Y-115725000D02*
X172659600Y-106300000D01*
X184159600Y-115725000D02*
X184159600Y-106300000D01*
X190459600Y-106275000D02*
X190459600Y-115725000D01*
X190459600Y-115725000D02*
X166359600Y-115725000D01*
D16*
X176602000Y-97730000D02*
X183062000Y-97730000D01*
X176602000Y-97770000D02*
X183062000Y-97770000D01*
X176602000Y-97810000D02*
X183062000Y-97810000D01*
X176604000Y-97690000D02*
X183060000Y-97690000D01*
X176605000Y-97650000D02*
X183059000Y-97650000D01*
X176608000Y-97610000D02*
X183056000Y-97610000D01*
X176610000Y-97570000D02*
X178792000Y-97570000D01*
X176614000Y-97530000D02*
X178792000Y-97530000D01*
X176617000Y-97490000D02*
X178792000Y-97490000D01*
X176621000Y-97450000D02*
X178792000Y-97450000D01*
X176626000Y-97410000D02*
X178792000Y-97410000D01*
X176631000Y-97370000D02*
X178792000Y-97370000D01*
X176637000Y-97330000D02*
X178792000Y-97330000D01*
X176643000Y-97290000D02*
X178792000Y-97290000D01*
X176650000Y-97250000D02*
X178792000Y-97250000D01*
X176657000Y-97210000D02*
X178792000Y-97210000D01*
X176665000Y-97170000D02*
X178792000Y-97170000D01*
X176673000Y-97130000D02*
X178792000Y-97130000D01*
X176682000Y-97089000D02*
X178792000Y-97089000D01*
X176691000Y-97049000D02*
X178792000Y-97049000D01*
X176701000Y-97009000D02*
X178792000Y-97009000D01*
X176711000Y-96969000D02*
X178792000Y-96969000D01*
X176722000Y-96929000D02*
X178792000Y-96929000D01*
X176734000Y-96889000D02*
X178792000Y-96889000D01*
X176746000Y-96849000D02*
X178792000Y-96849000D01*
X176758000Y-96809000D02*
X178792000Y-96809000D01*
X176771000Y-96769000D02*
X178792000Y-96769000D01*
X176785000Y-96729000D02*
X178792000Y-96729000D01*
X176799000Y-96689000D02*
X178792000Y-96689000D01*
X176814000Y-96649000D02*
X178792000Y-96649000D01*
X176830000Y-96609000D02*
X178792000Y-96609000D01*
X176846000Y-96569000D02*
X178792000Y-96569000D01*
X176862000Y-96529000D02*
X178792000Y-96529000D01*
X176880000Y-96489000D02*
X178792000Y-96489000D01*
X176898000Y-96449000D02*
X178792000Y-96449000D01*
X176916000Y-96409000D02*
X178792000Y-96409000D01*
X176936000Y-96369000D02*
X178792000Y-96369000D01*
X176956000Y-96329000D02*
X178792000Y-96329000D01*
X176976000Y-96289000D02*
X178792000Y-96289000D01*
X176998000Y-96249000D02*
X178792000Y-96249000D01*
X177020000Y-96209000D02*
X178792000Y-96209000D01*
X177042000Y-96169000D02*
X178792000Y-96169000D01*
X177066000Y-96129000D02*
X178792000Y-96129000D01*
X177090000Y-96089000D02*
X178792000Y-96089000D01*
X177116000Y-96049000D02*
X178792000Y-96049000D01*
X177142000Y-96009000D02*
X178792000Y-96009000D01*
X177168000Y-95969000D02*
X178792000Y-95969000D01*
X177196000Y-95929000D02*
X178792000Y-95929000D01*
X177225000Y-95889000D02*
X178792000Y-95889000D01*
X177254000Y-95849000D02*
X178792000Y-95849000D01*
X177284000Y-95809000D02*
X178792000Y-95809000D01*
X177316000Y-95769000D02*
X178792000Y-95769000D01*
X177348000Y-95729000D02*
X178792000Y-95729000D01*
X177382000Y-95689000D02*
X178792000Y-95689000D01*
X177416000Y-95649000D02*
X178792000Y-95649000D01*
X177452000Y-95609000D02*
X178792000Y-95609000D01*
X177489000Y-95569000D02*
X178792000Y-95569000D01*
X177527000Y-95529000D02*
X178792000Y-95529000D01*
X177567000Y-95489000D02*
X182097000Y-95489000D01*
X177608000Y-95449000D02*
X182056000Y-95449000D01*
X177650000Y-95409000D02*
X182014000Y-95409000D01*
X177695000Y-95369000D02*
X181969000Y-95369000D01*
X177740000Y-95329000D02*
X181924000Y-95329000D01*
X177788000Y-95289000D02*
X181876000Y-95289000D01*
X177837000Y-95249000D02*
X181827000Y-95249000D01*
X177888000Y-95209000D02*
X181776000Y-95209000D01*
X177942000Y-95169000D02*
X181722000Y-95169000D01*
X177998000Y-95129000D02*
X181666000Y-95129000D01*
X178056000Y-95089000D02*
X181608000Y-95089000D01*
X178118000Y-95049000D02*
X181546000Y-95049000D01*
X178182000Y-95009000D02*
X181482000Y-95009000D01*
X178251000Y-94969000D02*
X181413000Y-94969000D01*
X178323000Y-94929000D02*
X181341000Y-94929000D01*
X178400000Y-94889000D02*
X181264000Y-94889000D01*
X178482000Y-94849000D02*
X181182000Y-94849000D01*
X178570000Y-94809000D02*
X181094000Y-94809000D01*
X178667000Y-94769000D02*
X180997000Y-94769000D01*
X178773000Y-94729000D02*
X180891000Y-94729000D01*
X178892000Y-94689000D02*
X180772000Y-94689000D01*
X179030000Y-94649000D02*
X180634000Y-94649000D01*
X179199000Y-94609000D02*
X180465000Y-94609000D01*
X179430000Y-94569000D02*
X180234000Y-94569000D01*
X180872000Y-95529000D02*
X182137000Y-95529000D01*
X180872000Y-95569000D02*
X182175000Y-95569000D01*
X180872000Y-95609000D02*
X182212000Y-95609000D01*
X180872000Y-95649000D02*
X182248000Y-95649000D01*
X180872000Y-95689000D02*
X182282000Y-95689000D01*
X180872000Y-95729000D02*
X182316000Y-95729000D01*
X180872000Y-95769000D02*
X182348000Y-95769000D01*
X180872000Y-95809000D02*
X182380000Y-95809000D01*
X180872000Y-95849000D02*
X182410000Y-95849000D01*
X180872000Y-95889000D02*
X182439000Y-95889000D01*
X180872000Y-95929000D02*
X182468000Y-95929000D01*
X180872000Y-95969000D02*
X182496000Y-95969000D01*
X180872000Y-96009000D02*
X182522000Y-96009000D01*
X180872000Y-96049000D02*
X182548000Y-96049000D01*
X180872000Y-96089000D02*
X182574000Y-96089000D01*
X180872000Y-96129000D02*
X182598000Y-96129000D01*
X180872000Y-96169000D02*
X182622000Y-96169000D01*
X180872000Y-96209000D02*
X182644000Y-96209000D01*
X180872000Y-96249000D02*
X182666000Y-96249000D01*
X180872000Y-96289000D02*
X182688000Y-96289000D01*
X180872000Y-96329000D02*
X182708000Y-96329000D01*
X180872000Y-96369000D02*
X182728000Y-96369000D01*
X180872000Y-96409000D02*
X182748000Y-96409000D01*
X180872000Y-96449000D02*
X182766000Y-96449000D01*
X180872000Y-96489000D02*
X182784000Y-96489000D01*
X180872000Y-96529000D02*
X182802000Y-96529000D01*
X180872000Y-96569000D02*
X182818000Y-96569000D01*
X180872000Y-96609000D02*
X182834000Y-96609000D01*
X180872000Y-96649000D02*
X182850000Y-96649000D01*
X180872000Y-96689000D02*
X182865000Y-96689000D01*
X180872000Y-96729000D02*
X182879000Y-96729000D01*
X180872000Y-96769000D02*
X182893000Y-96769000D01*
X180872000Y-96809000D02*
X182906000Y-96809000D01*
X180872000Y-96849000D02*
X182918000Y-96849000D01*
X180872000Y-96889000D02*
X182930000Y-96889000D01*
X180872000Y-96929000D02*
X182942000Y-96929000D01*
X180872000Y-96969000D02*
X182953000Y-96969000D01*
X180872000Y-97009000D02*
X182963000Y-97009000D01*
X180872000Y-97049000D02*
X182973000Y-97049000D01*
X180872000Y-97089000D02*
X182982000Y-97089000D01*
X180872000Y-97130000D02*
X182991000Y-97130000D01*
X180872000Y-97170000D02*
X182999000Y-97170000D01*
X180872000Y-97210000D02*
X183007000Y-97210000D01*
X180872000Y-97250000D02*
X183014000Y-97250000D01*
X180872000Y-97290000D02*
X183021000Y-97290000D01*
X180872000Y-97330000D02*
X183027000Y-97330000D01*
X180872000Y-97370000D02*
X183033000Y-97370000D01*
X180872000Y-97410000D02*
X183038000Y-97410000D01*
X180872000Y-97450000D02*
X183043000Y-97450000D01*
X180872000Y-97490000D02*
X183047000Y-97490000D01*
X180872000Y-97530000D02*
X183050000Y-97530000D01*
X180872000Y-97570000D02*
X183054000Y-97570000D01*
X183102000Y-97810000D02*
G75*
G02*
X176562000Y-97810000I-3270000J0D01*
G01*
X176562000Y-97810000D02*
G75*
G02*
X183102000Y-97810000I3270000J0D01*
G01*
D15*
X125207813Y-92302540D02*
X120953634Y-92302540D01*
X120953634Y-84682540D01*
X125207813Y-84682540D01*
X125207813Y-92302540D01*
D17*
X173467813Y-102462540D02*
X121967813Y-102462540D01*
X121967813Y-74162540D01*
X173467813Y-74162540D01*
X173467813Y-102462540D01*
D15*
X121930000Y-105109000D02*
X129530000Y-105109000D01*
X121930000Y-115109000D02*
X121930000Y-105109000D01*
X127930000Y-105109000D02*
X127930000Y-115109000D01*
X129530000Y-105109000D02*
X129530000Y-115109000D01*
X129530000Y-115109000D02*
X121930000Y-115109000D01*
%LPC*%
D18*
X161300000Y-91484204D03*
X161300000Y-84300000D03*
D19*
X191500000Y-73500000D03*
D20*
X144433000Y-118749000D03*
X144433000Y-110003000D03*
X162433000Y-118745000D03*
X162433000Y-109999000D03*
D21*
X136271000Y-120650000D03*
D22*
X136271000Y-105410000D03*
D19*
X123500000Y-121500000D03*
D23*
X170789600Y-111000000D03*
X186029600Y-111000000D03*
D19*
X191500000Y-121500000D03*
D24*
X179832000Y-99060000D03*
D25*
X179832000Y-96560000D03*
D18*
X165608000Y-100965000D03*
X163068000Y-100965000D03*
X160528000Y-100965000D03*
X157988000Y-100965000D03*
X155448000Y-100965000D03*
X152908000Y-100965000D03*
X150368000Y-100965000D03*
X147828000Y-100965000D03*
X145288000Y-100965000D03*
X142748000Y-100965000D03*
X140208000Y-100965000D03*
X137668000Y-100965000D03*
X135128000Y-100965000D03*
X132588000Y-100965000D03*
X130048000Y-100965000D03*
X130048000Y-75565000D03*
X132588000Y-75565000D03*
X135128000Y-75565000D03*
X137668000Y-75565000D03*
X140208000Y-75565000D03*
X142748000Y-75565000D03*
X145288000Y-75565000D03*
X147828000Y-75565000D03*
X150368000Y-75565000D03*
X152908000Y-75565000D03*
X155448000Y-75565000D03*
X157988000Y-75565000D03*
X160528000Y-75565000D03*
X163068000Y-75565000D03*
X165608000Y-75565000D03*
D26*
X179578000Y-77089000D03*
D27*
X179578000Y-79629000D03*
X179578000Y-82169000D03*
X179578000Y-84709000D03*
X179578000Y-87249000D03*
X179578000Y-89789000D03*
D23*
X125730000Y-112649000D03*
X125730000Y-107569000D03*
%LPD*%
M02*
