G04 #@! TF.GenerationSoftware,KiCad,Pcbnew,8.0.9*
G04 #@! TF.CreationDate,2025-07-12T12:55:35+02:00*
G04 #@! TF.ProjectId,OBD_Circuit,4f42445f-4369-4726-9375-69742e6b6963,rev?*
G04 #@! TF.SameCoordinates,Original*
G04 #@! TF.FileFunction,Copper,L3,Inr*
G04 #@! TF.FilePolarity,Positive*
%FSLAX46Y46*%
G04 Gerber Fmt 4.6, Leading zero omitted, Abs format (unit mm)*
G04 Created by KiCad (PCBNEW 8.0.9) date 2025-07-12 12:55:35*
%MOMM*%
%LPD*%
G01*
G04 APERTURE LIST*
G04 #@! TA.AperFunction,ComponentPad*
%ADD10C,1.524000*%
G04 #@! TD*
G04 #@! TA.AperFunction,ComponentPad*
%ADD11R,2.600000X2.600000*%
G04 #@! TD*
G04 #@! TA.AperFunction,ComponentPad*
%ADD12O,2.600000X2.600000*%
G04 #@! TD*
G04 #@! TA.AperFunction,ComponentPad*
%ADD13C,2.500000*%
G04 #@! TD*
G04 #@! TA.AperFunction,ComponentPad*
%ADD14R,1.600000X1.600000*%
G04 #@! TD*
G04 #@! TA.AperFunction,ComponentPad*
%ADD15C,1.600000*%
G04 #@! TD*
G04 #@! TA.AperFunction,ComponentPad*
%ADD16R,2.000000X2.000000*%
G04 #@! TD*
G04 #@! TA.AperFunction,ComponentPad*
%ADD17C,2.000000*%
G04 #@! TD*
G04 #@! TA.AperFunction,ViaPad*
%ADD18C,0.600000*%
G04 #@! TD*
G04 APERTURE END LIST*
D10*
X161300000Y-91484204D03*
X161300000Y-84300000D03*
D11*
X136271000Y-120650000D03*
D12*
X136271000Y-105410000D03*
D13*
X170789600Y-111000000D03*
X186029600Y-111000000D03*
D14*
X179832000Y-99060000D03*
D15*
X179832000Y-96560000D03*
D10*
X165608000Y-100965000D03*
X163068000Y-100965000D03*
X160528000Y-100965000D03*
X157988000Y-100965000D03*
X155448000Y-100965000D03*
X152908000Y-100965000D03*
X150368000Y-100965000D03*
X147828000Y-100965000D03*
X145288000Y-100965000D03*
X142748000Y-100965000D03*
X140208000Y-100965000D03*
X137668000Y-100965000D03*
X135128000Y-100965000D03*
X132588000Y-100965000D03*
X130048000Y-100965000D03*
X130048000Y-75565000D03*
X132588000Y-75565000D03*
X135128000Y-75565000D03*
X137668000Y-75565000D03*
X140208000Y-75565000D03*
X142748000Y-75565000D03*
X145288000Y-75565000D03*
X147828000Y-75565000D03*
X150368000Y-75565000D03*
X152908000Y-75565000D03*
X155448000Y-75565000D03*
X157988000Y-75565000D03*
X160528000Y-75565000D03*
X163068000Y-75565000D03*
X165608000Y-75565000D03*
D16*
X179578000Y-77089000D03*
D17*
X179578000Y-79629000D03*
X179578000Y-82169000D03*
X179578000Y-84709000D03*
X179578000Y-87249000D03*
X179578000Y-89789000D03*
D13*
X125730000Y-112649000D03*
X125730000Y-107569000D03*
D18*
X174800000Y-91300000D03*
X149700000Y-96200000D03*
X146500000Y-96200000D03*
M02*
