G04 #@! TF.GenerationSoftware,KiCad,Pcbnew,8.0.9*
G04 #@! TF.CreationDate,2025-07-12T12:55:35+02:00*
G04 #@! TF.ProjectId,OBD_Circuit,4f42445f-4369-4726-9375-69742e6b6963,rev?*
G04 #@! TF.SameCoordinates,Original*
G04 #@! TF.FileFunction,Soldermask,Top*
G04 #@! TF.FilePolarity,Negative*
%FSLAX46Y46*%
G04 Gerber Fmt 4.6, Leading zero omitted, Abs format (unit mm)*
G04 Created by KiCad (PCBNEW 8.0.9) date 2025-07-12 12:55:35*
%MOMM*%
%LPD*%
G01*
G04 APERTURE LIST*
G04 APERTURE END LIST*
G36*
X123750295Y-119919699D02*
G01*
X123994427Y-119978310D01*
X124226385Y-120074390D01*
X124440456Y-120205573D01*
X124631371Y-120368629D01*
X124794427Y-120559544D01*
X124925610Y-120773615D01*
X125021690Y-121005573D01*
X125080301Y-121249705D01*
X125100000Y-121500000D01*
X125080301Y-121750295D01*
X125021690Y-121994427D01*
X124925610Y-122226385D01*
X124794427Y-122440456D01*
X124631371Y-122631371D01*
X124440456Y-122794427D01*
X124226385Y-122925610D01*
X123994427Y-123021690D01*
X123750295Y-123080301D01*
X123500000Y-123100000D01*
X123249705Y-123080301D01*
X123005573Y-123021690D01*
X122773615Y-122925610D01*
X122559544Y-122794427D01*
X122368629Y-122631371D01*
X122205573Y-122440456D01*
X122074390Y-122226385D01*
X121978310Y-121994427D01*
X121919699Y-121750295D01*
X121900000Y-121500000D01*
X121919699Y-121249705D01*
X121978310Y-121005573D01*
X122074390Y-120773615D01*
X122205573Y-120559544D01*
X122368629Y-120368629D01*
X122559544Y-120205573D01*
X122773615Y-120074390D01*
X123005573Y-119978310D01*
X123249705Y-119919699D01*
X123500000Y-119900000D01*
X123750295Y-119919699D01*
G37*
G36*
X191750295Y-119919699D02*
G01*
X191994427Y-119978310D01*
X192226385Y-120074390D01*
X192440456Y-120205573D01*
X192631371Y-120368629D01*
X192794427Y-120559544D01*
X192925610Y-120773615D01*
X193021690Y-121005573D01*
X193080301Y-121249705D01*
X193100000Y-121500000D01*
X193080301Y-121750295D01*
X193021690Y-121994427D01*
X192925610Y-122226385D01*
X192794427Y-122440456D01*
X192631371Y-122631371D01*
X192440456Y-122794427D01*
X192226385Y-122925610D01*
X191994427Y-123021690D01*
X191750295Y-123080301D01*
X191500000Y-123100000D01*
X191249705Y-123080301D01*
X191005573Y-123021690D01*
X190773615Y-122925610D01*
X190559544Y-122794427D01*
X190368629Y-122631371D01*
X190205573Y-122440456D01*
X190074390Y-122226385D01*
X189978310Y-121994427D01*
X189919699Y-121750295D01*
X189900000Y-121500000D01*
X189919699Y-121249705D01*
X189978310Y-121005573D01*
X190074390Y-120773615D01*
X190205573Y-120559544D01*
X190368629Y-120368629D01*
X190559544Y-120205573D01*
X190773615Y-120074390D01*
X191005573Y-119978310D01*
X191249705Y-119919699D01*
X191500000Y-119900000D01*
X191750295Y-119919699D01*
G37*
G36*
X137571000Y-121950000D02*
G01*
X134971000Y-121950000D01*
X134971000Y-119350000D01*
X137571000Y-119350000D01*
X137571000Y-121950000D01*
G37*
G36*
X145187795Y-117774267D02*
G01*
X145194706Y-117776845D01*
X145199104Y-117777373D01*
X145251105Y-117797880D01*
X145319270Y-117823304D01*
X145323384Y-117826384D01*
X145324345Y-117826763D01*
X145359279Y-117853254D01*
X145431604Y-117907396D01*
X145485764Y-117979745D01*
X145512236Y-118014654D01*
X145512614Y-118015613D01*
X145515696Y-118019730D01*
X145541130Y-118087923D01*
X145561626Y-118139895D01*
X145562153Y-118144289D01*
X145564733Y-118151205D01*
X145576000Y-118256000D01*
X145576000Y-119242000D01*
X145564733Y-119346795D01*
X145562153Y-119353710D01*
X145561626Y-119358104D01*
X145541137Y-119410058D01*
X145515696Y-119478270D01*
X145512613Y-119482387D01*
X145512236Y-119483345D01*
X145485822Y-119518176D01*
X145431604Y-119590604D01*
X145359176Y-119644822D01*
X145324345Y-119671236D01*
X145323387Y-119671613D01*
X145319270Y-119674696D01*
X145251058Y-119700137D01*
X145199104Y-119720626D01*
X145194710Y-119721153D01*
X145187795Y-119723733D01*
X145083000Y-119735000D01*
X143783000Y-119735000D01*
X143678205Y-119723733D01*
X143671289Y-119721153D01*
X143666895Y-119720626D01*
X143614923Y-119700130D01*
X143546730Y-119674696D01*
X143542613Y-119671614D01*
X143541654Y-119671236D01*
X143506745Y-119644764D01*
X143434396Y-119590604D01*
X143380254Y-119518279D01*
X143353763Y-119483345D01*
X143353384Y-119482384D01*
X143350304Y-119478270D01*
X143324880Y-119410105D01*
X143304373Y-119358104D01*
X143303845Y-119353706D01*
X143301267Y-119346795D01*
X143290000Y-119242000D01*
X143290000Y-118256000D01*
X143301267Y-118151205D01*
X143303844Y-118144293D01*
X143304373Y-118139895D01*
X143324887Y-118087876D01*
X143350304Y-118019730D01*
X143353383Y-118015616D01*
X143353763Y-118014654D01*
X143380312Y-117979642D01*
X143434396Y-117907396D01*
X143506642Y-117853312D01*
X143541654Y-117826763D01*
X143542616Y-117826383D01*
X143546730Y-117823304D01*
X143614876Y-117797887D01*
X143666895Y-117777373D01*
X143671293Y-117776844D01*
X143678205Y-117774267D01*
X143783000Y-117763000D01*
X145083000Y-117763000D01*
X145187795Y-117774267D01*
G37*
G36*
X163187795Y-117770267D02*
G01*
X163194706Y-117772845D01*
X163199104Y-117773373D01*
X163251105Y-117793880D01*
X163319270Y-117819304D01*
X163323384Y-117822384D01*
X163324345Y-117822763D01*
X163359279Y-117849254D01*
X163431604Y-117903396D01*
X163485764Y-117975745D01*
X163512236Y-118010654D01*
X163512614Y-118011613D01*
X163515696Y-118015730D01*
X163541130Y-118083923D01*
X163561626Y-118135895D01*
X163562153Y-118140289D01*
X163564733Y-118147205D01*
X163576000Y-118252000D01*
X163576000Y-119238000D01*
X163564733Y-119342795D01*
X163562153Y-119349710D01*
X163561626Y-119354104D01*
X163541137Y-119406058D01*
X163515696Y-119474270D01*
X163512613Y-119478387D01*
X163512236Y-119479345D01*
X163485822Y-119514176D01*
X163431604Y-119586604D01*
X163359176Y-119640822D01*
X163324345Y-119667236D01*
X163323387Y-119667613D01*
X163319270Y-119670696D01*
X163251058Y-119696137D01*
X163199104Y-119716626D01*
X163194710Y-119717153D01*
X163187795Y-119719733D01*
X163083000Y-119731000D01*
X161783000Y-119731000D01*
X161678205Y-119719733D01*
X161671289Y-119717153D01*
X161666895Y-119716626D01*
X161614923Y-119696130D01*
X161546730Y-119670696D01*
X161542613Y-119667614D01*
X161541654Y-119667236D01*
X161506745Y-119640764D01*
X161434396Y-119586604D01*
X161380254Y-119514279D01*
X161353763Y-119479345D01*
X161353384Y-119478384D01*
X161350304Y-119474270D01*
X161324880Y-119406105D01*
X161304373Y-119354104D01*
X161303845Y-119349706D01*
X161301267Y-119342795D01*
X161290000Y-119238000D01*
X161290000Y-118252000D01*
X161301267Y-118147205D01*
X161303844Y-118140293D01*
X161304373Y-118135895D01*
X161324887Y-118083876D01*
X161350304Y-118015730D01*
X161353383Y-118011616D01*
X161353763Y-118010654D01*
X161380312Y-117975642D01*
X161434396Y-117903396D01*
X161506642Y-117849312D01*
X161541654Y-117822763D01*
X161542616Y-117822383D01*
X161546730Y-117819304D01*
X161614876Y-117793887D01*
X161666895Y-117773373D01*
X161671293Y-117772844D01*
X161678205Y-117770267D01*
X161783000Y-117759000D01*
X163083000Y-117759000D01*
X163187795Y-117770267D01*
G37*
G36*
X125947060Y-111417990D02*
G01*
X126157525Y-111474384D01*
X126355000Y-111566468D01*
X126533485Y-111691444D01*
X126687556Y-111845515D01*
X126812532Y-112024000D01*
X126904616Y-112221475D01*
X126961010Y-112431940D01*
X126980000Y-112649000D01*
X126961010Y-112866060D01*
X126904616Y-113076525D01*
X126812532Y-113274000D01*
X126687556Y-113452485D01*
X126533485Y-113606556D01*
X126355000Y-113731532D01*
X126157525Y-113823616D01*
X125947060Y-113880010D01*
X125730000Y-113899000D01*
X125512940Y-113880010D01*
X125302475Y-113823616D01*
X125105000Y-113731532D01*
X124926515Y-113606556D01*
X124772444Y-113452485D01*
X124647468Y-113274000D01*
X124555384Y-113076525D01*
X124498990Y-112866060D01*
X124480000Y-112649000D01*
X124498990Y-112431940D01*
X124555384Y-112221475D01*
X124647468Y-112024000D01*
X124772444Y-111845515D01*
X124926515Y-111691444D01*
X125105000Y-111566468D01*
X125302475Y-111474384D01*
X125512940Y-111417990D01*
X125730000Y-111399000D01*
X125947060Y-111417990D01*
G37*
G36*
X171006660Y-109768990D02*
G01*
X171217125Y-109825384D01*
X171414600Y-109917468D01*
X171593085Y-110042444D01*
X171747156Y-110196515D01*
X171872132Y-110375000D01*
X171964216Y-110572475D01*
X172020610Y-110782940D01*
X172039600Y-111000000D01*
X172020610Y-111217060D01*
X171964216Y-111427525D01*
X171872132Y-111625000D01*
X171747156Y-111803485D01*
X171593085Y-111957556D01*
X171414600Y-112082532D01*
X171217125Y-112174616D01*
X171006660Y-112231010D01*
X170789600Y-112250000D01*
X170572540Y-112231010D01*
X170362075Y-112174616D01*
X170164600Y-112082532D01*
X169986115Y-111957556D01*
X169832044Y-111803485D01*
X169707068Y-111625000D01*
X169614984Y-111427525D01*
X169558590Y-111217060D01*
X169539600Y-111000000D01*
X169558590Y-110782940D01*
X169614984Y-110572475D01*
X169707068Y-110375000D01*
X169832044Y-110196515D01*
X169986115Y-110042444D01*
X170164600Y-109917468D01*
X170362075Y-109825384D01*
X170572540Y-109768990D01*
X170789600Y-109750000D01*
X171006660Y-109768990D01*
G37*
G36*
X186246660Y-109768990D02*
G01*
X186457125Y-109825384D01*
X186654600Y-109917468D01*
X186833085Y-110042444D01*
X186987156Y-110196515D01*
X187112132Y-110375000D01*
X187204216Y-110572475D01*
X187260610Y-110782940D01*
X187279600Y-111000000D01*
X187260610Y-111217060D01*
X187204216Y-111427525D01*
X187112132Y-111625000D01*
X186987156Y-111803485D01*
X186833085Y-111957556D01*
X186654600Y-112082532D01*
X186457125Y-112174616D01*
X186246660Y-112231010D01*
X186029600Y-112250000D01*
X185812540Y-112231010D01*
X185602075Y-112174616D01*
X185404600Y-112082532D01*
X185226115Y-111957556D01*
X185072044Y-111803485D01*
X184947068Y-111625000D01*
X184854984Y-111427525D01*
X184798590Y-111217060D01*
X184779600Y-111000000D01*
X184798590Y-110782940D01*
X184854984Y-110572475D01*
X184947068Y-110375000D01*
X185072044Y-110196515D01*
X185226115Y-110042444D01*
X185404600Y-109917468D01*
X185602075Y-109825384D01*
X185812540Y-109768990D01*
X186029600Y-109750000D01*
X186246660Y-109768990D01*
G37*
G36*
X145187795Y-109028267D02*
G01*
X145194706Y-109030845D01*
X145199104Y-109031373D01*
X145251105Y-109051880D01*
X145319270Y-109077304D01*
X145323384Y-109080384D01*
X145324345Y-109080763D01*
X145359279Y-109107254D01*
X145431604Y-109161396D01*
X145485764Y-109233745D01*
X145512236Y-109268654D01*
X145512614Y-109269613D01*
X145515696Y-109273730D01*
X145541130Y-109341923D01*
X145561626Y-109393895D01*
X145562153Y-109398289D01*
X145564733Y-109405205D01*
X145576000Y-109510000D01*
X145576000Y-110496000D01*
X145564733Y-110600795D01*
X145562153Y-110607710D01*
X145561626Y-110612104D01*
X145541137Y-110664058D01*
X145515696Y-110732270D01*
X145512613Y-110736387D01*
X145512236Y-110737345D01*
X145485822Y-110772176D01*
X145431604Y-110844604D01*
X145359176Y-110898822D01*
X145324345Y-110925236D01*
X145323387Y-110925613D01*
X145319270Y-110928696D01*
X145251058Y-110954137D01*
X145199104Y-110974626D01*
X145194710Y-110975153D01*
X145187795Y-110977733D01*
X145083000Y-110989000D01*
X143783000Y-110989000D01*
X143678205Y-110977733D01*
X143671289Y-110975153D01*
X143666895Y-110974626D01*
X143614923Y-110954130D01*
X143546730Y-110928696D01*
X143542613Y-110925614D01*
X143541654Y-110925236D01*
X143506745Y-110898764D01*
X143434396Y-110844604D01*
X143380254Y-110772279D01*
X143353763Y-110737345D01*
X143353384Y-110736384D01*
X143350304Y-110732270D01*
X143324880Y-110664105D01*
X143304373Y-110612104D01*
X143303845Y-110607706D01*
X143301267Y-110600795D01*
X143290000Y-110496000D01*
X143290000Y-109510000D01*
X143301267Y-109405205D01*
X143303844Y-109398293D01*
X143304373Y-109393895D01*
X143324887Y-109341876D01*
X143350304Y-109273730D01*
X143353383Y-109269616D01*
X143353763Y-109268654D01*
X143380312Y-109233642D01*
X143434396Y-109161396D01*
X143506642Y-109107312D01*
X143541654Y-109080763D01*
X143542616Y-109080383D01*
X143546730Y-109077304D01*
X143614876Y-109051887D01*
X143666895Y-109031373D01*
X143671293Y-109030844D01*
X143678205Y-109028267D01*
X143783000Y-109017000D01*
X145083000Y-109017000D01*
X145187795Y-109028267D01*
G37*
G36*
X163187795Y-109024267D02*
G01*
X163194706Y-109026845D01*
X163199104Y-109027373D01*
X163251105Y-109047880D01*
X163319270Y-109073304D01*
X163323384Y-109076384D01*
X163324345Y-109076763D01*
X163359279Y-109103254D01*
X163431604Y-109157396D01*
X163485764Y-109229745D01*
X163512236Y-109264654D01*
X163512614Y-109265613D01*
X163515696Y-109269730D01*
X163541130Y-109337923D01*
X163561626Y-109389895D01*
X163562153Y-109394289D01*
X163564733Y-109401205D01*
X163576000Y-109506000D01*
X163576000Y-110492000D01*
X163564733Y-110596795D01*
X163562153Y-110603710D01*
X163561626Y-110608104D01*
X163541137Y-110660058D01*
X163515696Y-110728270D01*
X163512613Y-110732387D01*
X163512236Y-110733345D01*
X163485822Y-110768176D01*
X163431604Y-110840604D01*
X163359176Y-110894822D01*
X163324345Y-110921236D01*
X163323387Y-110921613D01*
X163319270Y-110924696D01*
X163251058Y-110950137D01*
X163199104Y-110970626D01*
X163194710Y-110971153D01*
X163187795Y-110973733D01*
X163083000Y-110985000D01*
X161783000Y-110985000D01*
X161678205Y-110973733D01*
X161671289Y-110971153D01*
X161666895Y-110970626D01*
X161614923Y-110950130D01*
X161546730Y-110924696D01*
X161542613Y-110921614D01*
X161541654Y-110921236D01*
X161506745Y-110894764D01*
X161434396Y-110840604D01*
X161380254Y-110768279D01*
X161353763Y-110733345D01*
X161353384Y-110732384D01*
X161350304Y-110728270D01*
X161324880Y-110660105D01*
X161304373Y-110608104D01*
X161303845Y-110603706D01*
X161301267Y-110596795D01*
X161290000Y-110492000D01*
X161290000Y-109506000D01*
X161301267Y-109401205D01*
X161303844Y-109394293D01*
X161304373Y-109389895D01*
X161324887Y-109337876D01*
X161350304Y-109269730D01*
X161353383Y-109265616D01*
X161353763Y-109264654D01*
X161380312Y-109229642D01*
X161434396Y-109157396D01*
X161506642Y-109103312D01*
X161541654Y-109076763D01*
X161542616Y-109076383D01*
X161546730Y-109073304D01*
X161614876Y-109047887D01*
X161666895Y-109027373D01*
X161671293Y-109026844D01*
X161678205Y-109024267D01*
X161783000Y-109013000D01*
X163083000Y-109013000D01*
X163187795Y-109024267D01*
G37*
G36*
X125947060Y-106337990D02*
G01*
X126157525Y-106394384D01*
X126355000Y-106486468D01*
X126533485Y-106611444D01*
X126687556Y-106765515D01*
X126812532Y-106944000D01*
X126904616Y-107141475D01*
X126961010Y-107351940D01*
X126980000Y-107569000D01*
X126961010Y-107786060D01*
X126904616Y-107996525D01*
X126812532Y-108194000D01*
X126687556Y-108372485D01*
X126533485Y-108526556D01*
X126355000Y-108651532D01*
X126157525Y-108743616D01*
X125947060Y-108800010D01*
X125730000Y-108819000D01*
X125512940Y-108800010D01*
X125302475Y-108743616D01*
X125105000Y-108651532D01*
X124926515Y-108526556D01*
X124772444Y-108372485D01*
X124647468Y-108194000D01*
X124555384Y-107996525D01*
X124498990Y-107786060D01*
X124480000Y-107569000D01*
X124498990Y-107351940D01*
X124555384Y-107141475D01*
X124647468Y-106944000D01*
X124772444Y-106765515D01*
X124926515Y-106611444D01*
X125105000Y-106486468D01*
X125302475Y-106394384D01*
X125512940Y-106337990D01*
X125730000Y-106319000D01*
X125947060Y-106337990D01*
G37*
G36*
X136324092Y-104114645D02*
G01*
X136378334Y-104114645D01*
X136438113Y-104124620D01*
X136496743Y-104129750D01*
X136542788Y-104142088D01*
X136590082Y-104149980D01*
X136653528Y-104171760D01*
X136715626Y-104188400D01*
X136753660Y-104206135D01*
X136793120Y-104219682D01*
X136857954Y-104254768D01*
X136921000Y-104284167D01*
X136950678Y-104304947D01*
X136981920Y-104321855D01*
X137045512Y-104371351D01*
X137106624Y-104414142D01*
X137128164Y-104435682D01*
X137151326Y-104453710D01*
X137210823Y-104518341D01*
X137266858Y-104574376D01*
X137281001Y-104594575D01*
X137296721Y-104611651D01*
X137349168Y-104691927D01*
X137396833Y-104760000D01*
X137404788Y-104777060D01*
X137414134Y-104791365D01*
X137456562Y-104888091D01*
X137492600Y-104965374D01*
X137495955Y-104977896D01*
X137500368Y-104987956D01*
X137529900Y-105104581D01*
X137551250Y-105184257D01*
X137551869Y-105191335D01*
X137553066Y-105196061D01*
X137567102Y-105365451D01*
X137571000Y-105410000D01*
X137567102Y-105454552D01*
X137553066Y-105623938D01*
X137551869Y-105628663D01*
X137551250Y-105635743D01*
X137529896Y-105715436D01*
X137500368Y-105832043D01*
X137495956Y-105842101D01*
X137492600Y-105854626D01*
X137456555Y-105931924D01*
X137414134Y-106028634D01*
X137404790Y-106042936D01*
X137396833Y-106060000D01*
X137349158Y-106128086D01*
X137296721Y-106208348D01*
X137281004Y-106225420D01*
X137266858Y-106245624D01*
X137210812Y-106301669D01*
X137151326Y-106366289D01*
X137128169Y-106384312D01*
X137106624Y-106405858D01*
X137045499Y-106448657D01*
X136981920Y-106498144D01*
X136950684Y-106515047D01*
X136921000Y-106535833D01*
X136857941Y-106565237D01*
X136793120Y-106600317D01*
X136753669Y-106613860D01*
X136715626Y-106631600D01*
X136653515Y-106648242D01*
X136590082Y-106670019D01*
X136542796Y-106677909D01*
X136496743Y-106690250D01*
X136438109Y-106695379D01*
X136378334Y-106705355D01*
X136324092Y-106705355D01*
X136271000Y-106710000D01*
X136217908Y-106705355D01*
X136163666Y-106705355D01*
X136103889Y-106695379D01*
X136045257Y-106690250D01*
X135999204Y-106677910D01*
X135951917Y-106670019D01*
X135888480Y-106648241D01*
X135826374Y-106631600D01*
X135788333Y-106613861D01*
X135748879Y-106600317D01*
X135684051Y-106565234D01*
X135621000Y-106535833D01*
X135591318Y-106515050D01*
X135560079Y-106498144D01*
X135496490Y-106448650D01*
X135435376Y-106405858D01*
X135413834Y-106384316D01*
X135390673Y-106366289D01*
X135331175Y-106301657D01*
X135275142Y-106245624D01*
X135260998Y-106225425D01*
X135245278Y-106208348D01*
X135192826Y-106128064D01*
X135145167Y-106060000D01*
X135137212Y-106042941D01*
X135127865Y-106028634D01*
X135085427Y-105931887D01*
X135049400Y-105854626D01*
X135046045Y-105842106D01*
X135041631Y-105832043D01*
X135012085Y-105715368D01*
X134990750Y-105635743D01*
X134990131Y-105628669D01*
X134988933Y-105623938D01*
X134974878Y-105454336D01*
X134971000Y-105410000D01*
X134974878Y-105365667D01*
X134988933Y-105196061D01*
X134990131Y-105191328D01*
X134990750Y-105184257D01*
X135012081Y-105104649D01*
X135041631Y-104987956D01*
X135046046Y-104977890D01*
X135049400Y-104965374D01*
X135085420Y-104888127D01*
X135127865Y-104791365D01*
X135137214Y-104777055D01*
X135145167Y-104760000D01*
X135192816Y-104691948D01*
X135245278Y-104611651D01*
X135261001Y-104594570D01*
X135275142Y-104574376D01*
X135331163Y-104518354D01*
X135390673Y-104453710D01*
X135413838Y-104435679D01*
X135435376Y-104414142D01*
X135496478Y-104371358D01*
X135560079Y-104321855D01*
X135591325Y-104304945D01*
X135621000Y-104284167D01*
X135684037Y-104254772D01*
X135748879Y-104219682D01*
X135788341Y-104206134D01*
X135826374Y-104188400D01*
X135888466Y-104171762D01*
X135951917Y-104149980D01*
X135999212Y-104142087D01*
X136045257Y-104129750D01*
X136103885Y-104124620D01*
X136163666Y-104114645D01*
X136217908Y-104114645D01*
X136271000Y-104110000D01*
X136324092Y-104114645D01*
G37*
G36*
X130217561Y-100222105D02*
G01*
X130378619Y-100278462D01*
X130523099Y-100369244D01*
X130643756Y-100489901D01*
X130734538Y-100634381D01*
X130790895Y-100795439D01*
X130810000Y-100965000D01*
X130790895Y-101134561D01*
X130734538Y-101295619D01*
X130643756Y-101440099D01*
X130523099Y-101560756D01*
X130378619Y-101651538D01*
X130217561Y-101707895D01*
X130048000Y-101727000D01*
X129878439Y-101707895D01*
X129717381Y-101651538D01*
X129572901Y-101560756D01*
X129452244Y-101440099D01*
X129361462Y-101295619D01*
X129305105Y-101134561D01*
X129286000Y-100965000D01*
X129305105Y-100795439D01*
X129361462Y-100634381D01*
X129452244Y-100489901D01*
X129572901Y-100369244D01*
X129717381Y-100278462D01*
X129878439Y-100222105D01*
X130048000Y-100203000D01*
X130217561Y-100222105D01*
G37*
G36*
X132757561Y-100222105D02*
G01*
X132918619Y-100278462D01*
X133063099Y-100369244D01*
X133183756Y-100489901D01*
X133274538Y-100634381D01*
X133330895Y-100795439D01*
X133350000Y-100965000D01*
X133330895Y-101134561D01*
X133274538Y-101295619D01*
X133183756Y-101440099D01*
X133063099Y-101560756D01*
X132918619Y-101651538D01*
X132757561Y-101707895D01*
X132588000Y-101727000D01*
X132418439Y-101707895D01*
X132257381Y-101651538D01*
X132112901Y-101560756D01*
X131992244Y-101440099D01*
X131901462Y-101295619D01*
X131845105Y-101134561D01*
X131826000Y-100965000D01*
X131845105Y-100795439D01*
X131901462Y-100634381D01*
X131992244Y-100489901D01*
X132112901Y-100369244D01*
X132257381Y-100278462D01*
X132418439Y-100222105D01*
X132588000Y-100203000D01*
X132757561Y-100222105D01*
G37*
G36*
X135297561Y-100222105D02*
G01*
X135458619Y-100278462D01*
X135603099Y-100369244D01*
X135723756Y-100489901D01*
X135814538Y-100634381D01*
X135870895Y-100795439D01*
X135890000Y-100965000D01*
X135870895Y-101134561D01*
X135814538Y-101295619D01*
X135723756Y-101440099D01*
X135603099Y-101560756D01*
X135458619Y-101651538D01*
X135297561Y-101707895D01*
X135128000Y-101727000D01*
X134958439Y-101707895D01*
X134797381Y-101651538D01*
X134652901Y-101560756D01*
X134532244Y-101440099D01*
X134441462Y-101295619D01*
X134385105Y-101134561D01*
X134366000Y-100965000D01*
X134385105Y-100795439D01*
X134441462Y-100634381D01*
X134532244Y-100489901D01*
X134652901Y-100369244D01*
X134797381Y-100278462D01*
X134958439Y-100222105D01*
X135128000Y-100203000D01*
X135297561Y-100222105D01*
G37*
G36*
X137837561Y-100222105D02*
G01*
X137998619Y-100278462D01*
X138143099Y-100369244D01*
X138263756Y-100489901D01*
X138354538Y-100634381D01*
X138410895Y-100795439D01*
X138430000Y-100965000D01*
X138410895Y-101134561D01*
X138354538Y-101295619D01*
X138263756Y-101440099D01*
X138143099Y-101560756D01*
X137998619Y-101651538D01*
X137837561Y-101707895D01*
X137668000Y-101727000D01*
X137498439Y-101707895D01*
X137337381Y-101651538D01*
X137192901Y-101560756D01*
X137072244Y-101440099D01*
X136981462Y-101295619D01*
X136925105Y-101134561D01*
X136906000Y-100965000D01*
X136925105Y-100795439D01*
X136981462Y-100634381D01*
X137072244Y-100489901D01*
X137192901Y-100369244D01*
X137337381Y-100278462D01*
X137498439Y-100222105D01*
X137668000Y-100203000D01*
X137837561Y-100222105D01*
G37*
G36*
X140377561Y-100222105D02*
G01*
X140538619Y-100278462D01*
X140683099Y-100369244D01*
X140803756Y-100489901D01*
X140894538Y-100634381D01*
X140950895Y-100795439D01*
X140970000Y-100965000D01*
X140950895Y-101134561D01*
X140894538Y-101295619D01*
X140803756Y-101440099D01*
X140683099Y-101560756D01*
X140538619Y-101651538D01*
X140377561Y-101707895D01*
X140208000Y-101727000D01*
X140038439Y-101707895D01*
X139877381Y-101651538D01*
X139732901Y-101560756D01*
X139612244Y-101440099D01*
X139521462Y-101295619D01*
X139465105Y-101134561D01*
X139446000Y-100965000D01*
X139465105Y-100795439D01*
X139521462Y-100634381D01*
X139612244Y-100489901D01*
X139732901Y-100369244D01*
X139877381Y-100278462D01*
X140038439Y-100222105D01*
X140208000Y-100203000D01*
X140377561Y-100222105D01*
G37*
G36*
X142917561Y-100222105D02*
G01*
X143078619Y-100278462D01*
X143223099Y-100369244D01*
X143343756Y-100489901D01*
X143434538Y-100634381D01*
X143490895Y-100795439D01*
X143510000Y-100965000D01*
X143490895Y-101134561D01*
X143434538Y-101295619D01*
X143343756Y-101440099D01*
X143223099Y-101560756D01*
X143078619Y-101651538D01*
X142917561Y-101707895D01*
X142748000Y-101727000D01*
X142578439Y-101707895D01*
X142417381Y-101651538D01*
X142272901Y-101560756D01*
X142152244Y-101440099D01*
X142061462Y-101295619D01*
X142005105Y-101134561D01*
X141986000Y-100965000D01*
X142005105Y-100795439D01*
X142061462Y-100634381D01*
X142152244Y-100489901D01*
X142272901Y-100369244D01*
X142417381Y-100278462D01*
X142578439Y-100222105D01*
X142748000Y-100203000D01*
X142917561Y-100222105D01*
G37*
G36*
X145457561Y-100222105D02*
G01*
X145618619Y-100278462D01*
X145763099Y-100369244D01*
X145883756Y-100489901D01*
X145974538Y-100634381D01*
X146030895Y-100795439D01*
X146050000Y-100965000D01*
X146030895Y-101134561D01*
X145974538Y-101295619D01*
X145883756Y-101440099D01*
X145763099Y-101560756D01*
X145618619Y-101651538D01*
X145457561Y-101707895D01*
X145288000Y-101727000D01*
X145118439Y-101707895D01*
X144957381Y-101651538D01*
X144812901Y-101560756D01*
X144692244Y-101440099D01*
X144601462Y-101295619D01*
X144545105Y-101134561D01*
X144526000Y-100965000D01*
X144545105Y-100795439D01*
X144601462Y-100634381D01*
X144692244Y-100489901D01*
X144812901Y-100369244D01*
X144957381Y-100278462D01*
X145118439Y-100222105D01*
X145288000Y-100203000D01*
X145457561Y-100222105D01*
G37*
G36*
X147997561Y-100222105D02*
G01*
X148158619Y-100278462D01*
X148303099Y-100369244D01*
X148423756Y-100489901D01*
X148514538Y-100634381D01*
X148570895Y-100795439D01*
X148590000Y-100965000D01*
X148570895Y-101134561D01*
X148514538Y-101295619D01*
X148423756Y-101440099D01*
X148303099Y-101560756D01*
X148158619Y-101651538D01*
X147997561Y-101707895D01*
X147828000Y-101727000D01*
X147658439Y-101707895D01*
X147497381Y-101651538D01*
X147352901Y-101560756D01*
X147232244Y-101440099D01*
X147141462Y-101295619D01*
X147085105Y-101134561D01*
X147066000Y-100965000D01*
X147085105Y-100795439D01*
X147141462Y-100634381D01*
X147232244Y-100489901D01*
X147352901Y-100369244D01*
X147497381Y-100278462D01*
X147658439Y-100222105D01*
X147828000Y-100203000D01*
X147997561Y-100222105D01*
G37*
G36*
X150537561Y-100222105D02*
G01*
X150698619Y-100278462D01*
X150843099Y-100369244D01*
X150963756Y-100489901D01*
X151054538Y-100634381D01*
X151110895Y-100795439D01*
X151130000Y-100965000D01*
X151110895Y-101134561D01*
X151054538Y-101295619D01*
X150963756Y-101440099D01*
X150843099Y-101560756D01*
X150698619Y-101651538D01*
X150537561Y-101707895D01*
X150368000Y-101727000D01*
X150198439Y-101707895D01*
X150037381Y-101651538D01*
X149892901Y-101560756D01*
X149772244Y-101440099D01*
X149681462Y-101295619D01*
X149625105Y-101134561D01*
X149606000Y-100965000D01*
X149625105Y-100795439D01*
X149681462Y-100634381D01*
X149772244Y-100489901D01*
X149892901Y-100369244D01*
X150037381Y-100278462D01*
X150198439Y-100222105D01*
X150368000Y-100203000D01*
X150537561Y-100222105D01*
G37*
G36*
X153077561Y-100222105D02*
G01*
X153238619Y-100278462D01*
X153383099Y-100369244D01*
X153503756Y-100489901D01*
X153594538Y-100634381D01*
X153650895Y-100795439D01*
X153670000Y-100965000D01*
X153650895Y-101134561D01*
X153594538Y-101295619D01*
X153503756Y-101440099D01*
X153383099Y-101560756D01*
X153238619Y-101651538D01*
X153077561Y-101707895D01*
X152908000Y-101727000D01*
X152738439Y-101707895D01*
X152577381Y-101651538D01*
X152432901Y-101560756D01*
X152312244Y-101440099D01*
X152221462Y-101295619D01*
X152165105Y-101134561D01*
X152146000Y-100965000D01*
X152165105Y-100795439D01*
X152221462Y-100634381D01*
X152312244Y-100489901D01*
X152432901Y-100369244D01*
X152577381Y-100278462D01*
X152738439Y-100222105D01*
X152908000Y-100203000D01*
X153077561Y-100222105D01*
G37*
G36*
X155617561Y-100222105D02*
G01*
X155778619Y-100278462D01*
X155923099Y-100369244D01*
X156043756Y-100489901D01*
X156134538Y-100634381D01*
X156190895Y-100795439D01*
X156210000Y-100965000D01*
X156190895Y-101134561D01*
X156134538Y-101295619D01*
X156043756Y-101440099D01*
X155923099Y-101560756D01*
X155778619Y-101651538D01*
X155617561Y-101707895D01*
X155448000Y-101727000D01*
X155278439Y-101707895D01*
X155117381Y-101651538D01*
X154972901Y-101560756D01*
X154852244Y-101440099D01*
X154761462Y-101295619D01*
X154705105Y-101134561D01*
X154686000Y-100965000D01*
X154705105Y-100795439D01*
X154761462Y-100634381D01*
X154852244Y-100489901D01*
X154972901Y-100369244D01*
X155117381Y-100278462D01*
X155278439Y-100222105D01*
X155448000Y-100203000D01*
X155617561Y-100222105D01*
G37*
G36*
X158157561Y-100222105D02*
G01*
X158318619Y-100278462D01*
X158463099Y-100369244D01*
X158583756Y-100489901D01*
X158674538Y-100634381D01*
X158730895Y-100795439D01*
X158750000Y-100965000D01*
X158730895Y-101134561D01*
X158674538Y-101295619D01*
X158583756Y-101440099D01*
X158463099Y-101560756D01*
X158318619Y-101651538D01*
X158157561Y-101707895D01*
X157988000Y-101727000D01*
X157818439Y-101707895D01*
X157657381Y-101651538D01*
X157512901Y-101560756D01*
X157392244Y-101440099D01*
X157301462Y-101295619D01*
X157245105Y-101134561D01*
X157226000Y-100965000D01*
X157245105Y-100795439D01*
X157301462Y-100634381D01*
X157392244Y-100489901D01*
X157512901Y-100369244D01*
X157657381Y-100278462D01*
X157818439Y-100222105D01*
X157988000Y-100203000D01*
X158157561Y-100222105D01*
G37*
G36*
X160697561Y-100222105D02*
G01*
X160858619Y-100278462D01*
X161003099Y-100369244D01*
X161123756Y-100489901D01*
X161214538Y-100634381D01*
X161270895Y-100795439D01*
X161290000Y-100965000D01*
X161270895Y-101134561D01*
X161214538Y-101295619D01*
X161123756Y-101440099D01*
X161003099Y-101560756D01*
X160858619Y-101651538D01*
X160697561Y-101707895D01*
X160528000Y-101727000D01*
X160358439Y-101707895D01*
X160197381Y-101651538D01*
X160052901Y-101560756D01*
X159932244Y-101440099D01*
X159841462Y-101295619D01*
X159785105Y-101134561D01*
X159766000Y-100965000D01*
X159785105Y-100795439D01*
X159841462Y-100634381D01*
X159932244Y-100489901D01*
X160052901Y-100369244D01*
X160197381Y-100278462D01*
X160358439Y-100222105D01*
X160528000Y-100203000D01*
X160697561Y-100222105D01*
G37*
G36*
X163237561Y-100222105D02*
G01*
X163398619Y-100278462D01*
X163543099Y-100369244D01*
X163663756Y-100489901D01*
X163754538Y-100634381D01*
X163810895Y-100795439D01*
X163830000Y-100965000D01*
X163810895Y-101134561D01*
X163754538Y-101295619D01*
X163663756Y-101440099D01*
X163543099Y-101560756D01*
X163398619Y-101651538D01*
X163237561Y-101707895D01*
X163068000Y-101727000D01*
X162898439Y-101707895D01*
X162737381Y-101651538D01*
X162592901Y-101560756D01*
X162472244Y-101440099D01*
X162381462Y-101295619D01*
X162325105Y-101134561D01*
X162306000Y-100965000D01*
X162325105Y-100795439D01*
X162381462Y-100634381D01*
X162472244Y-100489901D01*
X162592901Y-100369244D01*
X162737381Y-100278462D01*
X162898439Y-100222105D01*
X163068000Y-100203000D01*
X163237561Y-100222105D01*
G37*
G36*
X165777561Y-100222105D02*
G01*
X165938619Y-100278462D01*
X166083099Y-100369244D01*
X166203756Y-100489901D01*
X166294538Y-100634381D01*
X166350895Y-100795439D01*
X166370000Y-100965000D01*
X166350895Y-101134561D01*
X166294538Y-101295619D01*
X166203756Y-101440099D01*
X166083099Y-101560756D01*
X165938619Y-101651538D01*
X165777561Y-101707895D01*
X165608000Y-101727000D01*
X165438439Y-101707895D01*
X165277381Y-101651538D01*
X165132901Y-101560756D01*
X165012244Y-101440099D01*
X164921462Y-101295619D01*
X164865105Y-101134561D01*
X164846000Y-100965000D01*
X164865105Y-100795439D01*
X164921462Y-100634381D01*
X165012244Y-100489901D01*
X165132901Y-100369244D01*
X165277381Y-100278462D01*
X165438439Y-100222105D01*
X165608000Y-100203000D01*
X165777561Y-100222105D01*
G37*
G36*
X180632000Y-99860000D02*
G01*
X179032000Y-99860000D01*
X179032000Y-98260000D01*
X180632000Y-98260000D01*
X180632000Y-99860000D01*
G37*
G36*
X179873811Y-95764711D02*
G01*
X179915588Y-95764711D01*
X179962718Y-95774728D01*
X180010017Y-95780058D01*
X180044408Y-95792092D01*
X180079110Y-95799468D01*
X180129117Y-95821733D01*
X180179107Y-95839225D01*
X180205128Y-95855575D01*
X180231835Y-95867466D01*
X180281633Y-95903646D01*
X180330792Y-95934535D01*
X180348444Y-95952187D01*
X180367084Y-95965730D01*
X180413165Y-96016908D01*
X180457465Y-96061208D01*
X180467654Y-96077424D01*
X180478946Y-96089965D01*
X180517573Y-96156870D01*
X180552775Y-96212893D01*
X180557170Y-96225453D01*
X180562535Y-96234746D01*
X180590010Y-96319305D01*
X180611942Y-96381983D01*
X180612773Y-96389363D01*
X180614195Y-96393738D01*
X180627076Y-96516306D01*
X180632000Y-96560000D01*
X180627076Y-96603697D01*
X180614195Y-96726261D01*
X180612773Y-96730635D01*
X180611942Y-96738017D01*
X180590005Y-96800707D01*
X180562535Y-96885253D01*
X180557171Y-96894543D01*
X180552775Y-96907107D01*
X180517566Y-96963140D01*
X180478946Y-97030034D01*
X180467656Y-97042572D01*
X180457465Y-97058792D01*
X180413155Y-97103101D01*
X180367084Y-97154269D01*
X180348448Y-97167808D01*
X180330792Y-97185465D01*
X180281623Y-97216359D01*
X180231835Y-97252533D01*
X180205134Y-97264421D01*
X180179107Y-97280775D01*
X180129107Y-97298270D01*
X180079110Y-97320531D01*
X180044414Y-97327905D01*
X180010017Y-97339942D01*
X179962715Y-97345271D01*
X179915588Y-97355289D01*
X179873811Y-97355289D01*
X179832000Y-97360000D01*
X179790189Y-97355289D01*
X179748412Y-97355289D01*
X179701284Y-97345271D01*
X179653983Y-97339942D01*
X179619586Y-97327906D01*
X179584889Y-97320531D01*
X179534887Y-97298268D01*
X179484893Y-97280775D01*
X179458868Y-97264422D01*
X179432164Y-97252533D01*
X179382369Y-97216355D01*
X179333208Y-97185465D01*
X179315554Y-97167811D01*
X179296915Y-97154269D01*
X179250833Y-97103090D01*
X179206535Y-97058792D01*
X179196345Y-97042575D01*
X179185053Y-97030034D01*
X179146420Y-96963120D01*
X179111225Y-96907107D01*
X179106830Y-96894547D01*
X179101464Y-96885253D01*
X179073980Y-96800667D01*
X179052058Y-96738017D01*
X179051226Y-96730639D01*
X179049804Y-96726261D01*
X179036908Y-96603565D01*
X179032000Y-96560000D01*
X179036908Y-96516438D01*
X179049804Y-96393738D01*
X179051226Y-96389358D01*
X179052058Y-96381983D01*
X179073975Y-96319345D01*
X179101464Y-96234746D01*
X179106831Y-96225449D01*
X179111225Y-96212893D01*
X179146413Y-96156890D01*
X179185053Y-96089965D01*
X179196347Y-96077421D01*
X179206535Y-96061208D01*
X179250826Y-96016916D01*
X179296917Y-95965728D01*
X179315559Y-95952183D01*
X179333208Y-95934535D01*
X179382354Y-95903654D01*
X179432162Y-95867467D01*
X179458873Y-95855574D01*
X179484893Y-95839225D01*
X179534877Y-95821734D01*
X179584889Y-95799468D01*
X179619592Y-95792091D01*
X179653983Y-95780058D01*
X179701281Y-95774728D01*
X179748412Y-95764711D01*
X179790189Y-95764711D01*
X179832000Y-95760000D01*
X179873811Y-95764711D01*
G37*
G36*
X161469561Y-90741309D02*
G01*
X161630619Y-90797666D01*
X161775099Y-90888448D01*
X161895756Y-91009105D01*
X161986538Y-91153585D01*
X162042895Y-91314643D01*
X162062000Y-91484204D01*
X162042895Y-91653765D01*
X161986538Y-91814823D01*
X161895756Y-91959303D01*
X161775099Y-92079960D01*
X161630619Y-92170742D01*
X161469561Y-92227099D01*
X161300000Y-92246204D01*
X161130439Y-92227099D01*
X160969381Y-92170742D01*
X160824901Y-92079960D01*
X160704244Y-91959303D01*
X160613462Y-91814823D01*
X160557105Y-91653765D01*
X160538000Y-91484204D01*
X160557105Y-91314643D01*
X160613462Y-91153585D01*
X160704244Y-91009105D01*
X160824901Y-90888448D01*
X160969381Y-90797666D01*
X161130439Y-90741309D01*
X161300000Y-90722204D01*
X161469561Y-90741309D01*
G37*
G36*
X179773090Y-88808215D02*
G01*
X179960683Y-88865120D01*
X180133570Y-88957530D01*
X180285107Y-89081893D01*
X180409470Y-89233430D01*
X180501880Y-89406317D01*
X180558785Y-89593910D01*
X180578000Y-89789000D01*
X180558785Y-89984090D01*
X180501880Y-90171683D01*
X180409470Y-90344570D01*
X180285107Y-90496107D01*
X180133570Y-90620470D01*
X179960683Y-90712880D01*
X179773090Y-90769785D01*
X179578000Y-90789000D01*
X179382910Y-90769785D01*
X179195317Y-90712880D01*
X179022430Y-90620470D01*
X178870893Y-90496107D01*
X178746530Y-90344570D01*
X178654120Y-90171683D01*
X178597215Y-89984090D01*
X178578000Y-89789000D01*
X178597215Y-89593910D01*
X178654120Y-89406317D01*
X178746530Y-89233430D01*
X178870893Y-89081893D01*
X179022430Y-88957530D01*
X179195317Y-88865120D01*
X179382910Y-88808215D01*
X179578000Y-88789000D01*
X179773090Y-88808215D01*
G37*
G36*
X179773090Y-86268215D02*
G01*
X179960683Y-86325120D01*
X180133570Y-86417530D01*
X180285107Y-86541893D01*
X180409470Y-86693430D01*
X180501880Y-86866317D01*
X180558785Y-87053910D01*
X180578000Y-87249000D01*
X180558785Y-87444090D01*
X180501880Y-87631683D01*
X180409470Y-87804570D01*
X180285107Y-87956107D01*
X180133570Y-88080470D01*
X179960683Y-88172880D01*
X179773090Y-88229785D01*
X179578000Y-88249000D01*
X179382910Y-88229785D01*
X179195317Y-88172880D01*
X179022430Y-88080470D01*
X178870893Y-87956107D01*
X178746530Y-87804570D01*
X178654120Y-87631683D01*
X178597215Y-87444090D01*
X178578000Y-87249000D01*
X178597215Y-87053910D01*
X178654120Y-86866317D01*
X178746530Y-86693430D01*
X178870893Y-86541893D01*
X179022430Y-86417530D01*
X179195317Y-86325120D01*
X179382910Y-86268215D01*
X179578000Y-86249000D01*
X179773090Y-86268215D01*
G37*
G36*
X179773090Y-83728215D02*
G01*
X179960683Y-83785120D01*
X180133570Y-83877530D01*
X180285107Y-84001893D01*
X180409470Y-84153430D01*
X180501880Y-84326317D01*
X180558785Y-84513910D01*
X180578000Y-84709000D01*
X180558785Y-84904090D01*
X180501880Y-85091683D01*
X180409470Y-85264570D01*
X180285107Y-85416107D01*
X180133570Y-85540470D01*
X179960683Y-85632880D01*
X179773090Y-85689785D01*
X179578000Y-85709000D01*
X179382910Y-85689785D01*
X179195317Y-85632880D01*
X179022430Y-85540470D01*
X178870893Y-85416107D01*
X178746530Y-85264570D01*
X178654120Y-85091683D01*
X178597215Y-84904090D01*
X178578000Y-84709000D01*
X178597215Y-84513910D01*
X178654120Y-84326317D01*
X178746530Y-84153430D01*
X178870893Y-84001893D01*
X179022430Y-83877530D01*
X179195317Y-83785120D01*
X179382910Y-83728215D01*
X179578000Y-83709000D01*
X179773090Y-83728215D01*
G37*
G36*
X161469561Y-83557105D02*
G01*
X161630619Y-83613462D01*
X161775099Y-83704244D01*
X161895756Y-83824901D01*
X161986538Y-83969381D01*
X162042895Y-84130439D01*
X162062000Y-84300000D01*
X162042895Y-84469561D01*
X161986538Y-84630619D01*
X161895756Y-84775099D01*
X161775099Y-84895756D01*
X161630619Y-84986538D01*
X161469561Y-85042895D01*
X161300000Y-85062000D01*
X161130439Y-85042895D01*
X160969381Y-84986538D01*
X160824901Y-84895756D01*
X160704244Y-84775099D01*
X160613462Y-84630619D01*
X160557105Y-84469561D01*
X160538000Y-84300000D01*
X160557105Y-84130439D01*
X160613462Y-83969381D01*
X160704244Y-83824901D01*
X160824901Y-83704244D01*
X160969381Y-83613462D01*
X161130439Y-83557105D01*
X161300000Y-83538000D01*
X161469561Y-83557105D01*
G37*
G36*
X179773090Y-81188215D02*
G01*
X179960683Y-81245120D01*
X180133570Y-81337530D01*
X180285107Y-81461893D01*
X180409470Y-81613430D01*
X180501880Y-81786317D01*
X180558785Y-81973910D01*
X180578000Y-82169000D01*
X180558785Y-82364090D01*
X180501880Y-82551683D01*
X180409470Y-82724570D01*
X180285107Y-82876107D01*
X180133570Y-83000470D01*
X179960683Y-83092880D01*
X179773090Y-83149785D01*
X179578000Y-83169000D01*
X179382910Y-83149785D01*
X179195317Y-83092880D01*
X179022430Y-83000470D01*
X178870893Y-82876107D01*
X178746530Y-82724570D01*
X178654120Y-82551683D01*
X178597215Y-82364090D01*
X178578000Y-82169000D01*
X178597215Y-81973910D01*
X178654120Y-81786317D01*
X178746530Y-81613430D01*
X178870893Y-81461893D01*
X179022430Y-81337530D01*
X179195317Y-81245120D01*
X179382910Y-81188215D01*
X179578000Y-81169000D01*
X179773090Y-81188215D01*
G37*
G36*
X179773090Y-78648215D02*
G01*
X179960683Y-78705120D01*
X180133570Y-78797530D01*
X180285107Y-78921893D01*
X180409470Y-79073430D01*
X180501880Y-79246317D01*
X180558785Y-79433910D01*
X180578000Y-79629000D01*
X180558785Y-79824090D01*
X180501880Y-80011683D01*
X180409470Y-80184570D01*
X180285107Y-80336107D01*
X180133570Y-80460470D01*
X179960683Y-80552880D01*
X179773090Y-80609785D01*
X179578000Y-80629000D01*
X179382910Y-80609785D01*
X179195317Y-80552880D01*
X179022430Y-80460470D01*
X178870893Y-80336107D01*
X178746530Y-80184570D01*
X178654120Y-80011683D01*
X178597215Y-79824090D01*
X178578000Y-79629000D01*
X178597215Y-79433910D01*
X178654120Y-79246317D01*
X178746530Y-79073430D01*
X178870893Y-78921893D01*
X179022430Y-78797530D01*
X179195317Y-78705120D01*
X179382910Y-78648215D01*
X179578000Y-78629000D01*
X179773090Y-78648215D01*
G37*
G36*
X180578000Y-78089000D02*
G01*
X178578000Y-78089000D01*
X178578000Y-76089000D01*
X180578000Y-76089000D01*
X180578000Y-78089000D01*
G37*
G36*
X130217561Y-74822105D02*
G01*
X130378619Y-74878462D01*
X130523099Y-74969244D01*
X130643756Y-75089901D01*
X130734538Y-75234381D01*
X130790895Y-75395439D01*
X130810000Y-75565000D01*
X130790895Y-75734561D01*
X130734538Y-75895619D01*
X130643756Y-76040099D01*
X130523099Y-76160756D01*
X130378619Y-76251538D01*
X130217561Y-76307895D01*
X130048000Y-76327000D01*
X129878439Y-76307895D01*
X129717381Y-76251538D01*
X129572901Y-76160756D01*
X129452244Y-76040099D01*
X129361462Y-75895619D01*
X129305105Y-75734561D01*
X129286000Y-75565000D01*
X129305105Y-75395439D01*
X129361462Y-75234381D01*
X129452244Y-75089901D01*
X129572901Y-74969244D01*
X129717381Y-74878462D01*
X129878439Y-74822105D01*
X130048000Y-74803000D01*
X130217561Y-74822105D01*
G37*
G36*
X132757561Y-74822105D02*
G01*
X132918619Y-74878462D01*
X133063099Y-74969244D01*
X133183756Y-75089901D01*
X133274538Y-75234381D01*
X133330895Y-75395439D01*
X133350000Y-75565000D01*
X133330895Y-75734561D01*
X133274538Y-75895619D01*
X133183756Y-76040099D01*
X133063099Y-76160756D01*
X132918619Y-76251538D01*
X132757561Y-76307895D01*
X132588000Y-76327000D01*
X132418439Y-76307895D01*
X132257381Y-76251538D01*
X132112901Y-76160756D01*
X131992244Y-76040099D01*
X131901462Y-75895619D01*
X131845105Y-75734561D01*
X131826000Y-75565000D01*
X131845105Y-75395439D01*
X131901462Y-75234381D01*
X131992244Y-75089901D01*
X132112901Y-74969244D01*
X132257381Y-74878462D01*
X132418439Y-74822105D01*
X132588000Y-74803000D01*
X132757561Y-74822105D01*
G37*
G36*
X135297561Y-74822105D02*
G01*
X135458619Y-74878462D01*
X135603099Y-74969244D01*
X135723756Y-75089901D01*
X135814538Y-75234381D01*
X135870895Y-75395439D01*
X135890000Y-75565000D01*
X135870895Y-75734561D01*
X135814538Y-75895619D01*
X135723756Y-76040099D01*
X135603099Y-76160756D01*
X135458619Y-76251538D01*
X135297561Y-76307895D01*
X135128000Y-76327000D01*
X134958439Y-76307895D01*
X134797381Y-76251538D01*
X134652901Y-76160756D01*
X134532244Y-76040099D01*
X134441462Y-75895619D01*
X134385105Y-75734561D01*
X134366000Y-75565000D01*
X134385105Y-75395439D01*
X134441462Y-75234381D01*
X134532244Y-75089901D01*
X134652901Y-74969244D01*
X134797381Y-74878462D01*
X134958439Y-74822105D01*
X135128000Y-74803000D01*
X135297561Y-74822105D01*
G37*
G36*
X137837561Y-74822105D02*
G01*
X137998619Y-74878462D01*
X138143099Y-74969244D01*
X138263756Y-75089901D01*
X138354538Y-75234381D01*
X138410895Y-75395439D01*
X138430000Y-75565000D01*
X138410895Y-75734561D01*
X138354538Y-75895619D01*
X138263756Y-76040099D01*
X138143099Y-76160756D01*
X137998619Y-76251538D01*
X137837561Y-76307895D01*
X137668000Y-76327000D01*
X137498439Y-76307895D01*
X137337381Y-76251538D01*
X137192901Y-76160756D01*
X137072244Y-76040099D01*
X136981462Y-75895619D01*
X136925105Y-75734561D01*
X136906000Y-75565000D01*
X136925105Y-75395439D01*
X136981462Y-75234381D01*
X137072244Y-75089901D01*
X137192901Y-74969244D01*
X137337381Y-74878462D01*
X137498439Y-74822105D01*
X137668000Y-74803000D01*
X137837561Y-74822105D01*
G37*
G36*
X140377561Y-74822105D02*
G01*
X140538619Y-74878462D01*
X140683099Y-74969244D01*
X140803756Y-75089901D01*
X140894538Y-75234381D01*
X140950895Y-75395439D01*
X140970000Y-75565000D01*
X140950895Y-75734561D01*
X140894538Y-75895619D01*
X140803756Y-76040099D01*
X140683099Y-76160756D01*
X140538619Y-76251538D01*
X140377561Y-76307895D01*
X140208000Y-76327000D01*
X140038439Y-76307895D01*
X139877381Y-76251538D01*
X139732901Y-76160756D01*
X139612244Y-76040099D01*
X139521462Y-75895619D01*
X139465105Y-75734561D01*
X139446000Y-75565000D01*
X139465105Y-75395439D01*
X139521462Y-75234381D01*
X139612244Y-75089901D01*
X139732901Y-74969244D01*
X139877381Y-74878462D01*
X140038439Y-74822105D01*
X140208000Y-74803000D01*
X140377561Y-74822105D01*
G37*
G36*
X142917561Y-74822105D02*
G01*
X143078619Y-74878462D01*
X143223099Y-74969244D01*
X143343756Y-75089901D01*
X143434538Y-75234381D01*
X143490895Y-75395439D01*
X143510000Y-75565000D01*
X143490895Y-75734561D01*
X143434538Y-75895619D01*
X143343756Y-76040099D01*
X143223099Y-76160756D01*
X143078619Y-76251538D01*
X142917561Y-76307895D01*
X142748000Y-76327000D01*
X142578439Y-76307895D01*
X142417381Y-76251538D01*
X142272901Y-76160756D01*
X142152244Y-76040099D01*
X142061462Y-75895619D01*
X142005105Y-75734561D01*
X141986000Y-75565000D01*
X142005105Y-75395439D01*
X142061462Y-75234381D01*
X142152244Y-75089901D01*
X142272901Y-74969244D01*
X142417381Y-74878462D01*
X142578439Y-74822105D01*
X142748000Y-74803000D01*
X142917561Y-74822105D01*
G37*
G36*
X145457561Y-74822105D02*
G01*
X145618619Y-74878462D01*
X145763099Y-74969244D01*
X145883756Y-75089901D01*
X145974538Y-75234381D01*
X146030895Y-75395439D01*
X146050000Y-75565000D01*
X146030895Y-75734561D01*
X145974538Y-75895619D01*
X145883756Y-76040099D01*
X145763099Y-76160756D01*
X145618619Y-76251538D01*
X145457561Y-76307895D01*
X145288000Y-76327000D01*
X145118439Y-76307895D01*
X144957381Y-76251538D01*
X144812901Y-76160756D01*
X144692244Y-76040099D01*
X144601462Y-75895619D01*
X144545105Y-75734561D01*
X144526000Y-75565000D01*
X144545105Y-75395439D01*
X144601462Y-75234381D01*
X144692244Y-75089901D01*
X144812901Y-74969244D01*
X144957381Y-74878462D01*
X145118439Y-74822105D01*
X145288000Y-74803000D01*
X145457561Y-74822105D01*
G37*
G36*
X147997561Y-74822105D02*
G01*
X148158619Y-74878462D01*
X148303099Y-74969244D01*
X148423756Y-75089901D01*
X148514538Y-75234381D01*
X148570895Y-75395439D01*
X148590000Y-75565000D01*
X148570895Y-75734561D01*
X148514538Y-75895619D01*
X148423756Y-76040099D01*
X148303099Y-76160756D01*
X148158619Y-76251538D01*
X147997561Y-76307895D01*
X147828000Y-76327000D01*
X147658439Y-76307895D01*
X147497381Y-76251538D01*
X147352901Y-76160756D01*
X147232244Y-76040099D01*
X147141462Y-75895619D01*
X147085105Y-75734561D01*
X147066000Y-75565000D01*
X147085105Y-75395439D01*
X147141462Y-75234381D01*
X147232244Y-75089901D01*
X147352901Y-74969244D01*
X147497381Y-74878462D01*
X147658439Y-74822105D01*
X147828000Y-74803000D01*
X147997561Y-74822105D01*
G37*
G36*
X150537561Y-74822105D02*
G01*
X150698619Y-74878462D01*
X150843099Y-74969244D01*
X150963756Y-75089901D01*
X151054538Y-75234381D01*
X151110895Y-75395439D01*
X151130000Y-75565000D01*
X151110895Y-75734561D01*
X151054538Y-75895619D01*
X150963756Y-76040099D01*
X150843099Y-76160756D01*
X150698619Y-76251538D01*
X150537561Y-76307895D01*
X150368000Y-76327000D01*
X150198439Y-76307895D01*
X150037381Y-76251538D01*
X149892901Y-76160756D01*
X149772244Y-76040099D01*
X149681462Y-75895619D01*
X149625105Y-75734561D01*
X149606000Y-75565000D01*
X149625105Y-75395439D01*
X149681462Y-75234381D01*
X149772244Y-75089901D01*
X149892901Y-74969244D01*
X150037381Y-74878462D01*
X150198439Y-74822105D01*
X150368000Y-74803000D01*
X150537561Y-74822105D01*
G37*
G36*
X153077561Y-74822105D02*
G01*
X153238619Y-74878462D01*
X153383099Y-74969244D01*
X153503756Y-75089901D01*
X153594538Y-75234381D01*
X153650895Y-75395439D01*
X153670000Y-75565000D01*
X153650895Y-75734561D01*
X153594538Y-75895619D01*
X153503756Y-76040099D01*
X153383099Y-76160756D01*
X153238619Y-76251538D01*
X153077561Y-76307895D01*
X152908000Y-76327000D01*
X152738439Y-76307895D01*
X152577381Y-76251538D01*
X152432901Y-76160756D01*
X152312244Y-76040099D01*
X152221462Y-75895619D01*
X152165105Y-75734561D01*
X152146000Y-75565000D01*
X152165105Y-75395439D01*
X152221462Y-75234381D01*
X152312244Y-75089901D01*
X152432901Y-74969244D01*
X152577381Y-74878462D01*
X152738439Y-74822105D01*
X152908000Y-74803000D01*
X153077561Y-74822105D01*
G37*
G36*
X155617561Y-74822105D02*
G01*
X155778619Y-74878462D01*
X155923099Y-74969244D01*
X156043756Y-75089901D01*
X156134538Y-75234381D01*
X156190895Y-75395439D01*
X156210000Y-75565000D01*
X156190895Y-75734561D01*
X156134538Y-75895619D01*
X156043756Y-76040099D01*
X155923099Y-76160756D01*
X155778619Y-76251538D01*
X155617561Y-76307895D01*
X155448000Y-76327000D01*
X155278439Y-76307895D01*
X155117381Y-76251538D01*
X154972901Y-76160756D01*
X154852244Y-76040099D01*
X154761462Y-75895619D01*
X154705105Y-75734561D01*
X154686000Y-75565000D01*
X154705105Y-75395439D01*
X154761462Y-75234381D01*
X154852244Y-75089901D01*
X154972901Y-74969244D01*
X155117381Y-74878462D01*
X155278439Y-74822105D01*
X155448000Y-74803000D01*
X155617561Y-74822105D01*
G37*
G36*
X158157561Y-74822105D02*
G01*
X158318619Y-74878462D01*
X158463099Y-74969244D01*
X158583756Y-75089901D01*
X158674538Y-75234381D01*
X158730895Y-75395439D01*
X158750000Y-75565000D01*
X158730895Y-75734561D01*
X158674538Y-75895619D01*
X158583756Y-76040099D01*
X158463099Y-76160756D01*
X158318619Y-76251538D01*
X158157561Y-76307895D01*
X157988000Y-76327000D01*
X157818439Y-76307895D01*
X157657381Y-76251538D01*
X157512901Y-76160756D01*
X157392244Y-76040099D01*
X157301462Y-75895619D01*
X157245105Y-75734561D01*
X157226000Y-75565000D01*
X157245105Y-75395439D01*
X157301462Y-75234381D01*
X157392244Y-75089901D01*
X157512901Y-74969244D01*
X157657381Y-74878462D01*
X157818439Y-74822105D01*
X157988000Y-74803000D01*
X158157561Y-74822105D01*
G37*
G36*
X160697561Y-74822105D02*
G01*
X160858619Y-74878462D01*
X161003099Y-74969244D01*
X161123756Y-75089901D01*
X161214538Y-75234381D01*
X161270895Y-75395439D01*
X161290000Y-75565000D01*
X161270895Y-75734561D01*
X161214538Y-75895619D01*
X161123756Y-76040099D01*
X161003099Y-76160756D01*
X160858619Y-76251538D01*
X160697561Y-76307895D01*
X160528000Y-76327000D01*
X160358439Y-76307895D01*
X160197381Y-76251538D01*
X160052901Y-76160756D01*
X159932244Y-76040099D01*
X159841462Y-75895619D01*
X159785105Y-75734561D01*
X159766000Y-75565000D01*
X159785105Y-75395439D01*
X159841462Y-75234381D01*
X159932244Y-75089901D01*
X160052901Y-74969244D01*
X160197381Y-74878462D01*
X160358439Y-74822105D01*
X160528000Y-74803000D01*
X160697561Y-74822105D01*
G37*
G36*
X163237561Y-74822105D02*
G01*
X163398619Y-74878462D01*
X163543099Y-74969244D01*
X163663756Y-75089901D01*
X163754538Y-75234381D01*
X163810895Y-75395439D01*
X163830000Y-75565000D01*
X163810895Y-75734561D01*
X163754538Y-75895619D01*
X163663756Y-76040099D01*
X163543099Y-76160756D01*
X163398619Y-76251538D01*
X163237561Y-76307895D01*
X163068000Y-76327000D01*
X162898439Y-76307895D01*
X162737381Y-76251538D01*
X162592901Y-76160756D01*
X162472244Y-76040099D01*
X162381462Y-75895619D01*
X162325105Y-75734561D01*
X162306000Y-75565000D01*
X162325105Y-75395439D01*
X162381462Y-75234381D01*
X162472244Y-75089901D01*
X162592901Y-74969244D01*
X162737381Y-74878462D01*
X162898439Y-74822105D01*
X163068000Y-74803000D01*
X163237561Y-74822105D01*
G37*
G36*
X165777561Y-74822105D02*
G01*
X165938619Y-74878462D01*
X166083099Y-74969244D01*
X166203756Y-75089901D01*
X166294538Y-75234381D01*
X166350895Y-75395439D01*
X166370000Y-75565000D01*
X166350895Y-75734561D01*
X166294538Y-75895619D01*
X166203756Y-76040099D01*
X166083099Y-76160756D01*
X165938619Y-76251538D01*
X165777561Y-76307895D01*
X165608000Y-76327000D01*
X165438439Y-76307895D01*
X165277381Y-76251538D01*
X165132901Y-76160756D01*
X165012244Y-76040099D01*
X164921462Y-75895619D01*
X164865105Y-75734561D01*
X164846000Y-75565000D01*
X164865105Y-75395439D01*
X164921462Y-75234381D01*
X165012244Y-75089901D01*
X165132901Y-74969244D01*
X165277381Y-74878462D01*
X165438439Y-74822105D01*
X165608000Y-74803000D01*
X165777561Y-74822105D01*
G37*
G36*
X191750295Y-71919699D02*
G01*
X191994427Y-71978310D01*
X192226385Y-72074390D01*
X192440456Y-72205573D01*
X192631371Y-72368629D01*
X192794427Y-72559544D01*
X192925610Y-72773615D01*
X193021690Y-73005573D01*
X193080301Y-73249705D01*
X193100000Y-73500000D01*
X193080301Y-73750295D01*
X193021690Y-73994427D01*
X192925610Y-74226385D01*
X192794427Y-74440456D01*
X192631371Y-74631371D01*
X192440456Y-74794427D01*
X192226385Y-74925610D01*
X191994427Y-75021690D01*
X191750295Y-75080301D01*
X191500000Y-75100000D01*
X191249705Y-75080301D01*
X191005573Y-75021690D01*
X190773615Y-74925610D01*
X190559544Y-74794427D01*
X190368629Y-74631371D01*
X190205573Y-74440456D01*
X190074390Y-74226385D01*
X189978310Y-73994427D01*
X189919699Y-73750295D01*
X189900000Y-73500000D01*
X189919699Y-73249705D01*
X189978310Y-73005573D01*
X190074390Y-72773615D01*
X190205573Y-72559544D01*
X190368629Y-72368629D01*
X190559544Y-72205573D01*
X190773615Y-72074390D01*
X191005573Y-71978310D01*
X191249705Y-71919699D01*
X191500000Y-71900000D01*
X191750295Y-71919699D01*
G37*
M02*
