M48
; DRILL file {KiCad 8.0.9} date 2025-07-12T12:55:13+0200
; FORMAT={-:-/ absolute / metric / decimal}
; #@! TF.CreationDate,2025-07-12T12:55:13+02:00
; #@! TF.GenerationSoftware,Kicad,Pcbnew,8.0.9
; #@! TF.FileFunction,Plated,1,4,PTH
FMAT,2
METRIC
; #@! TA.AperFunction,Plated,PTH,ViaDrill
T1C0.300
; #@! TA.AperFunction,Plated,PTH,ComponentDrill
T2C0.762
; #@! TA.AperFunction,Plated,PTH,ComponentDrill
T3C0.800
; #@! TA.AperFunction,Plated,PTH,ComponentDrill
T4C1.000
; #@! TA.AperFunction,Plated,PTH,ComponentDrill
T5C1.300
; #@! TA.AperFunction,Plated,PTH,ComponentDrill
T6C1.500
%
G90
G05
T1
X146.5Y-96.2
X149.7Y-96.2
X174.8Y-91.3
T2
X161.3Y-84.3
X161.3Y-91.484
T3
X130.048Y-75.565
X130.048Y-100.965
X132.588Y-75.565
X132.588Y-100.965
X135.128Y-75.565
X135.128Y-100.965
X137.668Y-75.565
X137.668Y-100.965
X140.208Y-75.565
X140.208Y-100.965
X142.748Y-75.565
X142.748Y-100.965
X145.288Y-75.565
X145.288Y-100.965
X147.828Y-75.565
X147.828Y-100.965
X150.368Y-75.565
X150.368Y-100.965
X152.908Y-75.565
X152.908Y-100.965
X155.448Y-75.565
X155.448Y-100.965
X157.988Y-75.565
X157.988Y-100.965
X160.528Y-75.565
X160.528Y-100.965
X163.068Y-75.565
X163.068Y-100.965
X165.608Y-75.565
X165.608Y-100.965
X179.832Y-96.56
X179.832Y-99.06
T4
X179.578Y-77.089
X179.578Y-79.629
X179.578Y-82.169
X179.578Y-84.709
X179.578Y-87.249
X179.578Y-89.789
T5
X136.271Y-105.41
X136.271Y-120.65
T6
X125.73Y-107.569
X125.73Y-112.649
X170.79Y-111.0
X186.03Y-111.0
M30
