<svg width="512" height="512" viewBox="0 0 512 512" fill="none" xmlns="http://www.w3.org/2000/svg">
<rect width="512" height="512" fill="white"/>
<path d="M116.696 158.768C112.045 158.768 107.842 157.765 104.088 155.76C100.376 153.755 97.4528 151.003 95.3195 147.504C93.2288 143.963 92.1835 139.995 92.1835 135.6C92.1835 131.205 93.2288 127.259 95.3195 123.76C97.4528 120.219 100.376 117.445 104.088 115.44C107.842 113.435 112.045 112.432 116.696 112.432C121.346 112.432 125.528 113.435 129.24 115.44C132.952 117.445 135.874 120.219 138.008 123.76C140.141 127.259 141.208 131.205 141.208 135.6C141.208 139.995 140.141 143.963 138.008 147.504C135.874 151.003 132.952 153.755 129.24 155.76C125.528 157.765 121.346 158.768 116.696 158.768ZM116.696 149.936C119.341 149.936 121.73 149.339 123.864 148.144C125.997 146.907 127.661 145.2 128.856 143.024C130.093 140.848 130.712 138.373 130.712 135.6C130.712 132.827 130.093 130.352 128.856 128.176C127.661 126 125.997 124.315 123.864 123.12C121.73 121.883 119.341 121.264 116.696 121.264C114.05 121.264 111.661 121.883 109.528 123.12C107.394 124.315 105.709 126 104.472 128.176C103.277 130.352 102.68 132.827 102.68 135.6C102.68 138.373 103.277 140.848 104.472 143.024C105.709 145.2 107.394 146.907 109.528 148.144C111.661 149.339 114.05 149.936 116.696 149.936ZM168.648 123.056C171.848 123.056 174.749 123.803 177.352 125.296C179.997 126.747 182.066 128.816 183.56 131.504C185.053 134.149 185.8 137.243 185.8 140.784C185.8 144.325 185.053 147.44 183.56 150.128C182.066 152.773 179.997 154.843 177.352 156.336C174.749 157.787 171.848 158.512 168.648 158.512C164.253 158.512 160.797 157.125 158.28 154.352V170.416H148.296V123.568H157.832V127.536C160.306 124.549 163.912 123.056 168.648 123.056ZM166.92 150.32C169.48 150.32 171.57 149.467 173.192 147.76C174.856 146.011 175.688 143.685 175.688 140.784C175.688 137.883 174.856 135.579 173.192 133.872C171.57 132.123 169.48 131.248 166.92 131.248C164.36 131.248 162.248 132.123 160.583 133.872C158.962 135.579 158.152 137.883 158.152 140.784C158.152 143.685 158.962 146.011 160.583 147.76C162.248 149.467 164.36 150.32 166.92 150.32ZM209.827 150.512C211.619 150.512 213.198 150.256 214.563 149.744C215.971 149.189 217.272 148.336 218.467 147.184L223.779 152.944C220.536 156.656 215.8 158.512 209.571 158.512C205.688 158.512 202.254 157.765 199.267 156.272C196.28 154.736 193.976 152.624 192.355 149.936C190.734 147.248 189.923 144.197 189.923 140.784C189.923 137.413 190.712 134.384 192.291 131.696C193.912 128.965 196.11 126.853 198.883 125.36C201.699 123.824 204.856 123.056 208.355 123.056C211.64 123.056 214.627 123.76 217.315 125.168C220.003 126.533 222.136 128.539 223.715 131.184C225.336 133.787 226.147 136.88 226.147 140.464L200.675 145.392C201.4 147.099 202.531 148.379 204.067 149.232C205.646 150.085 207.566 150.512 209.827 150.512ZM208.355 130.608C205.838 130.608 203.79 131.419 202.211 133.04C200.632 134.661 199.8 136.901 199.715 139.76L216.483 136.496C216.014 134.704 215.054 133.275 213.603 132.208C212.152 131.141 210.403 130.608 208.355 130.608ZM253.786 123.056C258.053 123.056 261.487 124.336 264.09 126.896C266.735 129.456 268.058 133.253 268.058 138.288V158H258.074V139.824C258.074 137.093 257.477 135.067 256.282 133.744C255.087 132.379 253.359 131.696 251.098 131.696C248.581 131.696 246.575 132.485 245.082 134.064C243.589 135.6 242.842 137.904 242.842 140.976V158H232.858V123.568H242.394V127.6C243.717 126.149 245.359 125.04 247.322 124.272C249.285 123.461 251.439 123.056 253.786 123.056ZM299.252 158.768C294.687 158.768 290.548 157.787 286.836 155.824C283.167 153.819 280.265 151.067 278.132 147.568C276.041 144.027 274.996 140.037 274.996 135.6C274.996 131.163 276.041 127.195 278.132 123.696C280.265 120.155 283.167 117.403 286.836 115.44C290.548 113.435 294.708 112.432 299.316 112.432C303.199 112.432 306.697 113.115 309.812 114.48C312.969 115.845 315.615 117.808 317.748 120.368L311.092 126.512C308.063 123.013 304.308 121.264 299.828 121.264C297.055 121.264 294.58 121.883 292.404 123.12C290.228 124.315 288.521 126 287.284 128.176C286.089 130.352 285.492 132.827 285.492 135.6C285.492 138.373 286.089 140.848 287.284 143.024C288.521 145.2 290.228 146.907 292.404 148.144C294.58 149.339 297.055 149.936 299.828 149.936C304.308 149.936 308.063 148.165 311.092 144.624L317.748 150.768C315.615 153.371 312.969 155.355 309.812 156.72C306.655 158.085 303.135 158.768 299.252 158.768ZM344.91 112.432C349.048 112.432 352.654 113.243 355.726 114.864C358.798 116.485 361.187 118.875 362.894 122.032C364.6 125.189 365.454 129.008 365.454 133.488V158H355.086V147.248H334.606V158H324.366V133.488C324.366 129.008 325.219 125.189 326.926 122.032C328.632 118.875 331.022 116.485 334.094 114.864C337.166 113.243 340.771 112.432 344.91 112.432ZM355.086 138.928V132.528C355.086 128.816 354.168 126.021 352.333 124.144C350.499 122.224 348.003 121.264 344.846 121.264C341.646 121.264 339.128 122.224 337.294 124.144C335.502 126.021 334.606 128.816 334.606 132.528V138.928H355.086ZM399.431 112.432C404.764 112.432 408.924 114.117 411.911 117.488C414.898 120.816 416.391 125.573 416.391 131.76V158H406.023V132.08C406.023 128.496 405.17 125.808 403.463 124.016C401.799 122.181 399.474 121.264 396.487 121.264C393.33 121.264 390.791 122.245 388.871 124.208C386.994 126.128 386.055 128.987 386.055 132.784V158H375.687V113.2H385.735V118.64C387.271 116.592 389.191 115.056 391.495 114.032C393.799 112.965 396.444 112.432 399.431 112.432Z" fill="#FFBA39"/>
<path d="M62.7376 203.505C59.8167 191.54 68.8784 180 81.1956 180H430.619C442.994 180 452.067 191.642 449.043 203.642L422.842 307.625C420.715 316.067 413.124 321.983 404.418 321.983H106.577C97.8194 321.983 90.1961 315.997 88.1193 307.489L62.7376 203.505Z" fill="#B8B8B8"/>
<path d="M222.461 321.983H289.539V325.045C289.539 328.911 286.405 332.045 282.539 332.045H229.461C225.595 332.045 222.461 328.911 222.461 325.045V321.983Z" fill="#B8B8B8"/>
<rect x="183.331" y="195.652" width="27.9494" height="27.9494" fill="#868686"/>
<rect x="222.461" y="195.652" width="27.9494" height="27.9494" fill="#868686"/>
<rect x="144.202" y="195.652" width="27.9494" height="27.9494" fill="#868686"/>
<rect x="105.073" y="195.652" width="27.9494" height="27.9494" fill="#868686"/>
<rect x="339.848" y="195.652" width="27.9494" height="27.9494" fill="#868686"/>
<rect x="378.978" y="195.652" width="27.9494" height="27.9494" fill="#868686"/>
<rect x="300.719" y="195.652" width="27.9494" height="27.9494" fill="#868686"/>
<rect x="261.59" y="195.652" width="27.9494" height="27.9494" fill="#868686"/>
<rect x="183.331" y="234.781" width="27.9494" height="27.9494" fill="#868686"/>
<rect x="222.461" y="234.781" width="27.9494" height="27.9494" fill="#868686"/>
<rect x="144.202" y="234.781" width="27.9494" height="27.9494" fill="#868686"/>
<rect x="105.073" y="234.781" width="27.9494" height="27.9494" fill="#868686"/>
<rect x="105.073" y="242.607" width="301.854" height="12.2978" fill="#868686"/>
<rect x="164.326" y="195.652" width="106.208" height="12.2977" transform="rotate(90 164.326 195.652)" fill="#868686"/>
<rect x="125.197" y="195.652" width="106.208" height="12.2977" transform="rotate(90 125.197 195.652)" fill="#868686"/>
<rect x="203.455" y="195.652" width="106.208" height="12.2977" transform="rotate(90 203.455 195.652)" fill="#868686"/>
<rect x="242.584" y="195.652" width="106.208" height="12.2977" transform="rotate(90 242.584 195.652)" fill="#868686"/>
<rect x="281.714" y="195.652" width="106.208" height="12.2977" transform="rotate(90 281.714 195.652)" fill="#868686"/>
<rect x="320.843" y="195.652" width="106.208" height="12.2977" transform="rotate(90 320.843 195.652)" fill="#868686"/>
<rect x="359.972" y="195.652" width="106.208" height="12.2977" transform="rotate(90 359.972 195.652)" fill="#868686"/>
<rect x="399.101" y="195.652" width="106.208" height="12.2977" transform="rotate(90 399.101 195.652)" fill="#868686"/>
<rect x="339.848" y="234.781" width="27.9494" height="27.9494" fill="#868686"/>
<rect x="378.978" y="234.781" width="27.9494" height="27.9494" fill="#868686"/>
<rect x="300.719" y="234.781" width="27.9494" height="27.9494" fill="#868686"/>
<rect x="261.59" y="234.781" width="27.9494" height="27.9494" fill="#868686"/>
<rect x="183.331" y="273.91" width="27.9494" height="27.9494" fill="#868686"/>
<rect x="222.461" y="273.91" width="27.9494" height="27.9494" fill="#868686"/>
<rect x="144.202" y="273.91" width="27.9494" height="27.9494" fill="#868686"/>
<rect x="105.073" y="273.91" width="27.9494" height="27.9494" fill="#868686"/>
<rect x="339.848" y="273.91" width="27.9494" height="27.9494" fill="#868686"/>
<rect x="378.978" y="273.91" width="27.9494" height="27.9494" fill="#868686"/>
<rect x="300.719" y="273.91" width="27.9494" height="27.9494" fill="#868686"/>
<rect x="261.59" y="273.91" width="27.9494" height="27.9494" fill="#868686"/>
</svg>
